<?xml version="1.0" encoding="utf-8" standalone="no"?>
<!DOCTYPE svg PUBLIC "-//W3C//DTD SVG 1.1//EN"
  "http://www.w3.org/Graphics/SVG/1.1/DTD/svg11.dtd">
<!-- Created with matplotlib (http://matplotlib.org/) -->
<svg height="415pt" version="1.1" viewBox="0 0 501 415" width="501pt" xmlns="http://www.w3.org/2000/svg" xmlns:xlink="http://www.w3.org/1999/xlink">
 <defs>
  <style type="text/css">
*{stroke-linecap:butt;stroke-linejoin:round;stroke-miterlimit:100000;}
  </style>
 </defs>
 <g id="figure_1">
  <g id="patch_1">
   <path d="M -0 415.512 
L 501.912 415.512 
L 501.912 0 
L -0 0 
z
" style="fill:#ffffff;"/>
  </g>
  <g id="axes_1">
   <g id="patch_2">
    <path d="M 60.42125 359.301688 
L 475.251063 359.301688 
L 475.251063 16.345312 
L 60.42125 16.345312 
z
" style="fill:#ffffff;"/>
   </g>
   <g id="matplotlib.axis_1">
    <g id="xtick_1">
     <g id="line2d_1">
      <defs>
       <path d="M 0 0 
L 0 0 
" id="ma7b18a8bd2" style="stroke:#303030;stroke-width:0.8;"/>
      </defs>
      <g>
       <use style="fill:#303030;stroke:#303030;stroke-width:0.8;" x="119.682651786" xlink:href="#ma7b18a8bd2" y="359.3016875"/>
      </g>
     </g>
     <g id="text_1">
      <!-- 0.35 -->
      <defs>
       <path d="M 4.203125 18.890625 
L 12.984375 20.0625 
Q 14.5 12.59375 18.140625 9.296875 
Q 21.78125 6 27 6 
Q 33.203125 6 37.46875 10.296875 
Q 41.75 14.59375 41.75 20.953125 
Q 41.75 27 37.796875 30.921875 
Q 33.84375 34.859375 27.734375 34.859375 
Q 25.25 34.859375 21.53125 33.890625 
L 22.515625 41.609375 
Q 23.390625 41.5 23.921875 41.5 
Q 29.546875 41.5 34.03125 44.421875 
Q 38.53125 47.359375 38.53125 53.46875 
Q 38.53125 58.296875 35.25 61.46875 
Q 31.984375 64.65625 26.8125 64.65625 
Q 21.6875 64.65625 18.265625 61.421875 
Q 14.84375 58.203125 13.875 51.765625 
L 5.078125 53.328125 
Q 6.6875 62.15625 12.390625 67.015625 
Q 18.109375 71.875 26.609375 71.875 
Q 32.46875 71.875 37.390625 69.359375 
Q 42.328125 66.84375 44.9375 62.5 
Q 47.5625 58.15625 47.5625 53.265625 
Q 47.5625 48.640625 45.0625 44.828125 
Q 42.578125 41.015625 37.703125 38.765625 
Q 44.046875 37.3125 47.5625 32.6875 
Q 51.078125 28.078125 51.078125 21.140625 
Q 51.078125 11.765625 44.234375 5.25 
Q 37.40625 -1.265625 26.953125 -1.265625 
Q 17.53125 -1.265625 11.296875 4.34375 
Q 5.078125 9.96875 4.203125 18.890625 
" id="ArialMT-33"/>
       <path d="M 4.15625 18.75 
L 13.375 19.53125 
Q 14.40625 12.796875 18.140625 9.390625 
Q 21.875 6 27.15625 6 
Q 33.5 6 37.890625 10.78125 
Q 42.28125 15.578125 42.28125 23.484375 
Q 42.28125 31 38.0625 35.34375 
Q 33.84375 39.703125 27 39.703125 
Q 22.75 39.703125 19.328125 37.765625 
Q 15.921875 35.84375 13.96875 32.765625 
L 5.71875 33.84375 
L 12.640625 70.609375 
L 48.25 70.609375 
L 48.25 62.203125 
L 19.671875 62.203125 
L 15.828125 42.96875 
Q 22.265625 47.46875 29.34375 47.46875 
Q 38.71875 47.46875 45.15625 40.96875 
Q 51.609375 34.46875 51.609375 24.265625 
Q 51.609375 14.546875 45.953125 7.46875 
Q 39.0625 -1.21875 27.15625 -1.21875 
Q 17.390625 -1.21875 11.203125 4.25 
Q 5.03125 9.71875 4.15625 18.75 
" id="ArialMT-35"/>
       <path d="M 4.15625 35.296875 
Q 4.15625 48 6.765625 55.734375 
Q 9.375 63.484375 14.515625 67.671875 
Q 19.671875 71.875 27.484375 71.875 
Q 33.25 71.875 37.59375 69.546875 
Q 41.9375 67.234375 44.765625 62.859375 
Q 47.609375 58.5 49.21875 52.21875 
Q 50.828125 45.953125 50.828125 35.296875 
Q 50.828125 22.703125 48.234375 14.96875 
Q 45.65625 7.234375 40.5 3 
Q 35.359375 -1.21875 27.484375 -1.21875 
Q 17.140625 -1.21875 11.234375 6.203125 
Q 4.15625 15.140625 4.15625 35.296875 
M 13.1875 35.296875 
Q 13.1875 17.671875 17.3125 11.828125 
Q 21.4375 6 27.484375 6 
Q 33.546875 6 37.671875 11.859375 
Q 41.796875 17.71875 41.796875 35.296875 
Q 41.796875 52.984375 37.671875 58.78125 
Q 33.546875 64.59375 27.390625 64.59375 
Q 21.34375 64.59375 17.71875 59.46875 
Q 13.1875 52.9375 13.1875 35.296875 
" id="ArialMT-30"/>
       <path d="M 9.078125 0 
L 9.078125 10.015625 
L 19.09375 10.015625 
L 19.09375 0 
z
" id="ArialMT-2e"/>
      </defs>
      <g style="fill:#303030;" transform="translate(100.221714286 379.2173125)scale(0.2 -0.2)">
       <use xlink:href="#ArialMT-30"/>
       <use x="55.615234375" xlink:href="#ArialMT-2e"/>
       <use x="83.3984375" xlink:href="#ArialMT-33"/>
       <use x="139.013671875" xlink:href="#ArialMT-35"/>
      </g>
     </g>
    </g>
    <g id="xtick_2">
     <g id="line2d_2">
      <g>
       <use style="fill:#303030;stroke:#303030;stroke-width:0.8;" x="238.205455357" xlink:href="#ma7b18a8bd2" y="359.3016875"/>
      </g>
     </g>
     <g id="text_2">
      <!-- 0.45 -->
      <defs>
       <path d="M 32.328125 0 
L 32.328125 17.140625 
L 1.265625 17.140625 
L 1.265625 25.203125 
L 33.9375 71.578125 
L 41.109375 71.578125 
L 41.109375 25.203125 
L 50.78125 25.203125 
L 50.78125 17.140625 
L 41.109375 17.140625 
L 41.109375 0 
z
M 32.328125 25.203125 
L 32.328125 57.46875 
L 9.90625 25.203125 
z
" id="ArialMT-34"/>
      </defs>
      <g style="fill:#303030;" transform="translate(218.744517857 379.2173125)scale(0.2 -0.2)">
       <use xlink:href="#ArialMT-30"/>
       <use x="55.615234375" xlink:href="#ArialMT-2e"/>
       <use x="83.3984375" xlink:href="#ArialMT-34"/>
       <use x="139.013671875" xlink:href="#ArialMT-35"/>
      </g>
     </g>
    </g>
    <g id="xtick_3">
     <g id="line2d_3">
      <g>
       <use style="fill:#303030;stroke:#303030;stroke-width:0.8;" x="356.728258929" xlink:href="#ma7b18a8bd2" y="359.3016875"/>
      </g>
     </g>
     <g id="text_3">
      <!-- 0.55 -->
      <g style="fill:#303030;" transform="translate(337.267321429 379.2173125)scale(0.2 -0.2)">
       <use xlink:href="#ArialMT-30"/>
       <use x="55.615234375" xlink:href="#ArialMT-2e"/>
       <use x="83.3984375" xlink:href="#ArialMT-35"/>
       <use x="139.013671875" xlink:href="#ArialMT-35"/>
      </g>
     </g>
    </g>
    <g id="xtick_4">
     <g id="line2d_4">
      <g>
       <use style="fill:#303030;stroke:#303030;stroke-width:0.8;" x="475.2510625" xlink:href="#ma7b18a8bd2" y="359.3016875"/>
      </g>
     </g>
     <g id="text_4">
      <!-- 0.65 -->
      <defs>
       <path d="M 49.75 54.046875 
L 41.015625 53.375 
Q 39.84375 58.546875 37.703125 60.890625 
Q 34.125 64.65625 28.90625 64.65625 
Q 24.703125 64.65625 21.53125 62.3125 
Q 17.390625 59.28125 14.984375 53.46875 
Q 12.59375 47.65625 12.5 36.921875 
Q 15.671875 41.75 20.265625 44.09375 
Q 24.859375 46.4375 29.890625 46.4375 
Q 38.671875 46.4375 44.84375 39.96875 
Q 51.03125 33.5 51.03125 23.25 
Q 51.03125 16.5 48.125 10.71875 
Q 45.21875 4.9375 40.140625 1.859375 
Q 35.0625 -1.21875 28.609375 -1.21875 
Q 17.625 -1.21875 10.6875 6.859375 
Q 3.765625 14.9375 3.765625 33.5 
Q 3.765625 54.25 11.421875 63.671875 
Q 18.109375 71.875 29.4375 71.875 
Q 37.890625 71.875 43.28125 67.140625 
Q 48.6875 62.40625 49.75 54.046875 
M 13.875 23.1875 
Q 13.875 18.65625 15.796875 14.5 
Q 17.71875 10.359375 21.1875 8.171875 
Q 24.65625 6 28.46875 6 
Q 34.03125 6 38.03125 10.484375 
Q 42.046875 14.984375 42.046875 22.703125 
Q 42.046875 30.125 38.078125 34.390625 
Q 34.125 38.671875 28.125 38.671875 
Q 22.171875 38.671875 18.015625 34.390625 
Q 13.875 30.125 13.875 23.1875 
" id="ArialMT-36"/>
      </defs>
      <g style="fill:#303030;" transform="translate(455.790125 379.2173125)scale(0.2 -0.2)">
       <use xlink:href="#ArialMT-30"/>
       <use x="55.615234375" xlink:href="#ArialMT-2e"/>
       <use x="83.3984375" xlink:href="#ArialMT-36"/>
       <use x="139.013671875" xlink:href="#ArialMT-35"/>
      </g>
     </g>
    </g>
    <g id="text_5">
     <!-- Onset Bias -->
     <defs>
      <path d="M 42.09375 16.703125 
L 51.171875 15.578125 
Q 49.03125 7.625 43.21875 3.21875 
Q 37.40625 -1.171875 28.375 -1.171875 
Q 17 -1.171875 10.328125 5.828125 
Q 3.65625 12.84375 3.65625 25.484375 
Q 3.65625 38.578125 10.390625 45.796875 
Q 17.140625 53.03125 27.875 53.03125 
Q 38.28125 53.03125 44.875 45.953125 
Q 51.46875 38.875 51.46875 26.03125 
Q 51.46875 25.25 51.421875 23.6875 
L 12.75 23.6875 
Q 13.234375 15.140625 17.578125 10.59375 
Q 21.921875 6.0625 28.421875 6.0625 
Q 33.25 6.0625 36.671875 8.59375 
Q 40.09375 11.140625 42.09375 16.703125 
M 13.234375 30.90625 
L 42.1875 30.90625 
Q 41.609375 37.453125 38.875 40.71875 
Q 34.671875 45.796875 27.984375 45.796875 
Q 21.921875 45.796875 17.796875 41.75 
Q 13.671875 37.703125 13.234375 30.90625 
" id="ArialMT-65"/>
      <path d="M 3.078125 15.484375 
L 11.765625 16.84375 
Q 12.5 11.625 15.84375 8.84375 
Q 19.1875 6.0625 25.203125 6.0625 
Q 31.25 6.0625 34.171875 8.515625 
Q 37.109375 10.984375 37.109375 14.3125 
Q 37.109375 17.28125 34.515625 19 
Q 32.71875 20.171875 25.53125 21.96875 
Q 15.875 24.421875 12.140625 26.203125 
Q 8.40625 27.984375 6.46875 31.125 
Q 4.546875 34.28125 4.546875 38.09375 
Q 4.546875 41.546875 6.125 44.5 
Q 7.71875 47.46875 10.453125 49.421875 
Q 12.5 50.921875 16.03125 51.96875 
Q 19.578125 53.03125 23.640625 53.03125 
Q 29.734375 53.03125 34.34375 51.265625 
Q 38.96875 49.515625 41.15625 46.5 
Q 43.359375 43.5 44.1875 38.484375 
L 35.59375 37.3125 
Q 35.015625 41.3125 32.203125 43.546875 
Q 29.390625 45.796875 24.265625 45.796875 
Q 18.21875 45.796875 15.625 43.796875 
Q 13.03125 41.796875 13.03125 39.109375 
Q 13.03125 37.40625 14.109375 36.03125 
Q 15.1875 34.625 17.484375 33.6875 
Q 18.796875 33.203125 25.25 31.453125 
Q 34.578125 28.953125 38.25 27.359375 
Q 41.9375 25.78125 44.03125 22.75 
Q 46.140625 19.734375 46.140625 15.234375 
Q 46.140625 10.84375 43.578125 6.953125 
Q 41.015625 3.078125 36.171875 0.953125 
Q 31.34375 -1.171875 25.25 -1.171875 
Q 15.140625 -1.171875 9.84375 3.03125 
Q 4.546875 7.234375 3.078125 15.484375 
" id="ArialMT-73"/>
      <path id="ArialMT-20"/>
      <path d="M 6.59375 0 
L 6.59375 51.859375 
L 14.5 51.859375 
L 14.5 44.484375 
Q 20.21875 53.03125 31 53.03125 
Q 35.6875 53.03125 39.625 51.34375 
Q 43.5625 49.65625 45.515625 46.921875 
Q 47.46875 44.1875 48.25 40.4375 
Q 48.734375 37.984375 48.734375 31.890625 
L 48.734375 0 
L 39.9375 0 
L 39.9375 31.546875 
Q 39.9375 36.921875 38.90625 39.578125 
Q 37.890625 42.234375 35.28125 43.8125 
Q 32.671875 45.40625 29.15625 45.40625 
Q 23.53125 45.40625 19.453125 41.84375 
Q 15.375 38.28125 15.375 28.328125 
L 15.375 0 
z
" id="ArialMT-6e"/>
      <path d="M 25.78125 7.859375 
L 27.046875 0.09375 
Q 23.34375 -0.6875 20.40625 -0.6875 
Q 15.625 -0.6875 12.984375 0.828125 
Q 10.359375 2.34375 9.28125 4.8125 
Q 8.203125 7.28125 8.203125 15.1875 
L 8.203125 45.015625 
L 1.765625 45.015625 
L 1.765625 51.859375 
L 8.203125 51.859375 
L 8.203125 64.703125 
L 16.9375 69.96875 
L 16.9375 51.859375 
L 25.78125 51.859375 
L 25.78125 45.015625 
L 16.9375 45.015625 
L 16.9375 14.703125 
Q 16.9375 10.9375 17.40625 9.859375 
Q 17.875 8.796875 18.921875 8.15625 
Q 19.96875 7.515625 21.921875 7.515625 
Q 23.390625 7.515625 25.78125 7.859375 
" id="ArialMT-74"/>
      <path d="M 6.640625 61.46875 
L 6.640625 71.578125 
L 15.4375 71.578125 
L 15.4375 61.46875 
z
M 6.640625 0 
L 6.640625 51.859375 
L 15.4375 51.859375 
L 15.4375 0 
z
" id="ArialMT-69"/>
      <path d="M 7.328125 0 
L 7.328125 71.578125 
L 34.1875 71.578125 
Q 42.390625 71.578125 47.34375 69.40625 
Q 52.296875 67.234375 55.09375 62.71875 
Q 57.90625 58.203125 57.90625 53.265625 
Q 57.90625 48.6875 55.421875 44.625 
Q 52.9375 40.578125 47.90625 38.09375 
Q 54.390625 36.1875 57.875 31.59375 
Q 61.375 27 61.375 20.75 
Q 61.375 15.71875 59.25 11.390625 
Q 57.125 7.078125 54 4.734375 
Q 50.875 2.390625 46.15625 1.1875 
Q 41.453125 0 34.625 0 
z
M 16.796875 41.5 
L 32.28125 41.5 
Q 38.578125 41.5 41.3125 42.328125 
Q 44.921875 43.40625 46.75 45.890625 
Q 48.578125 48.390625 48.578125 52.15625 
Q 48.578125 55.71875 46.875 58.421875 
Q 45.171875 61.140625 41.984375 62.140625 
Q 38.8125 63.140625 31.109375 63.140625 
L 16.796875 63.140625 
z
M 16.796875 8.453125 
L 34.625 8.453125 
Q 39.203125 8.453125 41.0625 8.796875 
Q 44.34375 9.375 46.53125 10.734375 
Q 48.734375 12.109375 50.140625 14.71875 
Q 51.5625 17.328125 51.5625 20.75 
Q 51.5625 24.75 49.515625 27.703125 
Q 47.46875 30.671875 43.828125 31.859375 
Q 40.1875 33.0625 33.34375 33.0625 
L 16.796875 33.0625 
z
" id="ArialMT-42"/>
      <path d="M 40.4375 6.390625 
Q 35.546875 2.25 31.03125 0.53125 
Q 26.515625 -1.171875 21.34375 -1.171875 
Q 12.796875 -1.171875 8.203125 3 
Q 3.609375 7.171875 3.609375 13.671875 
Q 3.609375 17.484375 5.34375 20.625 
Q 7.078125 23.78125 9.890625 25.6875 
Q 12.703125 27.59375 16.21875 28.5625 
Q 18.796875 29.25 24.03125 29.890625 
Q 34.671875 31.15625 39.703125 32.90625 
Q 39.75 34.71875 39.75 35.203125 
Q 39.75 40.578125 37.25 42.78125 
Q 33.890625 45.75 27.25 45.75 
Q 21.046875 45.75 18.09375 43.578125 
Q 15.140625 41.40625 13.71875 35.890625 
L 5.125 37.0625 
Q 6.296875 42.578125 8.984375 45.96875 
Q 11.671875 49.359375 16.75 51.1875 
Q 21.828125 53.03125 28.515625 53.03125 
Q 35.15625 53.03125 39.296875 51.46875 
Q 43.453125 49.90625 45.40625 47.53125 
Q 47.359375 45.171875 48.140625 41.546875 
Q 48.578125 39.3125 48.578125 33.453125 
L 48.578125 21.734375 
Q 48.578125 9.46875 49.140625 6.21875 
Q 49.703125 2.984375 51.375 0 
L 42.1875 0 
Q 40.828125 2.734375 40.4375 6.390625 
M 39.703125 26.03125 
Q 34.90625 24.078125 25.34375 22.703125 
Q 19.921875 21.921875 17.671875 20.9375 
Q 15.4375 19.96875 14.203125 18.09375 
Q 12.984375 16.21875 12.984375 13.921875 
Q 12.984375 10.40625 15.640625 8.0625 
Q 18.3125 5.71875 23.4375 5.71875 
Q 28.515625 5.71875 32.46875 7.9375 
Q 36.421875 10.15625 38.28125 14.015625 
Q 39.703125 17 39.703125 22.796875 
z
" id="ArialMT-61"/>
      <path d="M 4.828125 34.859375 
Q 4.828125 52.6875 14.390625 62.765625 
Q 23.96875 72.859375 39.109375 72.859375 
Q 49.03125 72.859375 56.984375 68.109375 
Q 64.9375 63.375 69.109375 54.90625 
Q 73.296875 46.4375 73.296875 35.6875 
Q 73.296875 24.8125 68.890625 16.21875 
Q 64.5 7.625 56.4375 3.203125 
Q 48.390625 -1.21875 39.0625 -1.21875 
Q 28.953125 -1.21875 20.984375 3.65625 
Q 13.03125 8.546875 8.921875 16.984375 
Q 4.828125 25.4375 4.828125 34.859375 
M 14.59375 34.71875 
Q 14.59375 21.78125 21.546875 14.328125 
Q 28.515625 6.890625 39.015625 6.890625 
Q 49.703125 6.890625 56.609375 14.40625 
Q 63.53125 21.921875 63.53125 35.75 
Q 63.53125 44.484375 60.578125 51 
Q 57.625 57.515625 51.921875 61.109375 
Q 46.234375 64.703125 39.15625 64.703125 
Q 29.109375 64.703125 21.84375 57.78125 
Q 14.59375 50.875 14.59375 34.71875 
" id="ArialMT-4f"/>
     </defs>
     <g style="fill:#303030;" transform="translate(214.03584375 403.9395)scale(0.22 -0.22)">
      <use xlink:href="#ArialMT-4f"/>
      <use x="77.783203125" xlink:href="#ArialMT-6e"/>
      <use x="133.3984375" xlink:href="#ArialMT-73"/>
      <use x="183.3984375" xlink:href="#ArialMT-65"/>
      <use x="239.013671875" xlink:href="#ArialMT-74"/>
      <use x="266.796875" xlink:href="#ArialMT-20"/>
      <use x="294.580078125" xlink:href="#ArialMT-42"/>
      <use x="361.279296875" xlink:href="#ArialMT-69"/>
      <use x="383.49609375" xlink:href="#ArialMT-61"/>
      <use x="439.111328125" xlink:href="#ArialMT-73"/>
     </g>
    </g>
   </g>
   <g id="matplotlib.axis_2">
    <g id="ytick_1">
     <g id="line2d_5">
      <path clip-path="url(#pf8db53ce68)" d="M 60.42125 359.301688 
L 475.251063 359.301688 
" style="fill:none;stroke:#e5e5f7;stroke-linecap:round;stroke-width:1.1199999999999999;"/>
     </g>
     <g id="line2d_6">
      <g>
       <use style="fill:#303030;stroke:#303030;stroke-width:0.8;" x="60.42125" xlink:href="#ma7b18a8bd2" y="359.3016875"/>
      </g>
     </g>
     <g id="text_6">
      <!-- 0 -->
      <g style="fill:#303030;" transform="translate(43.699375 364.472)scale(0.2 -0.2)">
       <use xlink:href="#ArialMT-30"/>
      </g>
     </g>
    </g>
    <g id="ytick_2">
     <g id="line2d_7">
      <path clip-path="url(#pf8db53ce68)" d="M 60.42125 290.710412 
L 475.251063 290.710412 
" style="fill:none;stroke:#e5e5f7;stroke-linecap:round;stroke-width:1.1199999999999999;"/>
     </g>
     <g id="line2d_8">
      <g>
       <use style="fill:#303030;stroke:#303030;stroke-width:0.8;" x="60.42125" xlink:href="#ma7b18a8bd2" y="290.7104125"/>
      </g>
     </g>
     <g id="text_7">
      <!-- 5 -->
      <g style="fill:#303030;" transform="translate(43.699375 295.880725)scale(0.2 -0.2)">
       <use xlink:href="#ArialMT-35"/>
      </g>
     </g>
    </g>
    <g id="ytick_3">
     <g id="line2d_9">
      <path clip-path="url(#pf8db53ce68)" d="M 60.42125 222.119137 
L 475.251063 222.119137 
" style="fill:none;stroke:#e5e5f7;stroke-linecap:round;stroke-width:1.1199999999999999;"/>
     </g>
     <g id="line2d_10">
      <g>
       <use style="fill:#303030;stroke:#303030;stroke-width:0.8;" x="60.42125" xlink:href="#ma7b18a8bd2" y="222.1191375"/>
      </g>
     </g>
     <g id="text_8">
      <!-- 10 -->
      <defs>
       <path d="M 37.25 0 
L 28.46875 0 
L 28.46875 56 
Q 25.296875 52.984375 20.140625 49.953125 
Q 14.984375 46.921875 10.890625 45.40625 
L 10.890625 53.90625 
Q 18.265625 57.375 23.78125 62.296875 
Q 29.296875 67.234375 31.59375 71.875 
L 37.25 71.875 
z
" id="ArialMT-31"/>
      </defs>
      <g style="fill:#303030;" transform="translate(32.5775 227.28945)scale(0.2 -0.2)">
       <use xlink:href="#ArialMT-31"/>
       <use x="55.615234375" xlink:href="#ArialMT-30"/>
      </g>
     </g>
    </g>
    <g id="ytick_4">
     <g id="line2d_11">
      <path clip-path="url(#pf8db53ce68)" d="M 60.42125 153.527862 
L 475.251063 153.527862 
" style="fill:none;stroke:#e5e5f7;stroke-linecap:round;stroke-width:1.1199999999999999;"/>
     </g>
     <g id="line2d_12">
      <g>
       <use style="fill:#303030;stroke:#303030;stroke-width:0.8;" x="60.42125" xlink:href="#ma7b18a8bd2" y="153.5278625"/>
      </g>
     </g>
     <g id="text_9">
      <!-- 15 -->
      <g style="fill:#303030;" transform="translate(32.5775 158.698175)scale(0.2 -0.2)">
       <use xlink:href="#ArialMT-31"/>
       <use x="55.615234375" xlink:href="#ArialMT-35"/>
      </g>
     </g>
    </g>
    <g id="ytick_5">
     <g id="line2d_13">
      <path clip-path="url(#pf8db53ce68)" d="M 60.42125 84.936587 
L 475.251063 84.936587 
" style="fill:none;stroke:#e5e5f7;stroke-linecap:round;stroke-width:1.1199999999999999;"/>
     </g>
     <g id="line2d_14">
      <g>
       <use style="fill:#303030;stroke:#303030;stroke-width:0.8;" x="60.42125" xlink:href="#ma7b18a8bd2" y="84.9365875"/>
      </g>
     </g>
     <g id="text_10">
      <!-- 20 -->
      <defs>
       <path d="M 50.34375 8.453125 
L 50.34375 0 
L 3.03125 0 
Q 2.9375 3.171875 4.046875 6.109375 
Q 5.859375 10.9375 9.828125 15.625 
Q 13.8125 20.3125 21.34375 26.46875 
Q 33.015625 36.03125 37.109375 41.625 
Q 41.21875 47.21875 41.21875 52.203125 
Q 41.21875 57.421875 37.46875 61 
Q 33.734375 64.59375 27.734375 64.59375 
Q 21.390625 64.59375 17.578125 60.78125 
Q 13.765625 56.984375 13.71875 50.25 
L 4.6875 51.171875 
Q 5.609375 61.28125 11.65625 66.578125 
Q 17.71875 71.875 27.9375 71.875 
Q 38.234375 71.875 44.234375 66.15625 
Q 50.25 60.453125 50.25 52 
Q 50.25 47.703125 48.484375 43.546875 
Q 46.734375 39.40625 42.65625 34.8125 
Q 38.578125 30.21875 29.109375 22.21875 
Q 21.1875 15.578125 18.9375 13.203125 
Q 16.703125 10.84375 15.234375 8.453125 
z
" id="ArialMT-32"/>
      </defs>
      <g style="fill:#303030;" transform="translate(32.5775 90.1069)scale(0.2 -0.2)">
       <use xlink:href="#ArialMT-32"/>
       <use x="55.615234375" xlink:href="#ArialMT-30"/>
      </g>
     </g>
    </g>
    <g id="ytick_6">
     <g id="line2d_15">
      <path clip-path="url(#pf8db53ce68)" d="M 60.42125 16.345312 
L 475.251063 16.345312 
" style="fill:none;stroke:#e5e5f7;stroke-linecap:round;stroke-width:1.1199999999999999;"/>
     </g>
     <g id="line2d_16">
      <g>
       <use style="fill:#303030;stroke:#303030;stroke-width:0.8;" x="60.42125" xlink:href="#ma7b18a8bd2" y="16.3453125"/>
      </g>
     </g>
     <g id="text_11">
      <!-- 25 -->
      <g style="fill:#303030;" transform="translate(32.5775 21.515625)scale(0.2 -0.2)">
       <use xlink:href="#ArialMT-32"/>
       <use x="55.615234375" xlink:href="#ArialMT-35"/>
      </g>
     </g>
    </g>
    <g id="text_12">
     <!-- Density -->
     <defs>
      <path d="M 7.71875 0 
L 7.71875 71.578125 
L 32.375 71.578125 
Q 40.71875 71.578125 45.125 70.5625 
Q 51.265625 69.140625 55.609375 65.4375 
Q 61.28125 60.640625 64.078125 53.1875 
Q 66.890625 45.75 66.890625 36.1875 
Q 66.890625 28.03125 64.984375 21.734375 
Q 63.09375 15.4375 60.109375 11.296875 
Q 57.125 7.171875 53.578125 4.796875 
Q 50.046875 2.4375 45.046875 1.21875 
Q 40.046875 0 33.546875 0 
z
M 17.1875 8.453125 
L 32.46875 8.453125 
Q 39.546875 8.453125 43.578125 9.765625 
Q 47.609375 11.078125 50 13.484375 
Q 53.375 16.84375 55.25 22.53125 
Q 57.125 28.21875 57.125 36.328125 
Q 57.125 47.5625 53.4375 53.59375 
Q 49.75 59.625 44.484375 61.671875 
Q 40.671875 63.140625 32.234375 63.140625 
L 17.1875 63.140625 
z
" id="ArialMT-44"/>
      <path d="M 6.203125 -19.96875 
L 5.21875 -11.71875 
Q 8.109375 -12.5 10.25 -12.5 
Q 13.1875 -12.5 14.9375 -11.515625 
Q 16.703125 -10.546875 17.828125 -8.796875 
Q 18.65625 -7.46875 20.515625 -2.25 
Q 20.75 -1.515625 21.296875 -0.09375 
L 1.609375 51.859375 
L 11.078125 51.859375 
L 21.875 21.828125 
Q 23.96875 16.109375 25.640625 9.8125 
Q 27.15625 15.875 29.25 21.625 
L 40.328125 51.859375 
L 49.125 51.859375 
L 29.390625 -0.875 
Q 26.21875 -9.421875 24.46875 -12.640625 
Q 22.125 -17 19.09375 -19.015625 
Q 16.0625 -21.046875 11.859375 -21.046875 
Q 9.328125 -21.046875 6.203125 -19.96875 
" id="ArialMT-79"/>
     </defs>
     <g style="fill:#303030;" transform="translate(22.9471875 224.501625)rotate(-90.0)scale(0.22 -0.22)">
      <use xlink:href="#ArialMT-44"/>
      <use x="72.216796875" xlink:href="#ArialMT-65"/>
      <use x="127.83203125" xlink:href="#ArialMT-6e"/>
      <use x="183.447265625" xlink:href="#ArialMT-73"/>
      <use x="233.447265625" xlink:href="#ArialMT-69"/>
      <use x="255.6640625" xlink:href="#ArialMT-74"/>
      <use x="283.447265625" xlink:href="#ArialMT-79"/>
     </g>
    </g>
   </g>
   <g id="PolyCollection_1">
    <defs>
     <path d="M 242.384155 -56.216439 
L 242.384155 -56.210313 
L 244.020127 -56.210313 
L 245.656099 -56.210313 
L 247.292071 -56.210313 
L 248.928043 -56.210313 
L 250.564015 -56.210313 
L 252.199988 -56.210313 
L 253.83596 -56.210313 
L 255.471932 -56.210313 
L 257.107904 -56.210313 
L 258.743876 -56.210313 
L 260.379848 -56.210313 
L 262.01582 -56.210313 
L 263.651792 -56.210313 
L 265.287764 -56.210313 
L 266.923736 -56.210313 
L 268.559708 -56.210313 
L 270.19568 -56.210313 
L 271.831652 -56.210313 
L 273.467624 -56.210313 
L 275.103596 -56.210313 
L 276.739568 -56.210313 
L 278.37554 -56.210313 
L 280.011513 -56.210313 
L 281.647485 -56.210313 
L 283.283457 -56.210313 
L 284.919429 -56.210313 
L 286.555401 -56.210313 
L 288.191373 -56.210313 
L 289.827345 -56.210313 
L 291.463317 -56.210313 
L 293.099289 -56.210313 
L 294.735261 -56.210313 
L 296.371233 -56.210313 
L 298.007205 -56.210313 
L 299.643177 -56.210313 
L 301.279149 -56.210313 
L 302.915121 -56.210313 
L 304.551093 -56.210313 
L 306.187065 -56.210313 
L 307.823037 -56.210313 
L 309.45901 -56.210313 
L 311.094982 -56.210313 
L 312.730954 -56.210313 
L 314.366926 -56.210313 
L 316.002898 -56.210313 
L 317.63887 -56.210313 
L 319.274842 -56.210313 
L 320.910814 -56.210313 
L 322.546786 -56.210313 
L 324.182758 -56.210313 
L 325.81873 -56.210313 
L 327.454702 -56.210313 
L 329.090674 -56.210313 
L 330.726646 -56.210313 
L 332.362618 -56.210313 
L 333.99859 -56.210313 
L 335.634562 -56.210313 
L 337.270534 -56.210313 
L 338.906507 -56.210313 
L 340.542479 -56.210313 
L 342.178451 -56.210313 
L 343.814423 -56.210313 
L 345.450395 -56.210313 
L 347.086367 -56.210313 
L 348.722339 -56.210313 
L 350.358311 -56.210313 
L 351.994283 -56.210313 
L 353.630255 -56.210313 
L 355.266227 -56.210313 
L 356.902199 -56.210313 
L 358.538171 -56.210313 
L 360.174143 -56.210313 
L 361.810115 -56.210313 
L 363.446087 -56.210313 
L 365.082059 -56.210313 
L 366.718032 -56.210313 
L 368.354004 -56.210313 
L 369.989976 -56.210313 
L 371.625948 -56.210313 
L 373.26192 -56.210313 
L 374.897892 -56.210313 
L 376.533864 -56.210313 
L 378.169836 -56.210313 
L 379.805808 -56.210313 
L 381.44178 -56.210313 
L 383.077752 -56.210313 
L 384.713724 -56.210313 
L 386.349696 -56.210313 
L 387.985668 -56.210313 
L 389.62164 -56.210313 
L 391.257612 -56.210313 
L 392.893584 -56.210313 
L 394.529556 -56.210313 
L 396.165529 -56.210313 
L 397.801501 -56.210313 
L 399.437473 -56.210313 
L 401.073445 -56.210313 
L 402.709417 -56.210313 
L 404.345389 -56.210313 
L 405.981361 -56.210313 
L 407.617333 -56.210313 
L 409.253305 -56.210313 
L 410.889277 -56.210313 
L 412.525249 -56.210313 
L 414.161221 -56.210313 
L 415.797193 -56.210313 
L 417.433165 -56.210313 
L 419.069137 -56.210313 
L 420.705109 -56.210313 
L 422.341081 -56.210313 
L 423.977054 -56.210313 
L 425.613026 -56.210313 
L 427.248998 -56.210313 
L 428.88497 -56.210313 
L 430.520942 -56.210313 
L 432.156914 -56.210313 
L 433.792886 -56.210313 
L 435.428858 -56.210313 
L 437.06483 -56.210313 
L 438.700802 -56.210313 
L 440.336774 -56.210313 
L 441.972746 -56.210313 
L 443.608718 -56.210313 
L 445.24469 -56.210313 
L 446.880662 -56.210313 
L 448.516634 -56.210313 
L 450.152606 -56.210313 
L 450.152606 -56.216778 
L 450.152606 -56.216778 
L 448.516634 -56.223056 
L 446.880662 -56.238458 
L 445.24469 -56.268987 
L 443.608718 -56.323011 
L 441.972746 -56.410043 
L 440.336774 -56.539039 
L 438.700802 -56.71724 
L 437.06483 -56.950594 
L 435.428858 -57.245619 
L 433.792886 -57.610487 
L 432.156914 -58.052094 
L 430.520942 -58.567904 
L 428.88497 -59.136311 
L 427.248998 -59.71382 
L 425.613026 -60.24653 
L 423.977054 -60.695391 
L 422.341081 -61.063871 
L 420.705109 -61.411604 
L 419.069137 -61.843221 
L 417.433165 -62.474737 
L 415.797193 -63.391684 
L 414.161221 -64.617341 
L 412.525249 -66.106176 
L 410.889277 -67.76924 
L 409.253305 -69.525508 
L 407.617333 -71.3576 
L 405.981361 -73.340527 
L 404.345389 -75.620412 
L 402.709417 -78.349033 
L 401.073445 -81.612516 
L 399.437473 -85.401772 
L 397.801501 -89.646414 
L 396.165529 -94.290307 
L 394.529556 -99.358995 
L 392.893584 -104.976585 
L 391.257612 -111.322913 
L 389.62164 -118.555496 
L 387.985668 -126.735854 
L 386.349696 -135.792874 
L 384.713724 -145.533542 
L 383.077752 -155.68628 
L 381.44178 -165.950889 
L 379.805808 -176.040841 
L 378.169836 -185.724871 
L 376.533864 -194.877061 
L 374.897892 -203.518755 
L 373.26192 -211.811977 
L 371.625948 -219.981855 
L 369.989976 -228.202018 
L 368.354004 -236.519254 
L 366.718032 -244.873823 
L 365.082059 -253.199114 
L 363.446087 -261.519147 
L 361.810115 -269.958275 
L 360.174143 -278.637776 
L 358.538171 -287.515498 
L 356.902199 -296.272103 
L 355.266227 -304.327883 
L 353.630255 -310.996957 
L 351.994283 -315.700548 
L 350.358311 -318.128734 
L 348.722339 -318.284192 
L 347.086367 -316.424034 
L 345.450395 -312.967463 
L 343.814423 -308.421273 
L 342.178451 -303.320929 
L 340.542479 -298.152718 
L 338.906507 -293.243009 
L 337.270534 -288.650841 
L 335.634562 -284.131036 
L 333.99859 -279.215517 
L 332.362618 -273.39736 
L 330.726646 -266.334815 
L 329.090674 -257.970428 
L 327.454702 -248.508193 
L 325.81873 -238.281395 
L 324.182758 -227.608104 
L 322.546786 -216.719922 
L 320.910814 -205.778109 
L 319.274842 -194.92478 
L 317.63887 -184.306927 
L 316.002898 -174.052618 
L 314.366926 -164.227327 
L 312.730954 -154.81518 
L 311.094982 -145.74865 
L 309.45901 -136.972762 
L 307.823037 -128.504942 
L 306.187065 -120.454859 
L 304.551093 -112.993506 
L 302.915121 -106.287811 
L 301.279149 -100.431159 
L 299.643177 -95.399603 
L 298.007205 -91.053041 
L 296.371233 -87.18334 
L 294.735261 -83.590807 
L 293.099289 -80.154805 
L 291.463317 -76.864576 
L 289.827345 -73.795845 
L 288.191373 -71.048448 
L 286.555401 -68.682033 
L 284.919429 -66.686089 
L 283.283457 -64.996638 
L 281.647485 -63.540841 
L 280.011513 -62.274767 
L 278.37554 -61.189597 
L 276.739568 -60.288585 
L 275.103596 -59.558853 
L 273.467624 -58.962161 
L 271.831652 -58.44987 
L 270.19568 -57.987408 
L 268.559708 -57.568556 
L 266.923736 -57.210671 
L 265.287764 -56.93677 
L 263.651792 -56.757437 
L 262.01582 -56.662431 
L 260.379848 -56.624098 
L 258.743876 -56.608431 
L 257.107904 -56.587282 
L 255.471932 -56.546268 
L 253.83596 -56.485769 
L 252.199988 -56.415982 
L 250.564015 -56.349538 
L 248.928043 -56.295608 
L 247.292071 -56.257595 
L 245.656099 -56.234131 
L 244.020127 -56.221586 
L 242.384155 -56.216439 
z
" id="mcfb143de88" style="stroke:#ffffff;stroke-opacity:0.9;stroke-width:0.16000000000000003;"/>
    </defs>
    <g clip-path="url(#pf8db53ce68)">
     <use style="fill:#484848;fill-opacity:0.9;stroke:#ffffff;stroke-opacity:0.9;stroke-width:0.16000000000000003;" x="0.0" xlink:href="#mcfb143de88" y="415.512"/>
    </g>
   </g>
   <g id="PolyCollection_2">
    <defs>
     <path d="M 205.229841 -56.217419 
L 205.229841 -56.210313 
L 206.729985 -56.210313 
L 208.230129 -56.210313 
L 209.730273 -56.210313 
L 211.230416 -56.210313 
L 212.73056 -56.210313 
L 214.230704 -56.210313 
L 215.730847 -56.210313 
L 217.230991 -56.210313 
L 218.731135 -56.210313 
L 220.231278 -56.210313 
L 221.731422 -56.210313 
L 223.231566 -56.210313 
L 224.731709 -56.210313 
L 226.231853 -56.210313 
L 227.731997 -56.210313 
L 229.232141 -56.210313 
L 230.732284 -56.210313 
L 232.232428 -56.210313 
L 233.732572 -56.210313 
L 235.232715 -56.210313 
L 236.732859 -56.210313 
L 238.233003 -56.210313 
L 239.733146 -56.210313 
L 241.23329 -56.210313 
L 242.733434 -56.210313 
L 244.233577 -56.210313 
L 245.733721 -56.210313 
L 247.233865 -56.210313 
L 248.734009 -56.210313 
L 250.234152 -56.210313 
L 251.734296 -56.210313 
L 253.23444 -56.210313 
L 254.734583 -56.210313 
L 256.234727 -56.210313 
L 257.734871 -56.210313 
L 259.235014 -56.210313 
L 260.735158 -56.210313 
L 262.235302 -56.210313 
L 263.735446 -56.210313 
L 265.235589 -56.210313 
L 266.735733 -56.210313 
L 268.235877 -56.210313 
L 269.73602 -56.210313 
L 271.236164 -56.210313 
L 272.736308 -56.210313 
L 274.236451 -56.210313 
L 275.736595 -56.210313 
L 277.236739 -56.210313 
L 278.736882 -56.210313 
L 280.237026 -56.210313 
L 281.73717 -56.210313 
L 283.237314 -56.210313 
L 284.737457 -56.210313 
L 286.237601 -56.210313 
L 287.737745 -56.210313 
L 289.237888 -56.210313 
L 290.738032 -56.210313 
L 292.238176 -56.210313 
L 293.738319 -56.210313 
L 295.238463 -56.210313 
L 296.738607 -56.210313 
L 298.23875 -56.210313 
L 299.738894 -56.210313 
L 301.239038 -56.210313 
L 302.739182 -56.210313 
L 304.239325 -56.210313 
L 305.739469 -56.210313 
L 307.239613 -56.210313 
L 308.739756 -56.210313 
L 310.2399 -56.210313 
L 311.740044 -56.210313 
L 313.240187 -56.210313 
L 314.740331 -56.210313 
L 316.240475 -56.210313 
L 317.740618 -56.210313 
L 319.240762 -56.210313 
L 320.740906 -56.210313 
L 322.24105 -56.210313 
L 323.741193 -56.210313 
L 325.241337 -56.210313 
L 326.741481 -56.210313 
L 328.241624 -56.210313 
L 329.741768 -56.210313 
L 331.241912 -56.210313 
L 332.742055 -56.210313 
L 334.242199 -56.210313 
L 335.742343 -56.210313 
L 337.242487 -56.210313 
L 338.74263 -56.210313 
L 340.242774 -56.210313 
L 341.742918 -56.210313 
L 343.243061 -56.210313 
L 344.743205 -56.210313 
L 346.243349 -56.210313 
L 347.743492 -56.210313 
L 349.243636 -56.210313 
L 350.74378 -56.210313 
L 352.243923 -56.210313 
L 353.744067 -56.210313 
L 355.244211 -56.210313 
L 356.744355 -56.210313 
L 358.244498 -56.210313 
L 359.744642 -56.210313 
L 361.244786 -56.210313 
L 362.744929 -56.210313 
L 364.245073 -56.210313 
L 365.745217 -56.210313 
L 367.24536 -56.210313 
L 368.745504 -56.210313 
L 370.245648 -56.210313 
L 371.745791 -56.210313 
L 373.245935 -56.210313 
L 374.746079 -56.210313 
L 376.246223 -56.210313 
L 377.746366 -56.210313 
L 379.24651 -56.210313 
L 380.746654 -56.210313 
L 382.246797 -56.210313 
L 383.746941 -56.210313 
L 385.247085 -56.210313 
L 386.747228 -56.210313 
L 388.247372 -56.210313 
L 389.747516 -56.210313 
L 391.24766 -56.210313 
L 392.747803 -56.210313 
L 394.247947 -56.210313 
L 395.748091 -56.210313 
L 395.748091 -56.21949 
L 395.748091 -56.21949 
L 394.247947 -56.22883 
L 392.747803 -56.249584 
L 391.24766 -56.288537 
L 389.747516 -56.354128 
L 388.247372 -56.454344 
L 386.747228 -56.594003 
L 385.247085 -56.77287 
L 383.746941 -56.986387 
L 382.246797 -57.229686 
L 380.746654 -57.503313 
L 379.24651 -57.817302 
L 377.746366 -58.190608 
L 376.246223 -58.645486 
L 374.746079 -59.199277 
L 373.245935 -59.857359 
L 371.745791 -60.610302 
L 370.245648 -61.437001 
L 368.745504 -62.314282 
L 367.24536 -63.231468 
L 365.745217 -64.20499 
L 364.245073 -65.285201 
L 362.744929 -66.548608 
L 361.244786 -68.075278 
L 359.744642 -69.920104 
L 358.244498 -72.092056 
L 356.744355 -74.553272 
L 355.244211 -77.24079 
L 353.744067 -80.102802 
L 352.243923 -83.134479 
L 350.74378 -86.398588 
L 349.243636 -90.022407 
L 347.743492 -94.171492 
L 346.243349 -99.009263 
L 344.743205 -104.656809 
L 343.243061 -111.168035 
L 341.742918 -118.529574 
L 340.242774 -126.683436 
L 338.74263 -135.558136 
L 337.242487 -145.088646 
L 335.742343 -155.211088 
L 334.242199 -165.831704 
L 332.742055 -176.784351 
L 331.241912 -187.800635 
L 329.741768 -198.518228 
L 328.241624 -208.542084 
L 326.741481 -217.54913 
L 325.241337 -225.397811 
L 323.741193 -232.18851 
L 322.24105 -238.235804 
L 320.740906 -243.956085 
L 319.240762 -249.719251 
L 317.740618 -255.731166 
L 316.240475 -261.993184 
L 314.740331 -268.342044 
L 313.240187 -274.537215 
L 311.740044 -280.352499 
L 310.2399 -285.641471 
L 308.739756 -290.364911 
L 307.239613 -294.580224 
L 305.739469 -298.398817 
L 304.239325 -301.924349 
L 302.739182 -305.192935 
L 301.239038 -308.138232 
L 299.738894 -310.595548 
L 298.23875 -312.344106 
L 296.738607 -313.173067 
L 295.238463 -312.947008 
L 293.738319 -311.64061 
L 292.238176 -309.317147 
L 290.738032 -306.050665 
L 289.237888 -301.831654 
L 287.737745 -296.521755 
L 286.237601 -289.904177 
L 284.737457 -281.815416 
L 283.237314 -272.283456 
L 281.73717 -261.586943 
L 280.237026 -250.198715 
L 278.736882 -238.647112 
L 277.236739 -227.368179 
L 275.736595 -216.611522 
L 274.236451 -206.423331 
L 272.736308 -196.695536 
L 271.236164 -187.254458 
L 269.73602 -177.958172 
L 268.235877 -168.770101 
L 266.735733 -159.780787 
L 265.235589 -151.168543 
L 263.735446 -143.119102 
L 262.235302 -135.74638 
L 260.735158 -129.054227 
L 259.235014 -122.953086 
L 257.734871 -117.313453 
L 256.234727 -112.020692 
L 254.734583 -107.001998 
L 253.23444 -102.219132 
L 251.734296 -97.643891 
L 250.234152 -93.24202 
L 248.734009 -88.980597 
L 247.233865 -84.852649 
L 245.733721 -80.897375 
L 244.233577 -77.196815 
L 242.733434 -73.847312 
L 241.23329 -70.921828 
L 239.733146 -68.443838 
L 238.233003 -66.383893 
L 236.732859 -64.675849 
L 235.232715 -63.24141 
L 233.732572 -62.011769 
L 232.232428 -60.940052 
L 230.732284 -60.003383 
L 229.232141 -59.196847 
L 227.731997 -58.52333 
L 226.231853 -57.98351 
L 224.731709 -57.569274 
L 223.231566 -57.262137 
L 221.731422 -57.036353 
L 220.231278 -56.864938 
L 218.731135 -56.725882 
L 217.230991 -56.605922 
L 215.730847 -56.500551 
L 214.230704 -56.410897 
L 212.73056 -56.339532 
L 211.230416 -56.287384 
L 209.730273 -56.25274 
L 208.230129 -56.232013 
L 206.729985 -56.221233 
L 205.229841 -56.217419 
z
" id="m688db05aad" style="stroke:#ffffff;stroke-opacity:0.7;stroke-width:0.16000000000000003;"/>
    </defs>
    <g clip-path="url(#pf8db53ce68)">
     <use style="fill:#5d5d5d;fill-opacity:0.7;stroke:#ffffff;stroke-opacity:0.7;stroke-width:0.16000000000000003;" x="0.0" xlink:href="#m688db05aad" y="415.512"/>
    </g>
   </g>
   <g id="PolyCollection_3">
    <defs>
     <path d="M 204.895014 -56.219254 
L 204.895014 -56.210313 
L 206.442591 -56.210313 
L 207.990168 -56.210313 
L 209.537745 -56.210313 
L 211.085322 -56.210313 
L 212.632899 -56.210313 
L 214.180475 -56.210313 
L 215.728052 -56.210313 
L 217.275629 -56.210313 
L 218.823206 -56.210313 
L 220.370783 -56.210313 
L 221.91836 -56.210313 
L 223.465937 -56.210313 
L 225.013514 -56.210313 
L 226.561091 -56.210313 
L 228.108668 -56.210313 
L 229.656245 -56.210313 
L 231.203822 -56.210313 
L 232.751399 -56.210313 
L 234.298976 -56.210313 
L 235.846553 -56.210313 
L 237.39413 -56.210313 
L 238.941707 -56.210313 
L 240.489284 -56.210313 
L 242.036861 -56.210313 
L 243.584438 -56.210313 
L 245.132015 -56.210313 
L 246.679592 -56.210313 
L 248.227169 -56.210313 
L 249.774746 -56.210313 
L 251.322323 -56.210313 
L 252.8699 -56.210313 
L 254.417477 -56.210313 
L 255.965054 -56.210313 
L 257.512631 -56.210313 
L 259.060208 -56.210313 
L 260.607785 -56.210313 
L 262.155362 -56.210313 
L 263.702939 -56.210313 
L 265.250516 -56.210313 
L 266.798092 -56.210313 
L 268.345669 -56.210313 
L 269.893246 -56.210313 
L 271.440823 -56.210313 
L 272.9884 -56.210313 
L 274.535977 -56.210313 
L 276.083554 -56.210313 
L 277.631131 -56.210313 
L 279.178708 -56.210313 
L 280.726285 -56.210313 
L 282.273862 -56.210313 
L 283.821439 -56.210313 
L 285.369016 -56.210313 
L 286.916593 -56.210313 
L 288.46417 -56.210313 
L 290.011747 -56.210313 
L 291.559324 -56.210313 
L 293.106901 -56.210313 
L 294.654478 -56.210313 
L 296.202055 -56.210313 
L 297.749632 -56.210313 
L 299.297209 -56.210313 
L 300.844786 -56.210313 
L 302.392363 -56.210313 
L 303.93994 -56.210313 
L 305.487517 -56.210313 
L 307.035094 -56.210313 
L 308.582671 -56.210313 
L 310.130248 -56.210313 
L 311.677825 -56.210313 
L 313.225402 -56.210313 
L 314.772979 -56.210313 
L 316.320556 -56.210313 
L 317.868133 -56.210313 
L 319.415709 -56.210313 
L 320.963286 -56.210313 
L 322.510863 -56.210313 
L 324.05844 -56.210313 
L 325.606017 -56.210313 
L 327.153594 -56.210313 
L 328.701171 -56.210313 
L 330.248748 -56.210313 
L 331.796325 -56.210313 
L 333.343902 -56.210313 
L 334.891479 -56.210313 
L 336.439056 -56.210313 
L 337.986633 -56.210313 
L 339.53421 -56.210313 
L 341.081787 -56.210313 
L 342.629364 -56.210313 
L 344.176941 -56.210313 
L 345.724518 -56.210313 
L 347.272095 -56.210313 
L 348.819672 -56.210313 
L 350.367249 -56.210313 
L 351.914826 -56.210313 
L 353.462403 -56.210313 
L 355.00998 -56.210313 
L 356.557557 -56.210313 
L 358.105134 -56.210313 
L 359.652711 -56.210313 
L 361.200288 -56.210313 
L 362.747865 -56.210313 
L 364.295442 -56.210313 
L 365.843019 -56.210313 
L 367.390596 -56.210313 
L 368.938173 -56.210313 
L 370.48575 -56.210313 
L 372.033326 -56.210313 
L 373.580903 -56.210313 
L 375.12848 -56.210313 
L 376.676057 -56.210313 
L 378.223634 -56.210313 
L 379.771211 -56.210313 
L 381.318788 -56.210313 
L 382.866365 -56.210313 
L 384.413942 -56.210313 
L 385.961519 -56.210313 
L 387.509096 -56.210313 
L 389.056673 -56.210313 
L 390.60425 -56.210313 
L 392.151827 -56.210313 
L 393.699404 -56.210313 
L 395.246981 -56.210313 
L 396.794558 -56.210313 
L 398.342135 -56.210313 
L 399.889712 -56.210313 
L 401.437289 -56.210313 
L 401.437289 -56.22089 
L 401.437289 -56.22089 
L 399.889712 -56.231385 
L 398.342135 -56.255014 
L 396.794558 -56.298733 
L 395.246981 -56.37001 
L 393.699404 -56.473038 
L 392.151827 -56.604323 
L 390.60425 -56.750177 
L 389.056673 -56.889056 
L 387.509096 -56.99962 
L 385.961519 -57.071601 
L 384.413942 -57.113643 
L 382.866365 -57.153149 
L 381.318788 -57.227756 
L 379.771211 -57.373104 
L 378.223634 -57.613129 
L 376.676057 -57.956471 
L 375.12848 -58.39857 
L 373.580903 -58.927115 
L 372.033326 -59.529041 
L 370.48575 -60.198153 
L 368.938173 -60.941438 
L 367.390596 -61.78055 
L 365.843019 -62.745701 
L 364.295442 -63.863827 
L 362.747865 -65.148681 
L 361.200288 -66.602093 
L 359.652711 -68.229799 
L 358.105134 -70.064514 
L 356.557557 -72.180721 
L 355.00998 -74.687227 
L 353.462403 -77.696033 
L 351.914826 -81.282911 
L 350.367249 -85.465055 
L 348.819672 -90.214685 
L 347.272095 -95.504263 
L 345.724518 -101.352717 
L 344.176941 -107.834109 
L 342.629364 -115.032554 
L 341.081787 -122.967223 
L 339.53421 -131.537144 
L 337.986633 -140.524042 
L 336.439056 -149.651152 
L 334.891479 -158.660855 
L 333.343902 -167.371432 
L 331.796325 -175.699199 
L 330.248748 -183.658525 
L 328.701171 -191.355948 
L 327.153594 -198.979052 
L 325.606017 -206.767744 
L 324.05844 -214.961218 
L 322.510863 -223.73322 
L 320.963286 -233.142754 
L 319.415709 -243.123637 
L 317.868133 -253.516747 
L 316.320556 -264.125964 
L 314.772979 -274.764778 
L 313.225402 -285.262655 
L 311.677825 -295.421257 
L 310.130248 -304.94493 
L 308.582671 -313.399323 
L 307.035094 -320.251184 
L 305.487517 -325.000339 
L 303.93994 -327.351635 
L 302.392363 -327.334644 
L 300.844786 -325.296471 
L 299.297209 -321.763378 
L 297.749632 -317.246032 
L 296.202055 -312.098148 
L 294.654478 -306.502399 
L 293.106901 -300.570012 
L 291.559324 -294.459435 
L 290.011747 -288.405785 
L 288.46417 -282.623753 
L 286.916593 -277.152841 
L 285.369016 -271.771373 
L 283.821439 -266.065195 
L 282.273862 -259.627212 
L 280.726285 -252.268526 
L 279.178708 -244.109783 
L 277.631131 -235.496295 
L 276.083554 -226.788008 
L 274.535977 -218.147015 
L 272.9884 -209.442014 
L 271.440823 -200.319394 
L 269.893246 -190.399889 
L 268.345669 -179.499559 
L 266.798092 -167.770518 
L 265.250516 -155.701729 
L 263.702939 -143.984558 
L 262.155362 -133.302901 
L 260.607785 -124.13398 
L 259.060208 -116.634931 
L 257.512631 -110.647664 
L 255.965054 -105.80118 
L 254.417477 -101.653764 
L 252.8699 -97.814216 
L 251.322323 -94.008057 
L 249.774746 -90.090978 
L 248.227169 -86.034054 
L 246.679592 -81.903019 
L 245.132015 -77.836377 
L 243.584438 -74.014512 
L 242.036861 -70.616234 
L 240.489284 -67.773598 
L 238.941707 -65.543363 
L 237.39413 -63.905542 
L 235.846553 -62.78336 
L 234.298976 -62.069122 
L 232.751399 -61.643507 
L 231.203822 -61.386435 
L 229.656245 -61.185418 
L 228.108668 -60.946743 
L 226.561091 -60.608551 
L 225.013514 -60.149688 
L 223.465937 -59.588578 
L 221.91836 -58.971493 
L 220.370783 -58.355125 
L 218.823206 -57.790319 
L 217.275629 -57.311828 
L 215.728052 -56.935222 
L 214.180475 -56.659248 
L 212.632899 -56.470998 
L 211.085322 -56.351708 
L 209.537745 -56.281732 
L 207.990168 -56.244007 
L 206.442591 -56.225821 
L 204.895014 -56.219254 
z
" id="m9442e19155" style="stroke:#ffffff;stroke-opacity:0.5;stroke-width:0.16000000000000003;"/>
    </defs>
    <g clip-path="url(#pf8db53ce68)">
     <use style="fill:#7b7b7b;fill-opacity:0.5;stroke:#ffffff;stroke-opacity:0.5;stroke-width:0.16000000000000003;" x="0.0" xlink:href="#m9442e19155" y="415.512"/>
    </g>
   </g>
   <g id="PolyCollection_4">
    <defs>
     <path d="M 119.440433 -56.218551 
L 119.440433 -56.210313 
L 121.044256 -56.210313 
L 122.64808 -56.210313 
L 124.251904 -56.210313 
L 125.855727 -56.210313 
L 127.459551 -56.210313 
L 129.063375 -56.210313 
L 130.667198 -56.210313 
L 132.271022 -56.210313 
L 133.874846 -56.210313 
L 135.478669 -56.210313 
L 137.082493 -56.210313 
L 138.686317 -56.210313 
L 140.29014 -56.210313 
L 141.893964 -56.210313 
L 143.497788 -56.210313 
L 145.101611 -56.210313 
L 146.705435 -56.210313 
L 148.309259 -56.210313 
L 149.913082 -56.210313 
L 151.516906 -56.210313 
L 153.12073 -56.210313 
L 154.724553 -56.210313 
L 156.328377 -56.210313 
L 157.9322 -56.210313 
L 159.536024 -56.210313 
L 161.139848 -56.210313 
L 162.743671 -56.210313 
L 164.347495 -56.210313 
L 165.951319 -56.210313 
L 167.555142 -56.210313 
L 169.158966 -56.210313 
L 170.76279 -56.210313 
L 172.366613 -56.210313 
L 173.970437 -56.210313 
L 175.574261 -56.210313 
L 177.178084 -56.210313 
L 178.781908 -56.210313 
L 180.385732 -56.210313 
L 181.989555 -56.210313 
L 183.593379 -56.210313 
L 185.197203 -56.210313 
L 186.801026 -56.210313 
L 188.40485 -56.210313 
L 190.008674 -56.210313 
L 191.612497 -56.210313 
L 193.216321 -56.210313 
L 194.820145 -56.210313 
L 196.423968 -56.210313 
L 198.027792 -56.210313 
L 199.631616 -56.210313 
L 201.235439 -56.210313 
L 202.839263 -56.210313 
L 204.443087 -56.210313 
L 206.04691 -56.210313 
L 207.650734 -56.210313 
L 209.254558 -56.210313 
L 210.858381 -56.210313 
L 212.462205 -56.210313 
L 214.066028 -56.210313 
L 215.669852 -56.210313 
L 217.273676 -56.210313 
L 218.877499 -56.210313 
L 220.481323 -56.210313 
L 222.085147 -56.210313 
L 223.68897 -56.210313 
L 225.292794 -56.210313 
L 226.896618 -56.210313 
L 228.500441 -56.210313 
L 230.104265 -56.210313 
L 231.708089 -56.210313 
L 233.311912 -56.210313 
L 234.915736 -56.210313 
L 236.51956 -56.210313 
L 238.123383 -56.210313 
L 239.727207 -56.210313 
L 241.331031 -56.210313 
L 242.934854 -56.210313 
L 244.538678 -56.210313 
L 246.142502 -56.210313 
L 247.746325 -56.210313 
L 249.350149 -56.210313 
L 250.953973 -56.210313 
L 252.557796 -56.210313 
L 254.16162 -56.210313 
L 255.765444 -56.210313 
L 257.369267 -56.210313 
L 258.973091 -56.210313 
L 260.576915 -56.210313 
L 262.180738 -56.210313 
L 263.784562 -56.210313 
L 265.388385 -56.210313 
L 266.992209 -56.210313 
L 268.596033 -56.210313 
L 270.199856 -56.210313 
L 271.80368 -56.210313 
L 273.407504 -56.210313 
L 275.011327 -56.210313 
L 276.615151 -56.210313 
L 278.218975 -56.210313 
L 279.822798 -56.210313 
L 281.426622 -56.210313 
L 283.030446 -56.210313 
L 284.634269 -56.210313 
L 286.238093 -56.210313 
L 287.841917 -56.210313 
L 289.44574 -56.210313 
L 291.049564 -56.210313 
L 292.653388 -56.210313 
L 294.257211 -56.210313 
L 295.861035 -56.210313 
L 297.464859 -56.210313 
L 299.068682 -56.210313 
L 300.672506 -56.210313 
L 302.27633 -56.210313 
L 303.880153 -56.210313 
L 305.483977 -56.210313 
L 307.087801 -56.210313 
L 308.691624 -56.210313 
L 310.295448 -56.210313 
L 311.899272 -56.210313 
L 313.503095 -56.210313 
L 315.106919 -56.210313 
L 316.710743 -56.210313 
L 318.314566 -56.210313 
L 319.91839 -56.210313 
L 321.522213 -56.210313 
L 323.126037 -56.210313 
L 323.126037 -56.220517 
L 323.126037 -56.220517 
L 321.522213 -56.231489 
L 319.91839 -56.257192 
L 318.314566 -56.307752 
L 316.710743 -56.396852 
L 315.106919 -56.5388 
L 313.503095 -56.743232 
L 311.899272 -57.008821 
L 310.295448 -57.319078 
L 308.691624 -57.643781 
L 307.087801 -57.94766 
L 305.483977 -58.2044 
L 303.880153 -58.410698 
L 302.27633 -58.594413 
L 300.672506 -58.813289 
L 299.068682 -59.144919 
L 297.464859 -59.671931 
L 295.861035 -60.467145 
L 294.257211 -61.581443 
L 292.653388 -63.034299 
L 291.049564 -64.806014 
L 289.44574 -66.833284 
L 287.841917 -69.013973 
L 286.238093 -71.227725 
L 284.634269 -73.372459 
L 283.030446 -75.405386 
L 281.426622 -77.369755 
L 279.822798 -79.392534 
L 278.218975 -81.652594 
L 276.615151 -84.333972 
L 275.011327 -87.584512 
L 273.407504 -91.493826 
L 271.80368 -96.091972 
L 270.199856 -101.360462 
L 268.596033 -107.245816 
L 266.992209 -113.671496 
L 265.388385 -120.550161 
L 263.784562 -127.799069 
L 262.180738 -135.35726 
L 260.576915 -143.198649 
L 258.973091 -151.334557 
L 257.369267 -159.802351 
L 255.765444 -168.641633 
L 254.16162 -177.864588 
L 252.557796 -187.431873 
L 250.953973 -197.246718 
L 249.350149 -207.173925 
L 247.746325 -217.077644 
L 246.142502 -226.858974 
L 244.538678 -236.470871 
L 242.934854 -245.898132 
L 241.331031 -255.109991 
L 239.727207 -264.010863 
L 238.123383 -272.41977 
L 236.51956 -280.096758 
L 234.915736 -286.810639 
L 233.311912 -292.419243 
L 231.708089 -296.923778 
L 230.104265 -300.468413 
L 228.500441 -303.280227 
L 226.896618 -305.572013 
L 225.292794 -307.44861 
L 223.68897 -308.857057 
L 222.085147 -309.599543 
L 220.481323 -309.396184 
L 218.877499 -307.963241 
L 217.273676 -305.078447 
L 215.669852 -300.63156 
L 214.066028 -294.674842 
L 212.462205 -287.470432 
L 210.858381 -279.493024 
L 209.254558 -271.334155 
L 207.650734 -263.503373 
L 206.04691 -256.207801 
L 204.443087 -249.242214 
L 202.839263 -242.079384 
L 201.235439 -234.132753 
L 199.631616 -225.05327 
L 198.027792 -214.8995 
L 196.423968 -204.09845 
L 194.820145 -193.237299 
L 193.216321 -182.813799 
L 191.612497 -173.077141 
L 190.008674 -164.019628 
L 188.40485 -155.48553 
L 186.801026 -147.307456 
L 185.197203 -139.390846 
L 183.593379 -131.724079 
L 181.989555 -124.346666 
L 180.385732 -117.322662 
L 178.781908 -110.739264 
L 177.178084 -104.712555 
L 175.574261 -99.368387 
L 173.970437 -94.787557 
L 172.366613 -90.941361 
L 170.76279 -87.663778 
L 169.158966 -84.690813 
L 167.555142 -81.755494 
L 165.951319 -78.689596 
L 164.347495 -75.478265 
L 162.743671 -72.243904 
L 161.139848 -69.177284 
L 159.536024 -66.457813 
L 157.9322 -64.199525 
L 156.328377 -62.43563 
L 154.724553 -61.132461 
L 153.12073 -60.215181 
L 151.516906 -59.591627 
L 149.913082 -59.169203 
L 148.309259 -58.86592 
L 146.705435 -58.618192 
L 145.101611 -58.38596 
L 143.497788 -58.153236 
L 141.893964 -57.922276 
L 140.29014 -57.702801 
L 138.686317 -57.501351 
L 137.082493 -57.316315 
L 135.478669 -57.140476 
L 133.874846 -56.967776 
L 132.271022 -56.798707 
L 130.667198 -56.640652 
L 129.063375 -56.503724 
L 127.459551 -56.395524 
L 125.855727 -56.318067 
L 124.251904 -56.267976 
L 122.64808 -56.238843 
L 121.044256 -56.223999 
L 119.440433 -56.218551 
z
" id="mbdb0fd2331" style="stroke:#ffffff;stroke-opacity:0.3;stroke-width:0.16000000000000003;"/>
    </defs>
    <g clip-path="url(#pf8db53ce68)">
     <use style="fill:#a1a1a1;fill-opacity:0.3;stroke:#ffffff;stroke-opacity:0.3;stroke-width:0.16000000000000003;" x="0.0" xlink:href="#mbdb0fd2331" y="415.512"/>
    </g>
   </g>
   <g id="line2d_17">
    <path clip-path="url(#pf8db53ce68)" d="M 242.384155 359.295561 
L 250.564015 359.162462 
L 258.743876 358.903569 
L 263.651792 358.754563 
L 266.923736 358.301329 
L 270.19568 357.524592 
L 273.467624 356.549839 
L 275.103596 355.953147 
L 276.739568 355.223415 
L 278.37554 354.322403 
L 280.011513 353.237233 
L 281.647485 351.971159 
L 283.283457 350.515362 
L 284.919429 348.825911 
L 286.555401 346.829967 
L 288.191373 344.463552 
L 289.827345 341.716155 
L 293.099289 335.357195 
L 296.371233 328.32866 
L 298.007205 324.458959 
L 299.643177 320.112397 
L 301.279149 315.080841 
L 302.915121 309.224189 
L 304.551093 302.518494 
L 306.187065 295.057141 
L 309.45901 278.539238 
L 312.730954 260.69682 
L 316.002898 241.459382 
L 319.274842 220.58722 
L 327.454702 167.003807 
L 329.090674 157.541572 
L 330.726646 149.177185 
L 332.362618 142.11464 
L 333.99859 136.296483 
L 335.634562 131.380964 
L 338.906507 122.268991 
L 342.178451 112.191071 
L 343.814423 107.090727 
L 345.450395 102.544537 
L 347.086367 99.087966 
L 348.722339 97.227808 
L 350.358311 97.383266 
L 351.994283 99.811452 
L 353.630255 104.515043 
L 355.266227 111.184117 
L 356.902199 119.239897 
L 363.446087 153.992853 
L 376.533864 220.634939 
L 379.805808 239.471159 
L 386.349696 279.719126 
L 387.985668 288.776146 
L 389.62164 296.956504 
L 391.257612 304.189087 
L 392.893584 310.535415 
L 394.529556 316.153005 
L 396.165529 321.221693 
L 397.801501 325.865586 
L 399.437473 330.110228 
L 401.073445 333.899484 
L 402.709417 337.162967 
L 404.345389 339.891588 
L 405.981361 342.171473 
L 409.253305 345.986492 
L 412.525249 349.405824 
L 414.161221 350.894659 
L 415.797193 352.120316 
L 417.433165 353.037263 
L 419.069137 353.668779 
L 422.341081 354.448129 
L 425.613026 355.26547 
L 433.792886 357.901513 
L 437.06483 358.561406 
L 440.336774 358.972961 
L 443.608718 359.188989 
L 450.152606 359.295222 
L 450.152606 359.295222 
" style="fill:none;opacity:0.9;stroke:#484848;stroke-linecap:round;stroke-width:1.2000000000000002;"/>
   </g>
   <g id="line2d_18">
    <path clip-path="url(#pf8db53ce68)" d="M 205.229841 359.294581 
L 212.73056 359.172468 
L 218.731135 358.786118 
L 221.731422 358.475647 
L 224.731709 357.942726 
L 226.231853 357.52849 
L 227.731997 356.98867 
L 229.232141 356.315153 
L 230.732284 355.508617 
L 232.232428 354.571948 
L 233.732572 353.500231 
L 235.232715 352.27059 
L 236.732859 350.836151 
L 238.233003 349.128107 
L 239.733146 347.068162 
L 241.23329 344.590172 
L 242.733434 341.664688 
L 244.233577 338.315185 
L 247.233865 330.659351 
L 250.234152 322.26998 
L 253.23444 313.292868 
L 256.234727 303.491308 
L 259.235014 292.558914 
L 260.735158 286.457773 
L 262.235302 279.76562 
L 263.735446 272.392898 
L 266.735733 255.731213 
L 271.236164 228.257542 
L 274.236451 209.088669 
L 277.236739 188.143821 
L 283.237314 143.228544 
L 284.737457 133.696584 
L 286.237601 125.607823 
L 287.737745 118.990245 
L 289.237888 113.680346 
L 290.738032 109.461335 
L 292.238176 106.194853 
L 293.738319 103.87139 
L 295.238463 102.564992 
L 296.738607 102.338933 
L 298.23875 103.167894 
L 299.738894 104.916452 
L 301.239038 107.373768 
L 302.739182 110.319065 
L 305.739469 117.113183 
L 307.239613 120.931776 
L 308.739756 125.147089 
L 310.2399 129.870529 
L 311.740044 135.159501 
L 314.740331 147.169956 
L 319.240762 165.792749 
L 323.741193 183.32349 
L 325.241337 190.114189 
L 326.741481 197.96287 
L 328.241624 206.969916 
L 331.241912 227.711365 
L 335.742343 260.300912 
L 338.74263 279.953864 
L 340.242774 288.828564 
L 341.742918 296.982426 
L 343.243061 304.343965 
L 344.743205 310.855191 
L 346.243349 316.502737 
L 347.743492 321.340508 
L 349.243636 325.489593 
L 350.74378 329.113412 
L 353.744067 335.409198 
L 356.744355 340.958728 
L 358.244498 343.419944 
L 359.744642 345.591896 
L 361.244786 347.436722 
L 362.744929 348.963392 
L 364.245073 350.226799 
L 367.24536 352.280532 
L 370.245648 354.074999 
L 373.245935 355.654641 
L 376.246223 356.866514 
L 379.24651 357.694698 
L 383.746941 358.525613 
L 388.247372 359.057656 
L 392.747803 359.262416 
L 395.748091 359.29251 
L 395.748091 359.29251 
" style="fill:none;opacity:0.7;stroke:#5d5d5d;stroke-linecap:round;stroke-width:1.2000000000000002;"/>
   </g>
   <g id="line2d_19">
    <path clip-path="url(#pf8db53ce68)" d="M 204.895014 359.292746 
L 211.085322 359.160292 
L 214.180475 358.852752 
L 217.275629 358.200172 
L 220.370783 357.156875 
L 225.013514 355.362312 
L 226.561091 354.903449 
L 229.656245 354.326582 
L 232.751399 353.868493 
L 234.298976 353.442878 
L 235.846553 352.72864 
L 237.39413 351.606458 
L 238.941707 349.968637 
L 240.489284 347.738402 
L 242.036861 344.895766 
L 243.584438 341.497488 
L 246.679592 333.608981 
L 251.322323 321.503943 
L 254.417477 313.858236 
L 255.965054 309.71082 
L 257.512631 304.864336 
L 259.060208 298.877069 
L 260.607785 291.37802 
L 262.155362 282.209099 
L 263.702939 271.527442 
L 269.893246 225.112111 
L 271.440823 215.192606 
L 274.535977 197.364985 
L 280.726285 163.243474 
L 282.273862 155.884788 
L 283.821439 149.446805 
L 286.916593 138.359159 
L 290.011747 127.106215 
L 294.654478 109.009601 
L 296.202055 103.413852 
L 297.749632 98.265968 
L 299.297209 93.748622 
L 300.844786 90.215529 
L 302.392363 88.177356 
L 303.93994 88.160365 
L 305.487517 90.511661 
L 307.035094 95.260816 
L 308.582671 102.112677 
L 310.130248 110.56707 
L 313.225402 130.249345 
L 320.963286 182.369246 
L 324.05844 200.550782 
L 327.153594 216.532948 
L 331.796325 239.812801 
L 334.891479 256.851145 
L 341.081787 292.544777 
L 342.629364 300.479446 
L 344.176941 307.677891 
L 345.724518 314.159283 
L 347.272095 320.007737 
L 348.819672 325.297315 
L 350.367249 330.046945 
L 351.914826 334.229089 
L 353.462403 337.815967 
L 355.00998 340.824773 
L 356.557557 343.331279 
L 358.105134 345.447486 
L 359.652711 347.282201 
L 361.200288 348.909907 
L 362.747865 350.363319 
L 364.295442 351.648173 
L 365.843019 352.766299 
L 368.938173 354.570562 
L 372.033326 355.982959 
L 375.12848 357.11343 
L 378.223634 357.898871 
L 381.318788 358.284244 
L 392.151827 358.907677 
L 396.794558 359.213267 
L 401.437289 359.29111 
L 401.437289 359.29111 
" style="fill:none;opacity:0.5;stroke:#7b7b7b;stroke-linecap:round;stroke-width:1.2000000000000002;"/>
   </g>
   <g id="line2d_20">
    <path clip-path="url(#pf8db53ce68)" d="M 119.440433 359.293449 
L 125.855727 359.193933 
L 130.667198 358.871348 
L 138.686317 358.010649 
L 146.705435 356.893808 
L 149.913082 356.342797 
L 151.516906 355.920373 
L 153.12073 355.296819 
L 154.724553 354.379539 
L 156.328377 353.07637 
L 157.9322 351.312475 
L 159.536024 349.054187 
L 161.139848 346.334716 
L 164.347495 340.033735 
L 167.555142 333.756506 
L 170.76279 327.848222 
L 172.366613 324.570639 
L 173.970437 320.724443 
L 175.574261 316.143613 
L 177.178084 310.799445 
L 178.781908 304.772736 
L 181.989555 291.165334 
L 185.197203 276.121154 
L 188.40485 260.02647 
L 191.612497 242.434859 
L 193.216321 232.698201 
L 196.423968 211.41355 
L 199.631616 190.45873 
L 201.235439 181.379247 
L 202.839263 173.432616 
L 207.650734 152.008627 
L 214.066028 120.837158 
L 215.669852 114.88044 
L 217.273676 110.433553 
L 218.877499 107.548759 
L 220.481323 106.115816 
L 222.085147 105.912457 
L 223.68897 106.654943 
L 225.292794 108.06339 
L 226.896618 109.939987 
L 228.500441 112.231773 
L 230.104265 115.043587 
L 231.708089 118.588222 
L 233.311912 123.092757 
L 234.915736 128.701361 
L 236.51956 135.415242 
L 238.123383 143.09223 
L 241.331031 160.402009 
L 246.142502 188.653026 
L 255.765444 246.870367 
L 258.973091 264.177443 
L 262.180738 280.15474 
L 265.388385 294.961839 
L 268.596033 308.266184 
L 270.199856 314.151538 
L 271.80368 319.420028 
L 273.407504 324.018174 
L 275.011327 327.927488 
L 276.615151 331.178028 
L 278.218975 333.859406 
L 279.822798 336.119466 
L 286.238093 344.284275 
L 289.44574 348.678716 
L 291.049564 350.705986 
L 292.653388 352.477701 
L 294.257211 353.930557 
L 295.861035 355.044855 
L 297.464859 355.840069 
L 299.068682 356.367081 
L 302.27633 356.917587 
L 307.087801 357.56434 
L 315.106919 358.9732 
L 318.314566 359.204248 
L 323.126037 359.291483 
L 323.126037 359.291483 
" style="fill:none;opacity:0.3;stroke:#a1a1a1;stroke-linecap:round;stroke-width:1.2000000000000002;"/>
   </g>
   <g id="line2d_21">
    <path clip-path="url(#pf8db53ce68)" d="M 343.027354 359.301688 
L 343.027354 16.345312 
" style="fill:none;stroke:#222222;stroke-linecap:round;stroke-width:2.0;"/>
   </g>
   <g id="patch_3">
    <path d="M 60.42125 359.301688 
L 475.251063 359.301688 
" style="fill:none;stroke:#8b909e;stroke-linecap:square;stroke-linejoin:miter;stroke-width:1.1199999999999999;"/>
   </g>
   <g id="patch_4">
    <path d="M 60.42125 359.301688 
L 60.42125 16.345312 
" style="fill:none;stroke:#8b909e;stroke-linecap:square;stroke-linejoin:miter;stroke-width:1.1199999999999999;"/>
   </g>
   <g id="legend_1">
    <g id="line2d_22">
     <path d="M 78.42125 41.660937 
L 118.42125 41.660937 
" style="fill:none;stroke:#222222;stroke-linecap:round;stroke-width:2.0;"/>
    </g>
    <g id="line2d_23"/>
    <g id="text_13">
     <!-- a/2 -->
     <defs>
      <path d="M 0 -1.21875 
L 20.75 72.796875 
L 27.78125 72.796875 
L 7.078125 -1.21875 
z
" id="ArialMT-2f"/>
     </defs>
     <g style="fill:#303030;" transform="translate(134.42125 48.6609375)scale(0.2 -0.2)">
      <use xlink:href="#ArialMT-61"/>
      <use x="55.615234375" xlink:href="#ArialMT-2f"/>
      <use x="83.3984375" xlink:href="#ArialMT-32"/>
     </g>
    </g>
    <g id="patch_5">
     <path d="M 78.42125 76.951562 
L 118.42125 76.951562 
L 118.42125 62.951562 
L 78.42125 62.951562 
z
" style="fill:#484848;opacity:0.9;stroke:#ffffff;stroke-linejoin:miter;stroke-width:0.16000000000000003;"/>
    </g>
    <g id="text_14">
     <!-- .15 -->
     <g style="fill:#303030;" transform="translate(134.42125 76.9515625)scale(0.2 -0.2)">
      <use xlink:href="#ArialMT-2e"/>
      <use x="27.783203125" xlink:href="#ArialMT-31"/>
      <use x="83.3984375" xlink:href="#ArialMT-35"/>
     </g>
    </g>
    <g id="patch_6">
     <path d="M 78.42125 105.242187 
L 118.42125 105.242187 
L 118.42125 91.242187 
L 78.42125 91.242187 
z
" style="fill:#5d5d5d;opacity:0.7;stroke:#ffffff;stroke-linejoin:miter;stroke-width:0.16000000000000003;"/>
    </g>
    <g id="text_15">
     <!-- .3 -->
     <g style="fill:#303030;" transform="translate(134.42125 105.2421875)scale(0.2 -0.2)">
      <use xlink:href="#ArialMT-2e"/>
      <use x="27.783203125" xlink:href="#ArialMT-33"/>
     </g>
    </g>
    <g id="patch_7">
     <path d="M 78.42125 133.532812 
L 118.42125 133.532812 
L 118.42125 119.532812 
L 78.42125 119.532812 
z
" style="fill:#7b7b7b;opacity:0.5;stroke:#ffffff;stroke-linejoin:miter;stroke-width:0.16000000000000003;"/>
    </g>
    <g id="text_16">
     <!-- .7 -->
     <defs>
      <path d="M 4.734375 62.203125 
L 4.734375 70.65625 
L 51.078125 70.65625 
L 51.078125 63.8125 
Q 44.234375 56.546875 37.515625 44.484375 
Q 30.8125 32.421875 27.15625 19.671875 
Q 24.515625 10.6875 23.78125 0 
L 14.75 0 
Q 14.890625 8.453125 18.0625 20.40625 
Q 21.234375 32.375 27.171875 43.484375 
Q 33.109375 54.59375 39.796875 62.203125 
z
" id="ArialMT-37"/>
     </defs>
     <g style="fill:#303030;" transform="translate(134.42125 133.5328125)scale(0.2 -0.2)">
      <use xlink:href="#ArialMT-2e"/>
      <use x="27.783203125" xlink:href="#ArialMT-37"/>
     </g>
    </g>
    <g id="patch_8">
     <path d="M 78.42125 161.823437 
L 118.42125 161.823437 
L 118.42125 147.823437 
L 78.42125 147.823437 
z
" style="fill:#a1a1a1;opacity:0.3;stroke:#ffffff;stroke-linejoin:miter;stroke-width:0.16000000000000003;"/>
    </g>
    <g id="text_17">
     <!-- .85 -->
     <defs>
      <path d="M 17.671875 38.8125 
Q 12.203125 40.828125 9.5625 44.53125 
Q 6.9375 48.25 6.9375 53.421875 
Q 6.9375 61.234375 12.546875 66.546875 
Q 18.171875 71.875 27.484375 71.875 
Q 36.859375 71.875 42.578125 66.421875 
Q 48.296875 60.984375 48.296875 53.171875 
Q 48.296875 48.1875 45.671875 44.5 
Q 43.0625 40.828125 37.75 38.8125 
Q 44.34375 36.671875 47.78125 31.875 
Q 51.21875 27.09375 51.21875 20.453125 
Q 51.21875 11.28125 44.71875 5.03125 
Q 38.234375 -1.21875 27.640625 -1.21875 
Q 17.046875 -1.21875 10.546875 5.046875 
Q 4.046875 11.328125 4.046875 20.703125 
Q 4.046875 27.6875 7.59375 32.390625 
Q 11.140625 37.109375 17.671875 38.8125 
M 15.921875 53.71875 
Q 15.921875 48.640625 19.1875 45.40625 
Q 22.46875 42.1875 27.6875 42.1875 
Q 32.765625 42.1875 36.015625 45.375 
Q 39.265625 48.578125 39.265625 53.21875 
Q 39.265625 58.0625 35.90625 61.359375 
Q 32.5625 64.65625 27.59375 64.65625 
Q 22.5625 64.65625 19.234375 61.421875 
Q 15.921875 58.203125 15.921875 53.71875 
M 13.09375 20.65625 
Q 13.09375 16.890625 14.875 13.375 
Q 16.65625 9.859375 20.171875 7.921875 
Q 23.6875 6 27.734375 6 
Q 34.03125 6 38.125 10.046875 
Q 42.234375 14.109375 42.234375 20.359375 
Q 42.234375 26.703125 38.015625 30.859375 
Q 33.796875 35.015625 27.4375 35.015625 
Q 21.234375 35.015625 17.15625 30.90625 
Q 13.09375 26.8125 13.09375 20.65625 
" id="ArialMT-38"/>
     </defs>
     <g style="fill:#303030;" transform="translate(134.42125 161.8234375)scale(0.2 -0.2)">
      <use xlink:href="#ArialMT-2e"/>
      <use x="27.783203125" xlink:href="#ArialMT-38"/>
      <use x="83.3984375" xlink:href="#ArialMT-35"/>
     </g>
    </g>
   </g>
  </g>
 </g>
 <defs>
  <clipPath id="pf8db53ce68">
   <rect height="342.956375" width="414.8298125" x="60.42125" y="16.3453125"/>
  </clipPath>
 </defs>
</svg>
