<?xml version="1.0" encoding="utf-8" standalone="no"?>
<!DOCTYPE svg PUBLIC "-//W3C//DTD SVG 1.1//EN"
  "http://www.w3.org/Graphics/SVG/1.1/DTD/svg11.dtd">
<!-- Created with matplotlib (http://matplotlib.org/) -->
<svg height="415pt" version="1.1" viewBox="0 0 622 415" width="622pt" xmlns="http://www.w3.org/2000/svg" xmlns:xlink="http://www.w3.org/1999/xlink">
 <defs>
  <style type="text/css">
*{stroke-linecap:butt;stroke-linejoin:round;stroke-miterlimit:100000;}
  </style>
 </defs>
 <g id="figure_1">
  <g id="patch_1">
   <path d="M -0 415.512 
L 622.199225 415.512 
L 622.199225 0 
L -0 0 
z
" style="fill:#ffffff;"/>
  </g>
  <g id="axes_1">
   <g id="patch_2">
    <path d="M 60.42125 358.77575 
L 494.712 358.77575 
L 494.712 7.2 
L 60.42125 7.2 
z
" style="fill:#ffffff;"/>
   </g>
   <g id="matplotlib.axis_1">
    <g id="xtick_1">
     <g id="line2d_1">
      <defs>
       <path d="M 0 0 
L 0 0 
" id="mf481a149d4" style="stroke:#303030;stroke-width:0.8;"/>
      </defs>
      <g>
       <use style="fill:#303030;stroke:#303030;stroke-width:0.8;" x="125.730608836" xlink:href="#mf481a149d4" y="358.77575"/>
      </g>
     </g>
     <g id="text_1">
      <!-- 0.49 -->
      <defs>
       <path d="M 4.15625 35.296875 
Q 4.15625 48 6.765625 55.734375 
Q 9.375 63.484375 14.515625 67.671875 
Q 19.671875 71.875 27.484375 71.875 
Q 33.25 71.875 37.59375 69.546875 
Q 41.9375 67.234375 44.765625 62.859375 
Q 47.609375 58.5 49.21875 52.21875 
Q 50.828125 45.953125 50.828125 35.296875 
Q 50.828125 22.703125 48.234375 14.96875 
Q 45.65625 7.234375 40.5 3 
Q 35.359375 -1.21875 27.484375 -1.21875 
Q 17.140625 -1.21875 11.234375 6.203125 
Q 4.15625 15.140625 4.15625 35.296875 
M 13.1875 35.296875 
Q 13.1875 17.671875 17.3125 11.828125 
Q 21.4375 6 27.484375 6 
Q 33.546875 6 37.671875 11.859375 
Q 41.796875 17.71875 41.796875 35.296875 
Q 41.796875 52.984375 37.671875 58.78125 
Q 33.546875 64.59375 27.390625 64.59375 
Q 21.34375 64.59375 17.71875 59.46875 
Q 13.1875 52.9375 13.1875 35.296875 
" id="ArialMT-30"/>
       <path d="M 5.46875 16.546875 
L 13.921875 17.328125 
Q 14.984375 11.375 18.015625 8.6875 
Q 21.046875 6 25.78125 6 
Q 29.828125 6 32.875 7.859375 
Q 35.9375 9.71875 37.890625 12.8125 
Q 39.84375 15.921875 41.15625 21.1875 
Q 42.484375 26.46875 42.484375 31.9375 
Q 42.484375 32.515625 42.4375 33.6875 
Q 39.796875 29.5 35.234375 26.875 
Q 30.671875 24.265625 25.34375 24.265625 
Q 16.453125 24.265625 10.296875 30.703125 
Q 4.15625 37.15625 4.15625 47.703125 
Q 4.15625 58.59375 10.578125 65.234375 
Q 17 71.875 26.65625 71.875 
Q 33.640625 71.875 39.421875 68.109375 
Q 45.21875 64.359375 48.21875 57.390625 
Q 51.21875 50.4375 51.21875 37.25 
Q 51.21875 23.53125 48.234375 15.40625 
Q 45.265625 7.28125 39.375 3.03125 
Q 33.5 -1.21875 25.59375 -1.21875 
Q 17.1875 -1.21875 11.859375 3.4375 
Q 6.546875 8.109375 5.46875 16.546875 
M 41.453125 48.140625 
Q 41.453125 55.71875 37.421875 60.15625 
Q 33.40625 64.59375 27.734375 64.59375 
Q 21.875 64.59375 17.53125 59.8125 
Q 13.1875 55.03125 13.1875 47.40625 
Q 13.1875 40.578125 17.3125 36.296875 
Q 21.4375 32.03125 27.484375 32.03125 
Q 33.59375 32.03125 37.515625 36.296875 
Q 41.453125 40.578125 41.453125 48.140625 
" id="ArialMT-39"/>
       <path d="M 32.328125 0 
L 32.328125 17.140625 
L 1.265625 17.140625 
L 1.265625 25.203125 
L 33.9375 71.578125 
L 41.109375 71.578125 
L 41.109375 25.203125 
L 50.78125 25.203125 
L 50.78125 17.140625 
L 41.109375 17.140625 
L 41.109375 0 
z
M 32.328125 25.203125 
L 32.328125 57.46875 
L 9.90625 25.203125 
z
" id="ArialMT-34"/>
       <path d="M 9.078125 0 
L 9.078125 10.015625 
L 19.09375 10.015625 
L 19.09375 0 
z
" id="ArialMT-2e"/>
      </defs>
      <g style="fill:#303030;" transform="translate(106.269671336 378.691375)scale(0.2 -0.2)">
       <use xlink:href="#ArialMT-30"/>
       <use x="55.615234375" xlink:href="#ArialMT-2e"/>
       <use x="83.3984375" xlink:href="#ArialMT-34"/>
       <use x="139.013671875" xlink:href="#ArialMT-39"/>
      </g>
     </g>
    </g>
    <g id="xtick_2">
     <g id="line2d_2">
      <g>
       <use style="fill:#303030;stroke:#303030;stroke-width:0.8;" x="231.719667355" xlink:href="#mf481a149d4" y="358.77575"/>
      </g>
     </g>
     <g id="text_2">
      <!-- 0.52 -->
      <defs>
       <path d="M 4.15625 18.75 
L 13.375 19.53125 
Q 14.40625 12.796875 18.140625 9.390625 
Q 21.875 6 27.15625 6 
Q 33.5 6 37.890625 10.78125 
Q 42.28125 15.578125 42.28125 23.484375 
Q 42.28125 31 38.0625 35.34375 
Q 33.84375 39.703125 27 39.703125 
Q 22.75 39.703125 19.328125 37.765625 
Q 15.921875 35.84375 13.96875 32.765625 
L 5.71875 33.84375 
L 12.640625 70.609375 
L 48.25 70.609375 
L 48.25 62.203125 
L 19.671875 62.203125 
L 15.828125 42.96875 
Q 22.265625 47.46875 29.34375 47.46875 
Q 38.71875 47.46875 45.15625 40.96875 
Q 51.609375 34.46875 51.609375 24.265625 
Q 51.609375 14.546875 45.953125 7.46875 
Q 39.0625 -1.21875 27.15625 -1.21875 
Q 17.390625 -1.21875 11.203125 4.25 
Q 5.03125 9.71875 4.15625 18.75 
" id="ArialMT-35"/>
       <path d="M 50.34375 8.453125 
L 50.34375 0 
L 3.03125 0 
Q 2.9375 3.171875 4.046875 6.109375 
Q 5.859375 10.9375 9.828125 15.625 
Q 13.8125 20.3125 21.34375 26.46875 
Q 33.015625 36.03125 37.109375 41.625 
Q 41.21875 47.21875 41.21875 52.203125 
Q 41.21875 57.421875 37.46875 61 
Q 33.734375 64.59375 27.734375 64.59375 
Q 21.390625 64.59375 17.578125 60.78125 
Q 13.765625 56.984375 13.71875 50.25 
L 4.6875 51.171875 
Q 5.609375 61.28125 11.65625 66.578125 
Q 17.71875 71.875 27.9375 71.875 
Q 38.234375 71.875 44.234375 66.15625 
Q 50.25 60.453125 50.25 52 
Q 50.25 47.703125 48.484375 43.546875 
Q 46.734375 39.40625 42.65625 34.8125 
Q 38.578125 30.21875 29.109375 22.21875 
Q 21.1875 15.578125 18.9375 13.203125 
Q 16.703125 10.84375 15.234375 8.453125 
z
" id="ArialMT-32"/>
      </defs>
      <g style="fill:#303030;" transform="translate(212.258729855 378.691375)scale(0.2 -0.2)">
       <use xlink:href="#ArialMT-30"/>
       <use x="55.615234375" xlink:href="#ArialMT-2e"/>
       <use x="83.3984375" xlink:href="#ArialMT-35"/>
       <use x="139.013671875" xlink:href="#ArialMT-32"/>
      </g>
     </g>
    </g>
    <g id="xtick_3">
     <g id="line2d_3">
      <g>
       <use style="fill:#303030;stroke:#303030;stroke-width:0.8;" x="337.708725873" xlink:href="#mf481a149d4" y="358.77575"/>
      </g>
     </g>
     <g id="text_3">
      <!-- 0.55 -->
      <g style="fill:#303030;" transform="translate(318.247788373 378.691375)scale(0.2 -0.2)">
       <use xlink:href="#ArialMT-30"/>
       <use x="55.615234375" xlink:href="#ArialMT-2e"/>
       <use x="83.3984375" xlink:href="#ArialMT-35"/>
       <use x="139.013671875" xlink:href="#ArialMT-35"/>
      </g>
     </g>
    </g>
    <g id="xtick_4">
     <g id="line2d_4">
      <g>
       <use style="fill:#303030;stroke:#303030;stroke-width:0.8;" x="443.697784391" xlink:href="#mf481a149d4" y="358.77575"/>
      </g>
     </g>
     <g id="text_4">
      <!-- 0.58 -->
      <defs>
       <path d="M 17.671875 38.8125 
Q 12.203125 40.828125 9.5625 44.53125 
Q 6.9375 48.25 6.9375 53.421875 
Q 6.9375 61.234375 12.546875 66.546875 
Q 18.171875 71.875 27.484375 71.875 
Q 36.859375 71.875 42.578125 66.421875 
Q 48.296875 60.984375 48.296875 53.171875 
Q 48.296875 48.1875 45.671875 44.5 
Q 43.0625 40.828125 37.75 38.8125 
Q 44.34375 36.671875 47.78125 31.875 
Q 51.21875 27.09375 51.21875 20.453125 
Q 51.21875 11.28125 44.71875 5.03125 
Q 38.234375 -1.21875 27.640625 -1.21875 
Q 17.046875 -1.21875 10.546875 5.046875 
Q 4.046875 11.328125 4.046875 20.703125 
Q 4.046875 27.6875 7.59375 32.390625 
Q 11.140625 37.109375 17.671875 38.8125 
M 15.921875 53.71875 
Q 15.921875 48.640625 19.1875 45.40625 
Q 22.46875 42.1875 27.6875 42.1875 
Q 32.765625 42.1875 36.015625 45.375 
Q 39.265625 48.578125 39.265625 53.21875 
Q 39.265625 58.0625 35.90625 61.359375 
Q 32.5625 64.65625 27.59375 64.65625 
Q 22.5625 64.65625 19.234375 61.421875 
Q 15.921875 58.203125 15.921875 53.71875 
M 13.09375 20.65625 
Q 13.09375 16.890625 14.875 13.375 
Q 16.65625 9.859375 20.171875 7.921875 
Q 23.6875 6 27.734375 6 
Q 34.03125 6 38.125 10.046875 
Q 42.234375 14.109375 42.234375 20.359375 
Q 42.234375 26.703125 38.015625 30.859375 
Q 33.796875 35.015625 27.4375 35.015625 
Q 21.234375 35.015625 17.15625 30.90625 
Q 13.09375 26.8125 13.09375 20.65625 
" id="ArialMT-38"/>
      </defs>
      <g style="fill:#303030;" transform="translate(424.236846891 378.691375)scale(0.2 -0.2)">
       <use xlink:href="#ArialMT-30"/>
       <use x="55.615234375" xlink:href="#ArialMT-2e"/>
       <use x="83.3984375" xlink:href="#ArialMT-35"/>
       <use x="139.013671875" xlink:href="#ArialMT-38"/>
      </g>
     </g>
    </g>
    <g id="text_5">
     <!-- Starting Point (z) -->
     <defs>
      <path d="M 40.4375 6.390625 
Q 35.546875 2.25 31.03125 0.53125 
Q 26.515625 -1.171875 21.34375 -1.171875 
Q 12.796875 -1.171875 8.203125 3 
Q 3.609375 7.171875 3.609375 13.671875 
Q 3.609375 17.484375 5.34375 20.625 
Q 7.078125 23.78125 9.890625 25.6875 
Q 12.703125 27.59375 16.21875 28.5625 
Q 18.796875 29.25 24.03125 29.890625 
Q 34.671875 31.15625 39.703125 32.90625 
Q 39.75 34.71875 39.75 35.203125 
Q 39.75 40.578125 37.25 42.78125 
Q 33.890625 45.75 27.25 45.75 
Q 21.046875 45.75 18.09375 43.578125 
Q 15.140625 41.40625 13.71875 35.890625 
L 5.125 37.0625 
Q 6.296875 42.578125 8.984375 45.96875 
Q 11.671875 49.359375 16.75 51.1875 
Q 21.828125 53.03125 28.515625 53.03125 
Q 35.15625 53.03125 39.296875 51.46875 
Q 43.453125 49.90625 45.40625 47.53125 
Q 47.359375 45.171875 48.140625 41.546875 
Q 48.578125 39.3125 48.578125 33.453125 
L 48.578125 21.734375 
Q 48.578125 9.46875 49.140625 6.21875 
Q 49.703125 2.984375 51.375 0 
L 42.1875 0 
Q 40.828125 2.734375 40.4375 6.390625 
M 39.703125 26.03125 
Q 34.90625 24.078125 25.34375 22.703125 
Q 19.921875 21.921875 17.671875 20.9375 
Q 15.4375 19.96875 14.203125 18.09375 
Q 12.984375 16.21875 12.984375 13.921875 
Q 12.984375 10.40625 15.640625 8.0625 
Q 18.3125 5.71875 23.4375 5.71875 
Q 28.515625 5.71875 32.46875 7.9375 
Q 36.421875 10.15625 38.28125 14.015625 
Q 39.703125 17 39.703125 22.796875 
z
" id="ArialMT-61"/>
      <path d="M 12.359375 -21.046875 
L 6.0625 -21.046875 
Q 20.65625 2.390625 20.65625 25.875 
Q 20.65625 35.0625 18.5625 44.09375 
Q 16.890625 51.421875 13.921875 58.15625 
Q 12.015625 62.546875 6.0625 72.796875 
L 12.359375 72.796875 
Q 21.53125 60.546875 25.921875 48.1875 
Q 29.6875 37.546875 29.6875 25.921875 
Q 29.6875 12.75 24.625 0.4375 
Q 19.578125 -11.859375 12.359375 -21.046875 
" id="ArialMT-29"/>
      <path id="ArialMT-20"/>
      <path d="M 6.640625 61.46875 
L 6.640625 71.578125 
L 15.4375 71.578125 
L 15.4375 61.46875 
z
M 6.640625 0 
L 6.640625 51.859375 
L 15.4375 51.859375 
L 15.4375 0 
z
" id="ArialMT-69"/>
      <path d="M 6.59375 0 
L 6.59375 51.859375 
L 14.5 51.859375 
L 14.5 44.484375 
Q 20.21875 53.03125 31 53.03125 
Q 35.6875 53.03125 39.625 51.34375 
Q 43.5625 49.65625 45.515625 46.921875 
Q 47.46875 44.1875 48.25 40.4375 
Q 48.734375 37.984375 48.734375 31.890625 
L 48.734375 0 
L 39.9375 0 
L 39.9375 31.546875 
Q 39.9375 36.921875 38.90625 39.578125 
Q 37.890625 42.234375 35.28125 43.8125 
Q 32.671875 45.40625 29.15625 45.40625 
Q 23.53125 45.40625 19.453125 41.84375 
Q 15.375 38.28125 15.375 28.328125 
L 15.375 0 
z
" id="ArialMT-6e"/>
      <path d="M 6.5 0 
L 6.5 51.859375 
L 14.40625 51.859375 
L 14.40625 44 
Q 17.4375 49.515625 20 51.265625 
Q 22.5625 53.03125 25.640625 53.03125 
Q 30.078125 53.03125 34.671875 50.203125 
L 31.640625 42.046875 
Q 28.421875 43.953125 25.203125 43.953125 
Q 22.3125 43.953125 20.015625 42.21875 
Q 17.71875 40.484375 16.75 37.40625 
Q 15.28125 32.71875 15.28125 27.15625 
L 15.28125 0 
z
" id="ArialMT-72"/>
      <path d="M 1.953125 0 
L 1.953125 7.125 
L 34.96875 45.015625 
Q 29.34375 44.734375 25.046875 44.734375 
L 3.90625 44.734375 
L 3.90625 51.859375 
L 46.296875 51.859375 
L 46.296875 46.046875 
L 18.21875 13.140625 
L 12.796875 7.125 
Q 18.703125 7.5625 23.875 7.5625 
L 47.859375 7.5625 
L 47.859375 0 
z
" id="ArialMT-7a"/>
      <path d="M 25.78125 7.859375 
L 27.046875 0.09375 
Q 23.34375 -0.6875 20.40625 -0.6875 
Q 15.625 -0.6875 12.984375 0.828125 
Q 10.359375 2.34375 9.28125 4.8125 
Q 8.203125 7.28125 8.203125 15.1875 
L 8.203125 45.015625 
L 1.765625 45.015625 
L 1.765625 51.859375 
L 8.203125 51.859375 
L 8.203125 64.703125 
L 16.9375 69.96875 
L 16.9375 51.859375 
L 25.78125 51.859375 
L 25.78125 45.015625 
L 16.9375 45.015625 
L 16.9375 14.703125 
Q 16.9375 10.9375 17.40625 9.859375 
Q 17.875 8.796875 18.921875 8.15625 
Q 19.96875 7.515625 21.921875 7.515625 
Q 23.390625 7.515625 25.78125 7.859375 
" id="ArialMT-74"/>
      <path d="M 23.390625 -21.046875 
Q 16.109375 -11.859375 11.078125 0.4375 
Q 6.0625 12.75 6.0625 25.921875 
Q 6.0625 37.546875 9.8125 48.1875 
Q 14.203125 60.546875 23.390625 72.796875 
L 29.6875 72.796875 
Q 23.78125 62.640625 21.875 58.296875 
Q 18.890625 51.5625 17.1875 44.234375 
Q 15.09375 35.109375 15.09375 25.875 
Q 15.09375 2.390625 29.6875 -21.046875 
z
" id="ArialMT-28"/>
      <path d="M 3.328125 25.921875 
Q 3.328125 40.328125 11.328125 47.265625 
Q 18.015625 53.03125 27.640625 53.03125 
Q 38.328125 53.03125 45.109375 46.015625 
Q 51.90625 39.015625 51.90625 26.65625 
Q 51.90625 16.65625 48.90625 10.90625 
Q 45.90625 5.171875 40.15625 2 
Q 34.421875 -1.171875 27.640625 -1.171875 
Q 16.75 -1.171875 10.03125 5.8125 
Q 3.328125 12.796875 3.328125 25.921875 
M 12.359375 25.921875 
Q 12.359375 15.96875 16.703125 11.015625 
Q 21.046875 6.0625 27.640625 6.0625 
Q 34.1875 6.0625 38.53125 11.03125 
Q 42.875 16.015625 42.875 26.21875 
Q 42.875 35.84375 38.5 40.796875 
Q 34.125 45.75 27.640625 45.75 
Q 21.046875 45.75 16.703125 40.8125 
Q 12.359375 35.890625 12.359375 25.921875 
" id="ArialMT-6f"/>
      <path d="M 7.71875 0 
L 7.71875 71.578125 
L 34.71875 71.578125 
Q 41.84375 71.578125 45.609375 70.90625 
Q 50.875 70.015625 54.4375 67.546875 
Q 58.015625 65.09375 60.1875 60.640625 
Q 62.359375 56.203125 62.359375 50.875 
Q 62.359375 41.75 56.546875 35.421875 
Q 50.734375 29.109375 35.546875 29.109375 
L 17.1875 29.109375 
L 17.1875 0 
z
M 17.1875 37.546875 
L 35.6875 37.546875 
Q 44.875 37.546875 48.734375 40.96875 
Q 52.59375 44.390625 52.59375 50.59375 
Q 52.59375 55.078125 50.3125 58.265625 
Q 48.046875 61.46875 44.34375 62.5 
Q 41.9375 63.140625 35.5 63.140625 
L 17.1875 63.140625 
z
" id="ArialMT-50"/>
      <path d="M 4.5 23 
L 13.421875 23.78125 
Q 14.0625 18.40625 16.375 14.96875 
Q 18.703125 11.53125 23.578125 9.40625 
Q 28.46875 7.28125 34.578125 7.28125 
Q 39.984375 7.28125 44.140625 8.890625 
Q 48.296875 10.5 50.3125 13.296875 
Q 52.34375 16.109375 52.34375 19.4375 
Q 52.34375 22.796875 50.390625 25.3125 
Q 48.4375 27.828125 43.953125 29.546875 
Q 41.0625 30.671875 31.203125 33.03125 
Q 21.34375 35.40625 17.390625 37.5 
Q 12.25 40.1875 9.734375 44.15625 
Q 7.234375 48.140625 7.234375 53.078125 
Q 7.234375 58.5 10.296875 63.203125 
Q 13.375 67.921875 19.28125 70.359375 
Q 25.203125 72.796875 32.421875 72.796875 
Q 40.375 72.796875 46.453125 70.234375 
Q 52.546875 67.671875 55.8125 62.6875 
Q 59.078125 57.71875 59.328125 51.421875 
L 50.25 50.734375 
Q 49.515625 57.515625 45.28125 60.984375 
Q 41.0625 64.453125 32.8125 64.453125 
Q 24.21875 64.453125 20.28125 61.296875 
Q 16.359375 58.15625 16.359375 53.71875 
Q 16.359375 49.859375 19.140625 47.359375 
Q 21.875 44.875 33.421875 42.265625 
Q 44.96875 39.65625 49.265625 37.703125 
Q 55.515625 34.8125 58.484375 30.390625 
Q 61.46875 25.984375 61.46875 20.21875 
Q 61.46875 14.5 58.203125 9.4375 
Q 54.9375 4.390625 48.796875 1.578125 
Q 42.671875 -1.21875 35.015625 -1.21875 
Q 25.296875 -1.21875 18.71875 1.609375 
Q 12.15625 4.4375 8.421875 10.125 
Q 4.6875 15.828125 4.5 23 
" id="ArialMT-53"/>
      <path d="M 4.984375 -4.296875 
L 13.53125 -5.5625 
Q 14.0625 -9.515625 16.5 -11.328125 
Q 19.78125 -13.765625 25.4375 -13.765625 
Q 31.546875 -13.765625 34.859375 -11.328125 
Q 38.1875 -8.890625 39.359375 -4.5 
Q 40.046875 -1.8125 39.984375 6.78125 
Q 34.234375 0 25.640625 0 
Q 14.9375 0 9.078125 7.71875 
Q 3.21875 15.4375 3.21875 26.21875 
Q 3.21875 33.640625 5.90625 39.90625 
Q 8.59375 46.1875 13.6875 49.609375 
Q 18.796875 53.03125 25.6875 53.03125 
Q 34.859375 53.03125 40.828125 45.609375 
L 40.828125 51.859375 
L 48.921875 51.859375 
L 48.921875 7.03125 
Q 48.921875 -5.078125 46.453125 -10.125 
Q 44 -15.1875 38.640625 -18.109375 
Q 33.296875 -21.046875 25.484375 -21.046875 
Q 16.21875 -21.046875 10.5 -16.875 
Q 4.78125 -12.703125 4.984375 -4.296875 
M 12.25 26.859375 
Q 12.25 16.65625 16.296875 11.96875 
Q 20.359375 7.28125 26.46875 7.28125 
Q 32.515625 7.28125 36.609375 11.9375 
Q 40.71875 16.609375 40.71875 26.5625 
Q 40.71875 36.078125 36.5 40.90625 
Q 32.28125 45.75 26.3125 45.75 
Q 20.453125 45.75 16.34375 40.984375 
Q 12.25 36.234375 12.25 26.859375 
" id="ArialMT-67"/>
     </defs>
     <g style="fill:#303030;" transform="translate(195.651 403.6816875)scale(0.22 -0.22)">
      <use xlink:href="#ArialMT-53"/>
      <use x="66.69921875" xlink:href="#ArialMT-74"/>
      <use x="94.482421875" xlink:href="#ArialMT-61"/>
      <use x="150.09765625" xlink:href="#ArialMT-72"/>
      <use x="183.3984375" xlink:href="#ArialMT-74"/>
      <use x="211.181640625" xlink:href="#ArialMT-69"/>
      <use x="233.3984375" xlink:href="#ArialMT-6e"/>
      <use x="289.013671875" xlink:href="#ArialMT-67"/>
      <use x="344.62890625" xlink:href="#ArialMT-20"/>
      <use x="372.412109375" xlink:href="#ArialMT-50"/>
      <use x="439.111328125" xlink:href="#ArialMT-6f"/>
      <use x="494.7265625" xlink:href="#ArialMT-69"/>
      <use x="516.943359375" xlink:href="#ArialMT-6e"/>
      <use x="572.55859375" xlink:href="#ArialMT-74"/>
      <use x="600.341796875" xlink:href="#ArialMT-20"/>
      <use x="628.125" xlink:href="#ArialMT-28"/>
      <use x="661.42578125" xlink:href="#ArialMT-7a"/>
      <use x="711.42578125" xlink:href="#ArialMT-29"/>
     </g>
    </g>
   </g>
   <g id="matplotlib.axis_2">
    <g id="ytick_1">
     <g id="line2d_5">
      <path clip-path="url(#p08db483650)" d="M 60.42125 358.77575 
L 494.712 358.77575 
" style="fill:none;stroke:#e5e5f7;stroke-linecap:round;stroke-width:1.1199999999999999;"/>
     </g>
     <g id="line2d_6">
      <g>
       <use style="fill:#303030;stroke:#303030;stroke-width:0.8;" x="60.42125" xlink:href="#mf481a149d4" y="358.77575"/>
      </g>
     </g>
     <g id="text_6">
      <!-- 0 -->
      <g style="fill:#303030;" transform="translate(43.699375 363.9460625)scale(0.2 -0.2)">
       <use xlink:href="#ArialMT-30"/>
      </g>
     </g>
    </g>
    <g id="ytick_2">
     <g id="line2d_7">
      <path clip-path="url(#p08db483650)" d="M 60.42125 280.647806 
L 494.712 280.647806 
" style="fill:none;stroke:#e5e5f7;stroke-linecap:round;stroke-width:1.1199999999999999;"/>
     </g>
     <g id="line2d_8">
      <g>
       <use style="fill:#303030;stroke:#303030;stroke-width:0.8;" x="60.42125" xlink:href="#mf481a149d4" y="280.647805556"/>
      </g>
     </g>
     <g id="text_7">
      <!-- 10 -->
      <defs>
       <path d="M 37.25 0 
L 28.46875 0 
L 28.46875 56 
Q 25.296875 52.984375 20.140625 49.953125 
Q 14.984375 46.921875 10.890625 45.40625 
L 10.890625 53.90625 
Q 18.265625 57.375 23.78125 62.296875 
Q 29.296875 67.234375 31.59375 71.875 
L 37.25 71.875 
z
" id="ArialMT-31"/>
      </defs>
      <g style="fill:#303030;" transform="translate(32.5775 285.818118056)scale(0.2 -0.2)">
       <use xlink:href="#ArialMT-31"/>
       <use x="55.615234375" xlink:href="#ArialMT-30"/>
      </g>
     </g>
    </g>
    <g id="ytick_3">
     <g id="line2d_9">
      <path clip-path="url(#p08db483650)" d="M 60.42125 202.519861 
L 494.712 202.519861 
" style="fill:none;stroke:#e5e5f7;stroke-linecap:round;stroke-width:1.1199999999999999;"/>
     </g>
     <g id="line2d_10">
      <g>
       <use style="fill:#303030;stroke:#303030;stroke-width:0.8;" x="60.42125" xlink:href="#mf481a149d4" y="202.519861111"/>
      </g>
     </g>
     <g id="text_8">
      <!-- 20 -->
      <g style="fill:#303030;" transform="translate(32.5775 207.690173611)scale(0.2 -0.2)">
       <use xlink:href="#ArialMT-32"/>
       <use x="55.615234375" xlink:href="#ArialMT-30"/>
      </g>
     </g>
    </g>
    <g id="ytick_4">
     <g id="line2d_11">
      <path clip-path="url(#p08db483650)" d="M 60.42125 124.391917 
L 494.712 124.391917 
" style="fill:none;stroke:#e5e5f7;stroke-linecap:round;stroke-width:1.1199999999999999;"/>
     </g>
     <g id="line2d_12">
      <g>
       <use style="fill:#303030;stroke:#303030;stroke-width:0.8;" x="60.42125" xlink:href="#mf481a149d4" y="124.391916667"/>
      </g>
     </g>
     <g id="text_9">
      <!-- 30 -->
      <defs>
       <path d="M 4.203125 18.890625 
L 12.984375 20.0625 
Q 14.5 12.59375 18.140625 9.296875 
Q 21.78125 6 27 6 
Q 33.203125 6 37.46875 10.296875 
Q 41.75 14.59375 41.75 20.953125 
Q 41.75 27 37.796875 30.921875 
Q 33.84375 34.859375 27.734375 34.859375 
Q 25.25 34.859375 21.53125 33.890625 
L 22.515625 41.609375 
Q 23.390625 41.5 23.921875 41.5 
Q 29.546875 41.5 34.03125 44.421875 
Q 38.53125 47.359375 38.53125 53.46875 
Q 38.53125 58.296875 35.25 61.46875 
Q 31.984375 64.65625 26.8125 64.65625 
Q 21.6875 64.65625 18.265625 61.421875 
Q 14.84375 58.203125 13.875 51.765625 
L 5.078125 53.328125 
Q 6.6875 62.15625 12.390625 67.015625 
Q 18.109375 71.875 26.609375 71.875 
Q 32.46875 71.875 37.390625 69.359375 
Q 42.328125 66.84375 44.9375 62.5 
Q 47.5625 58.15625 47.5625 53.265625 
Q 47.5625 48.640625 45.0625 44.828125 
Q 42.578125 41.015625 37.703125 38.765625 
Q 44.046875 37.3125 47.5625 32.6875 
Q 51.078125 28.078125 51.078125 21.140625 
Q 51.078125 11.765625 44.234375 5.25 
Q 37.40625 -1.265625 26.953125 -1.265625 
Q 17.53125 -1.265625 11.296875 4.34375 
Q 5.078125 9.96875 4.203125 18.890625 
" id="ArialMT-33"/>
      </defs>
      <g style="fill:#303030;" transform="translate(32.5775 129.562229167)scale(0.2 -0.2)">
       <use xlink:href="#ArialMT-33"/>
       <use x="55.615234375" xlink:href="#ArialMT-30"/>
      </g>
     </g>
    </g>
    <g id="ytick_5">
     <g id="line2d_13">
      <path clip-path="url(#p08db483650)" d="M 60.42125 46.263972 
L 494.712 46.263972 
" style="fill:none;stroke:#e5e5f7;stroke-linecap:round;stroke-width:1.1199999999999999;"/>
     </g>
     <g id="line2d_14">
      <g>
       <use style="fill:#303030;stroke:#303030;stroke-width:0.8;" x="60.42125" xlink:href="#mf481a149d4" y="46.2639722222"/>
      </g>
     </g>
     <g id="text_10">
      <!-- 40 -->
      <g style="fill:#303030;" transform="translate(32.5775 51.4342847222)scale(0.2 -0.2)">
       <use xlink:href="#ArialMT-34"/>
       <use x="55.615234375" xlink:href="#ArialMT-30"/>
      </g>
     </g>
    </g>
    <g id="text_11">
     <!-- Density -->
     <defs>
      <path d="M 42.09375 16.703125 
L 51.171875 15.578125 
Q 49.03125 7.625 43.21875 3.21875 
Q 37.40625 -1.171875 28.375 -1.171875 
Q 17 -1.171875 10.328125 5.828125 
Q 3.65625 12.84375 3.65625 25.484375 
Q 3.65625 38.578125 10.390625 45.796875 
Q 17.140625 53.03125 27.875 53.03125 
Q 38.28125 53.03125 44.875 45.953125 
Q 51.46875 38.875 51.46875 26.03125 
Q 51.46875 25.25 51.421875 23.6875 
L 12.75 23.6875 
Q 13.234375 15.140625 17.578125 10.59375 
Q 21.921875 6.0625 28.421875 6.0625 
Q 33.25 6.0625 36.671875 8.59375 
Q 40.09375 11.140625 42.09375 16.703125 
M 13.234375 30.90625 
L 42.1875 30.90625 
Q 41.609375 37.453125 38.875 40.71875 
Q 34.671875 45.796875 27.984375 45.796875 
Q 21.921875 45.796875 17.796875 41.75 
Q 13.671875 37.703125 13.234375 30.90625 
" id="ArialMT-65"/>
      <path d="M 7.71875 0 
L 7.71875 71.578125 
L 32.375 71.578125 
Q 40.71875 71.578125 45.125 70.5625 
Q 51.265625 69.140625 55.609375 65.4375 
Q 61.28125 60.640625 64.078125 53.1875 
Q 66.890625 45.75 66.890625 36.1875 
Q 66.890625 28.03125 64.984375 21.734375 
Q 63.09375 15.4375 60.109375 11.296875 
Q 57.125 7.171875 53.578125 4.796875 
Q 50.046875 2.4375 45.046875 1.21875 
Q 40.046875 0 33.546875 0 
z
M 17.1875 8.453125 
L 32.46875 8.453125 
Q 39.546875 8.453125 43.578125 9.765625 
Q 47.609375 11.078125 50 13.484375 
Q 53.375 16.84375 55.25 22.53125 
Q 57.125 28.21875 57.125 36.328125 
Q 57.125 47.5625 53.4375 53.59375 
Q 49.75 59.625 44.484375 61.671875 
Q 40.671875 63.140625 32.234375 63.140625 
L 17.1875 63.140625 
z
" id="ArialMT-44"/>
      <path d="M 6.203125 -19.96875 
L 5.21875 -11.71875 
Q 8.109375 -12.5 10.25 -12.5 
Q 13.1875 -12.5 14.9375 -11.515625 
Q 16.703125 -10.546875 17.828125 -8.796875 
Q 18.65625 -7.46875 20.515625 -2.25 
Q 20.75 -1.515625 21.296875 -0.09375 
L 1.609375 51.859375 
L 11.078125 51.859375 
L 21.875 21.828125 
Q 23.96875 16.109375 25.640625 9.8125 
Q 27.15625 15.875 29.25 21.625 
L 40.328125 51.859375 
L 49.125 51.859375 
L 29.390625 -0.875 
Q 26.21875 -9.421875 24.46875 -12.640625 
Q 22.125 -17 19.09375 -19.015625 
Q 16.0625 -21.046875 11.859375 -21.046875 
Q 9.328125 -21.046875 6.203125 -19.96875 
" id="ArialMT-79"/>
      <path d="M 3.078125 15.484375 
L 11.765625 16.84375 
Q 12.5 11.625 15.84375 8.84375 
Q 19.1875 6.0625 25.203125 6.0625 
Q 31.25 6.0625 34.171875 8.515625 
Q 37.109375 10.984375 37.109375 14.3125 
Q 37.109375 17.28125 34.515625 19 
Q 32.71875 20.171875 25.53125 21.96875 
Q 15.875 24.421875 12.140625 26.203125 
Q 8.40625 27.984375 6.46875 31.125 
Q 4.546875 34.28125 4.546875 38.09375 
Q 4.546875 41.546875 6.125 44.5 
Q 7.71875 47.46875 10.453125 49.421875 
Q 12.5 50.921875 16.03125 51.96875 
Q 19.578125 53.03125 23.640625 53.03125 
Q 29.734375 53.03125 34.34375 51.265625 
Q 38.96875 49.515625 41.15625 46.5 
Q 43.359375 43.5 44.1875 38.484375 
L 35.59375 37.3125 
Q 35.015625 41.3125 32.203125 43.546875 
Q 29.390625 45.796875 24.265625 45.796875 
Q 18.21875 45.796875 15.625 43.796875 
Q 13.03125 41.796875 13.03125 39.109375 
Q 13.03125 37.40625 14.109375 36.03125 
Q 15.1875 34.625 17.484375 33.6875 
Q 18.796875 33.203125 25.25 31.453125 
Q 34.578125 28.953125 38.25 27.359375 
Q 41.9375 25.78125 44.03125 22.75 
Q 46.140625 19.734375 46.140625 15.234375 
Q 46.140625 10.84375 43.578125 6.953125 
Q 41.015625 3.078125 36.171875 0.953125 
Q 31.34375 -1.171875 25.25 -1.171875 
Q 15.140625 -1.171875 9.84375 3.03125 
Q 4.546875 7.234375 3.078125 15.484375 
" id="ArialMT-73"/>
     </defs>
     <g style="fill:#303030;" transform="translate(22.9471875 219.666)rotate(-90.0)scale(0.22 -0.22)">
      <use xlink:href="#ArialMT-44"/>
      <use x="72.216796875" xlink:href="#ArialMT-65"/>
      <use x="127.83203125" xlink:href="#ArialMT-6e"/>
      <use x="183.447265625" xlink:href="#ArialMT-73"/>
      <use x="233.447265625" xlink:href="#ArialMT-69"/>
      <use x="255.6640625" xlink:href="#ArialMT-74"/>
      <use x="283.447265625" xlink:href="#ArialMT-79"/>
     </g>
    </g>
   </g>
   <g id="PolyCollection_1">
    <defs>
     <path d="M 259.858111 -56.749763 
L 259.858111 -56.73625 
L 261.707354 -56.73625 
L 263.556597 -56.73625 
L 265.40584 -56.73625 
L 267.255083 -56.73625 
L 269.104327 -56.73625 
L 270.95357 -56.73625 
L 272.802813 -56.73625 
L 274.652056 -56.73625 
L 276.5013 -56.73625 
L 278.350543 -56.73625 
L 280.199786 -56.73625 
L 282.049029 -56.73625 
L 283.898272 -56.73625 
L 285.747516 -56.73625 
L 287.596759 -56.73625 
L 289.446002 -56.73625 
L 291.295245 -56.73625 
L 293.144489 -56.73625 
L 294.993732 -56.73625 
L 296.842975 -56.73625 
L 298.692218 -56.73625 
L 300.541461 -56.73625 
L 302.390705 -56.73625 
L 304.239948 -56.73625 
L 306.089191 -56.73625 
L 307.938434 -56.73625 
L 309.787678 -56.73625 
L 311.636921 -56.73625 
L 313.486164 -56.73625 
L 315.335407 -56.73625 
L 317.18465 -56.73625 
L 319.033894 -56.73625 
L 320.883137 -56.73625 
L 322.73238 -56.73625 
L 324.581623 -56.73625 
L 326.430867 -56.73625 
L 328.28011 -56.73625 
L 330.129353 -56.73625 
L 331.978596 -56.73625 
L 333.827839 -56.73625 
L 335.677083 -56.73625 
L 337.526326 -56.73625 
L 339.375569 -56.73625 
L 341.224812 -56.73625 
L 343.074056 -56.73625 
L 344.923299 -56.73625 
L 346.772542 -56.73625 
L 348.621785 -56.73625 
L 350.471029 -56.73625 
L 352.320272 -56.73625 
L 354.169515 -56.73625 
L 356.018758 -56.73625 
L 357.868001 -56.73625 
L 359.717245 -56.73625 
L 361.566488 -56.73625 
L 363.415731 -56.73625 
L 365.264974 -56.73625 
L 367.114218 -56.73625 
L 368.963461 -56.73625 
L 370.812704 -56.73625 
L 372.661947 -56.73625 
L 374.51119 -56.73625 
L 376.360434 -56.73625 
L 378.209677 -56.73625 
L 380.05892 -56.73625 
L 381.908163 -56.73625 
L 383.757407 -56.73625 
L 385.60665 -56.73625 
L 387.455893 -56.73625 
L 389.305136 -56.73625 
L 391.154379 -56.73625 
L 393.003623 -56.73625 
L 394.852866 -56.73625 
L 396.702109 -56.73625 
L 398.551352 -56.73625 
L 400.400596 -56.73625 
L 402.249839 -56.73625 
L 404.099082 -56.73625 
L 405.948325 -56.73625 
L 407.797568 -56.73625 
L 409.646812 -56.73625 
L 411.496055 -56.73625 
L 413.345298 -56.73625 
L 415.194541 -56.73625 
L 417.043785 -56.73625 
L 418.893028 -56.73625 
L 420.742271 -56.73625 
L 422.591514 -56.73625 
L 424.440757 -56.73625 
L 426.290001 -56.73625 
L 428.139244 -56.73625 
L 429.988487 -56.73625 
L 431.83773 -56.73625 
L 433.686974 -56.73625 
L 435.536217 -56.73625 
L 437.38546 -56.73625 
L 439.234703 -56.73625 
L 441.083946 -56.73625 
L 442.93319 -56.73625 
L 444.782433 -56.73625 
L 446.631676 -56.73625 
L 448.480919 -56.73625 
L 450.330163 -56.73625 
L 452.179406 -56.73625 
L 454.028649 -56.73625 
L 455.877892 -56.73625 
L 457.727136 -56.73625 
L 459.576379 -56.73625 
L 461.425622 -56.73625 
L 463.274865 -56.73625 
L 465.124108 -56.73625 
L 466.973352 -56.73625 
L 468.822595 -56.73625 
L 470.671838 -56.73625 
L 472.521081 -56.73625 
L 474.370325 -56.73625 
L 476.219568 -56.73625 
L 478.068811 -56.73625 
L 479.918054 -56.73625 
L 481.767297 -56.73625 
L 483.616541 -56.73625 
L 485.465784 -56.73625 
L 487.315027 -56.73625 
L 489.16427 -56.73625 
L 491.013514 -56.73625 
L 492.862757 -56.73625 
L 494.712 -56.73625 
L 494.712 -56.752429 
L 494.712 -56.752429 
L 492.862757 -56.765741 
L 491.013514 -56.794504 
L 489.16427 -56.846717 
L 487.315027 -56.93244 
L 485.465784 -57.06139 
L 483.616541 -57.239417 
L 481.767297 -57.464924 
L 479.918054 -57.727149 
L 478.068811 -58.008148 
L 476.219568 -58.288977 
L 474.370325 -58.558294 
L 472.521081 -58.81976 
L 470.671838 -59.094613 
L 468.822595 -59.41798 
L 466.973352 -59.830806 
L 465.124108 -60.371642 
L 463.274865 -61.072353 
L 461.425622 -61.959332 
L 459.576379 -63.05836 
L 457.727136 -64.399083 
L 455.877892 -66.015137 
L 454.028649 -67.938319 
L 452.179406 -70.188537 
L 450.330163 -72.76402 
L 448.480919 -75.637132 
L 446.631676 -78.759458 
L 444.782433 -82.0761 
L 442.93319 -85.544704 
L 441.083946 -89.152011 
L 439.234703 -92.921445 
L 437.38546 -96.909798 
L 435.536217 -101.196832 
L 433.686974 -105.874979 
L 431.83773 -111.044688 
L 429.988487 -116.815468 
L 428.139244 -123.307513 
L 426.290001 -130.647726 
L 424.440757 -138.957672 
L 422.591514 -148.33634 
L 420.742271 -158.843645 
L 418.893028 -170.489496 
L 417.043785 -183.229345 
L 415.194541 -196.963259 
L 413.345298 -211.53431 
L 411.496055 -226.724211 
L 409.646812 -242.248328 
L 407.797568 -257.756238 
L 405.948325 -272.845393 
L 404.099082 -287.092982 
L 402.249839 -300.105074 
L 400.400596 -311.57445 
L 398.551352 -321.332118 
L 396.702109 -329.375673 
L 394.852866 -335.862418 
L 393.003623 -341.065987 
L 391.154379 -345.30804 
L 389.305136 -348.885442 
L 387.455893 -352.013472 
L 385.60665 -354.796639 
L 383.757407 -357.225984 
L 381.908163 -359.193086 
L 380.05892 -360.511455 
L 378.209677 -360.943372 
L 376.360434 -360.236428 
L 374.51119 -358.171812 
L 372.661947 -354.61632 
L 370.812704 -349.560344 
L 368.963461 -343.124131 
L 367.114218 -335.526563 
L 365.264974 -327.02803 
L 363.415731 -317.870968 
L 361.566488 -308.241259 
L 359.717245 -298.261679 
L 357.868001 -288.012023 
L 356.018758 -277.558692 
L 354.169515 -266.975493 
L 352.320272 -256.346772 
L 350.471029 -245.757217 
L 348.621785 -235.280492 
L 346.772542 -224.976134 
L 344.923299 -214.893942 
L 343.074056 -205.07678 
L 341.224812 -195.554154 
L 339.375569 -186.32906 
L 337.526326 -177.370231 
L 335.677083 -168.622057 
L 333.827839 -160.033959 
L 331.978596 -151.597275 
L 330.129353 -143.370146 
L 328.28011 -135.474191 
L 326.430867 -128.0594 
L 324.581623 -121.249684 
L 322.73238 -115.093174 
L 320.883137 -109.541908 
L 319.033894 -104.472748 
L 317.18465 -99.740551 
L 315.335407 -95.237378 
L 313.486164 -90.928798 
L 311.636921 -86.852193 
L 309.787678 -83.083575 
L 307.938434 -79.69504 
L 306.089191 -76.725588 
L 304.239948 -74.175382 
L 302.390705 -72.017611 
L 300.541461 -70.213643 
L 298.692218 -68.719995 
L 296.842975 -67.485583 
L 294.993732 -66.446539 
L 293.144489 -65.527626 
L 291.295245 -64.653859 
L 289.446002 -63.76798 
L 287.596759 -62.844746 
L 285.747516 -61.894363 
L 283.898272 -60.953518 
L 282.049029 -60.06888 
L 280.199786 -59.280938 
L 278.350543 -58.614233 
L 276.5013 -58.075623 
L 274.652056 -57.658205 
L 272.802813 -57.347097 
L 270.95357 -57.124252 
L 269.104327 -56.971414 
L 267.255083 -56.87163 
L 265.40584 -56.810085 
L 263.556597 -56.774681 
L 261.707354 -56.756449 
L 259.858111 -56.749763 
z
" id="me46065e778" style="stroke:#ffffff;stroke-opacity:0.9;stroke-width:0.16000000000000003;"/>
    </defs>
    <g clip-path="url(#p08db483650)">
     <use style="fill:#484848;fill-opacity:0.9;stroke:#ffffff;stroke-opacity:0.9;stroke-width:0.16000000000000003;" x="0.0" xlink:href="#me46065e778" y="415.512"/>
    </g>
   </g>
   <g id="PolyCollection_2">
    <defs>
     <path d="M 189.017136 -56.748453 
L 189.017136 -56.73625 
L 190.776867 -56.73625 
L 192.536597 -56.73625 
L 194.296327 -56.73625 
L 196.056057 -56.73625 
L 197.815787 -56.73625 
L 199.575517 -56.73625 
L 201.335248 -56.73625 
L 203.094978 -56.73625 
L 204.854708 -56.73625 
L 206.614438 -56.73625 
L 208.374168 -56.73625 
L 210.133898 -56.73625 
L 211.893629 -56.73625 
L 213.653359 -56.73625 
L 215.413089 -56.73625 
L 217.172819 -56.73625 
L 218.932549 -56.73625 
L 220.69228 -56.73625 
L 222.45201 -56.73625 
L 224.21174 -56.73625 
L 225.97147 -56.73625 
L 227.7312 -56.73625 
L 229.49093 -56.73625 
L 231.250661 -56.73625 
L 233.010391 -56.73625 
L 234.770121 -56.73625 
L 236.529851 -56.73625 
L 238.289581 -56.73625 
L 240.049311 -56.73625 
L 241.809042 -56.73625 
L 243.568772 -56.73625 
L 245.328502 -56.73625 
L 247.088232 -56.73625 
L 248.847962 -56.73625 
L 250.607692 -56.73625 
L 252.367423 -56.73625 
L 254.127153 -56.73625 
L 255.886883 -56.73625 
L 257.646613 -56.73625 
L 259.406343 -56.73625 
L 261.166074 -56.73625 
L 262.925804 -56.73625 
L 264.685534 -56.73625 
L 266.445264 -56.73625 
L 268.204994 -56.73625 
L 269.964724 -56.73625 
L 271.724455 -56.73625 
L 273.484185 -56.73625 
L 275.243915 -56.73625 
L 277.003645 -56.73625 
L 278.763375 -56.73625 
L 280.523105 -56.73625 
L 282.282836 -56.73625 
L 284.042566 -56.73625 
L 285.802296 -56.73625 
L 287.562026 -56.73625 
L 289.321756 -56.73625 
L 291.081486 -56.73625 
L 292.841217 -56.73625 
L 294.600947 -56.73625 
L 296.360677 -56.73625 
L 298.120407 -56.73625 
L 299.880137 -56.73625 
L 301.639868 -56.73625 
L 303.399598 -56.73625 
L 305.159328 -56.73625 
L 306.919058 -56.73625 
L 308.678788 -56.73625 
L 310.438518 -56.73625 
L 312.198249 -56.73625 
L 313.957979 -56.73625 
L 315.717709 -56.73625 
L 317.477439 -56.73625 
L 319.237169 -56.73625 
L 320.996899 -56.73625 
L 322.75663 -56.73625 
L 324.51636 -56.73625 
L 326.27609 -56.73625 
L 328.03582 -56.73625 
L 329.79555 -56.73625 
L 331.55528 -56.73625 
L 333.315011 -56.73625 
L 335.074741 -56.73625 
L 336.834471 -56.73625 
L 338.594201 -56.73625 
L 340.353931 -56.73625 
L 342.113661 -56.73625 
L 343.873392 -56.73625 
L 345.633122 -56.73625 
L 347.392852 -56.73625 
L 349.152582 -56.73625 
L 350.912312 -56.73625 
L 352.672043 -56.73625 
L 354.431773 -56.73625 
L 356.191503 -56.73625 
L 357.951233 -56.73625 
L 359.710963 -56.73625 
L 361.470693 -56.73625 
L 363.230424 -56.73625 
L 364.990154 -56.73625 
L 366.749884 -56.73625 
L 368.509614 -56.73625 
L 370.269344 -56.73625 
L 372.029074 -56.73625 
L 373.788805 -56.73625 
L 375.548535 -56.73625 
L 377.308265 -56.73625 
L 379.067995 -56.73625 
L 380.827725 -56.73625 
L 382.587455 -56.73625 
L 384.347186 -56.73625 
L 386.106916 -56.73625 
L 387.866646 -56.73625 
L 389.626376 -56.73625 
L 391.386106 -56.73625 
L 393.145837 -56.73625 
L 394.905567 -56.73625 
L 396.665297 -56.73625 
L 398.425027 -56.73625 
L 400.184757 -56.73625 
L 401.944487 -56.73625 
L 403.704218 -56.73625 
L 405.463948 -56.73625 
L 407.223678 -56.73625 
L 408.983408 -56.73625 
L 410.743138 -56.73625 
L 412.502868 -56.73625 
L 412.502868 -56.749572 
L 412.502868 -56.749572 
L 410.743138 -56.760023 
L 408.983408 -56.784438 
L 407.223678 -56.831659 
L 405.463948 -56.915139 
L 403.704218 -57.052684 
L 401.944487 -57.265023 
L 400.184757 -57.572975 
L 398.425027 -57.993482 
L 396.665297 -58.535391 
L 394.905567 -59.196425 
L 393.145837 -59.962952 
L 391.386106 -60.813866 
L 389.626376 -61.728772 
L 387.866646 -62.699 
L 386.106916 -63.737951 
L 384.347186 -64.886086 
L 382.587455 -66.206569 
L 380.827725 -67.770831 
L 379.067995 -69.638282 
L 377.308265 -71.838772 
L 375.548535 -74.367216 
L 373.788805 -77.195409 
L 372.029074 -80.297681 
L 370.269344 -83.678943 
L 368.509614 -87.390718 
L 366.749884 -91.525346 
L 364.990154 -96.188583 
L 363.230424 -101.460766 
L 361.470693 -107.36156 
L 359.710963 -113.831655 
L 357.951233 -120.738971 
L 356.191503 -127.909992 
L 354.431773 -135.180132 
L 352.672043 -142.450476 
L 350.912312 -149.732719 
L 349.152582 -157.163329 
L 347.392852 -164.975497 
L 345.633122 -173.432929 
L 343.873392 -182.746662 
L 342.113661 -193.005471 
L 340.353931 -204.146232 
L 338.594201 -215.974352 
L 336.834471 -228.22426 
L 335.074741 -240.635134 
L 333.315011 -253.012836 
L 331.55528 -265.255748 
L 329.79555 -277.336812 
L 328.03582 -289.251879 
L 326.27609 -300.959204 
L 324.51636 -312.339726 
L 322.75663 -323.198683 
L 320.996899 -333.30918 
L 319.237169 -342.477335 
L 317.477439 -350.59774 
L 315.717709 -357.672399 
L 313.957979 -363.783152 
L 312.198249 -369.028453 
L 310.438518 -373.451502 
L 308.678788 -376.991477 
L 306.919058 -379.479981 
L 305.159328 -380.683654 
L 303.399598 -380.371231 
L 301.639868 -378.372865 
L 299.880137 -374.608838 
L 298.120407 -369.087484 
L 296.360677 -361.890929 
L 294.600947 -353.167784 
L 292.841217 -343.135552 
L 291.081486 -332.078422 
L 289.321756 -320.324311 
L 287.562026 -308.200111 
L 285.802296 -295.982523 
L 284.042566 -283.867757 
L 282.282836 -271.972483 
L 280.523105 -260.359711 
L 278.763375 -249.070238 
L 277.003645 -238.140572 
L 275.243915 -227.599857 
L 273.484185 -217.453354 
L 271.724455 -207.66945 
L 269.964724 -198.185419 
L 268.204994 -188.934845 
L 266.445264 -179.884101 
L 264.685534 -171.057048 
L 262.925804 -162.532631 
L 261.166074 -154.41617 
L 259.406343 -146.801034 
L 257.646613 -139.7416 
L 255.886883 -133.248537 
L 254.127153 -127.301065 
L 252.367423 -121.860539 
L 250.607692 -116.87284 
L 248.847962 -112.260461 
L 247.088232 -107.917436 
L 245.328502 -103.721107 
L 243.568772 -99.562895 
L 241.809042 -95.384731 
L 240.049311 -91.200492 
L 238.289581 -87.088483 
L 236.529851 -83.157256 
L 234.770121 -79.502207 
L 233.010391 -76.174682 
L 231.250661 -73.176899 
L 229.49093 -70.480724 
L 227.7312 -68.055997 
L 225.97147 -65.891423 
L 224.21174 -63.998289 
L 222.45201 -62.398485 
L 220.69228 -61.106323 
L 218.932549 -60.114698 
L 217.172819 -59.391317 
L 215.413089 -58.884469 
L 213.653359 -58.533834 
L 211.893629 -58.281453 
L 210.133898 -58.079858 
L 208.374168 -57.896453 
L 206.614438 -57.714401 
L 204.854708 -57.530576 
L 203.094978 -57.351309 
L 201.335248 -57.187039 
L 199.575517 -57.047336 
L 197.815787 -56.937628 
L 196.056057 -56.858233 
L 194.296327 -56.805359 
L 192.536597 -56.773132 
L 190.776867 -56.755638 
L 189.017136 -56.748453 
z
" id="m064a42bce8" style="stroke:#ffffff;stroke-opacity:0.7;stroke-width:0.16000000000000003;"/>
    </defs>
    <g clip-path="url(#p08db483650)">
     <use style="fill:#5d5d5d;fill-opacity:0.7;stroke:#ffffff;stroke-opacity:0.7;stroke-width:0.16000000000000003;" x="0.0" xlink:href="#m064a42bce8" y="415.512"/>
    </g>
   </g>
   <g id="PolyCollection_3">
    <defs>
     <path d="M 68.134942 -56.747923 
L 68.134942 -56.73625 
L 70.140047 -56.73625 
L 72.145152 -56.73625 
L 74.150257 -56.73625 
L 76.155362 -56.73625 
L 78.160468 -56.73625 
L 80.165573 -56.73625 
L 82.170678 -56.73625 
L 84.175783 -56.73625 
L 86.180888 -56.73625 
L 88.185993 -56.73625 
L 90.191098 -56.73625 
L 92.196203 -56.73625 
L 94.201308 -56.73625 
L 96.206413 -56.73625 
L 98.211518 -56.73625 
L 100.216623 -56.73625 
L 102.221728 -56.73625 
L 104.226833 -56.73625 
L 106.231938 -56.73625 
L 108.237043 -56.73625 
L 110.242148 -56.73625 
L 112.247254 -56.73625 
L 114.252359 -56.73625 
L 116.257464 -56.73625 
L 118.262569 -56.73625 
L 120.267674 -56.73625 
L 122.272779 -56.73625 
L 124.277884 -56.73625 
L 126.282989 -56.73625 
L 128.288094 -56.73625 
L 130.293199 -56.73625 
L 132.298304 -56.73625 
L 134.303409 -56.73625 
L 136.308514 -56.73625 
L 138.313619 -56.73625 
L 140.318724 -56.73625 
L 142.323829 -56.73625 
L 144.328934 -56.73625 
L 146.33404 -56.73625 
L 148.339145 -56.73625 
L 150.34425 -56.73625 
L 152.349355 -56.73625 
L 154.35446 -56.73625 
L 156.359565 -56.73625 
L 158.36467 -56.73625 
L 160.369775 -56.73625 
L 162.37488 -56.73625 
L 164.379985 -56.73625 
L 166.38509 -56.73625 
L 168.390195 -56.73625 
L 170.3953 -56.73625 
L 172.400405 -56.73625 
L 174.40551 -56.73625 
L 176.410615 -56.73625 
L 178.41572 -56.73625 
L 180.420826 -56.73625 
L 182.425931 -56.73625 
L 184.431036 -56.73625 
L 186.436141 -56.73625 
L 188.441246 -56.73625 
L 190.446351 -56.73625 
L 192.451456 -56.73625 
L 194.456561 -56.73625 
L 196.461666 -56.73625 
L 198.466771 -56.73625 
L 200.471876 -56.73625 
L 202.476981 -56.73625 
L 204.482086 -56.73625 
L 206.487191 -56.73625 
L 208.492296 -56.73625 
L 210.497401 -56.73625 
L 212.502506 -56.73625 
L 214.507612 -56.73625 
L 216.512717 -56.73625 
L 218.517822 -56.73625 
L 220.522927 -56.73625 
L 222.528032 -56.73625 
L 224.533137 -56.73625 
L 226.538242 -56.73625 
L 228.543347 -56.73625 
L 230.548452 -56.73625 
L 232.553557 -56.73625 
L 234.558662 -56.73625 
L 236.563767 -56.73625 
L 238.568872 -56.73625 
L 240.573977 -56.73625 
L 242.579082 -56.73625 
L 244.584187 -56.73625 
L 246.589292 -56.73625 
L 248.594398 -56.73625 
L 250.599503 -56.73625 
L 252.604608 -56.73625 
L 254.609713 -56.73625 
L 256.614818 -56.73625 
L 258.619923 -56.73625 
L 260.625028 -56.73625 
L 262.630133 -56.73625 
L 264.635238 -56.73625 
L 266.640343 -56.73625 
L 268.645448 -56.73625 
L 270.650553 -56.73625 
L 272.655658 -56.73625 
L 274.660763 -56.73625 
L 276.665868 -56.73625 
L 278.670973 -56.73625 
L 280.676078 -56.73625 
L 282.681184 -56.73625 
L 284.686289 -56.73625 
L 286.691394 -56.73625 
L 288.696499 -56.73625 
L 290.701604 -56.73625 
L 292.706709 -56.73625 
L 294.711814 -56.73625 
L 296.716919 -56.73625 
L 298.722024 -56.73625 
L 300.727129 -56.73625 
L 302.732234 -56.73625 
L 304.737339 -56.73625 
L 306.742444 -56.73625 
L 308.747549 -56.73625 
L 310.752654 -56.73625 
L 312.757759 -56.73625 
L 314.762864 -56.73625 
L 316.76797 -56.73625 
L 318.773075 -56.73625 
L 320.77818 -56.73625 
L 322.783285 -56.73625 
L 322.783285 -56.748641 
L 322.783285 -56.748641 
L 320.77818 -56.759751 
L 318.773075 -56.786668 
L 316.76797 -56.839758 
L 314.762864 -56.934063 
L 312.757759 -57.087745 
L 310.752654 -57.319062 
L 308.747549 -57.642776 
L 306.742444 -58.067928 
L 304.737339 -58.599092 
L 302.732234 -59.241844 
L 300.727129 -60.010537 
L 298.722024 -60.93388 
L 296.716919 -62.053158 
L 294.711814 -63.410651 
L 292.706709 -65.031189 
L 290.701604 -66.905139 
L 288.696499 -68.982474 
L 286.691394 -71.183006 
L 284.686289 -73.419903 
L 282.681184 -75.627582 
L 280.676078 -77.784851 
L 278.670973 -79.928146 
L 276.665868 -82.152757 
L 274.660763 -84.599921 
L 272.655658 -87.428271 
L 270.650553 -90.774382 
L 268.645448 -94.717245 
L 266.640343 -99.266078 
L 264.635238 -104.381851 
L 262.630133 -110.023028 
L 260.625028 -116.188966 
L 258.619923 -122.933577 
L 256.614818 -130.340006 
L 254.609713 -138.47292 
L 252.604608 -147.340818 
L 250.599503 -156.894086 
L 248.594398 -167.05778 
L 246.589292 -177.770508 
L 244.584187 -188.995716 
L 242.579082 -200.697152 
L 240.573977 -212.806645 
L 238.568872 -225.225498 
L 236.563767 -237.872569 
L 234.558662 -250.742106 
L 232.553557 -263.90766 
L 230.548452 -277.437458 
L 228.543347 -291.257872 
L 226.538242 -305.059614 
L 224.533137 -318.330686 
L 222.528032 -330.515897 
L 220.522927 -341.204969 
L 218.517822 -350.222245 
L 216.512717 -357.563737 
L 214.507612 -363.247422 
L 212.502506 -367.208537 
L 210.497401 -369.324883 
L 208.492296 -369.539853 
L 206.487191 -367.968391 
L 204.482086 -364.892859 
L 202.476981 -360.653402 
L 200.471876 -355.518995 
L 198.466771 -349.626619 
L 196.461666 -343.010869 
L 194.456561 -335.678826 
L 192.451456 -327.664793 
L 190.446351 -319.028811 
L 188.441246 -309.810715 
L 186.436141 -299.984198 
L 184.431036 -289.455414 
L 182.425931 -278.120647 
L 180.420826 -265.95663 
L 178.41572 -253.090949 
L 176.410615 -239.805786 
L 174.40551 -226.463348 
L 172.400405 -213.385549 
L 170.3953 -200.748369 
L 168.390195 -188.54709 
L 166.38509 -176.653092 
L 164.379985 -164.934616 
L 162.37488 -153.37948 
L 160.369775 -142.157025 
L 158.36467 -131.589109 
L 156.359565 -122.045558 
L 154.35446 -113.813092 
L 152.349355 -106.994115 
L 150.34425 -101.474466 
L 148.339145 -96.968334 
L 146.33404 -93.11725 
L 144.328934 -89.600384 
L 142.323829 -86.213062 
L 140.318724 -82.88908 
L 138.313619 -79.669653 
L 136.308514 -76.643145 
L 134.303409 -73.885985 
L 132.298304 -71.42736 
L 130.293199 -69.245628 
L 128.288094 -67.290377 
L 126.282989 -65.514713 
L 124.277884 -63.90019 
L 122.272779 -62.462281 
L 120.267674 -61.235453 
L 118.262569 -60.24794 
L 116.257464 -59.501129 
L 114.252359 -58.964311 
L 112.247254 -58.585787 
L 110.242148 -58.312357 
L 108.237043 -58.106036 
L 106.231938 -57.95022 
L 104.226833 -57.844261 
L 102.221728 -57.791575 
L 100.216623 -57.788782 
L 98.211518 -57.821308 
L 96.206413 -57.866155 
L 94.201308 -57.898466 
L 92.196203 -57.897691 
L 90.191098 -57.851221 
L 88.185993 -57.755853 
L 86.180888 -57.617999 
L 84.175783 -57.452514 
L 82.170678 -57.279416 
L 80.165573 -57.118719 
L 78.160468 -56.985235 
L 76.155362 -56.885613 
L 74.150257 -56.818679 
L 72.145152 -56.778264 
L 70.140047 -56.756752 
L 68.134942 -56.747923 
z
" id="m30ba5eb3d2" style="stroke:#ffffff;stroke-opacity:0.5;stroke-width:0.16000000000000003;"/>
    </defs>
    <g clip-path="url(#p08db483650)">
     <use style="fill:#7b7b7b;fill-opacity:0.5;stroke:#ffffff;stroke-opacity:0.5;stroke-width:0.16000000000000003;" x="0.0" xlink:href="#m30ba5eb3d2" y="415.512"/>
    </g>
   </g>
   <g id="PolyCollection_4">
    <defs>
     <path d="M 60.42125 -56.747905 
L 60.42125 -56.73625 
L 62.507347 -56.73625 
L 64.593445 -56.73625 
L 66.679542 -56.73625 
L 68.765639 -56.73625 
L 70.851737 -56.73625 
L 72.937834 -56.73625 
L 75.023931 -56.73625 
L 77.110029 -56.73625 
L 79.196126 -56.73625 
L 81.282223 -56.73625 
L 83.368321 -56.73625 
L 85.454418 -56.73625 
L 87.540515 -56.73625 
L 89.626613 -56.73625 
L 91.71271 -56.73625 
L 93.798807 -56.73625 
L 95.884905 -56.73625 
L 97.971002 -56.73625 
L 100.057099 -56.73625 
L 102.143197 -56.73625 
L 104.229294 -56.73625 
L 106.315391 -56.73625 
L 108.401489 -56.73625 
L 110.487586 -56.73625 
L 112.573683 -56.73625 
L 114.659781 -56.73625 
L 116.745878 -56.73625 
L 118.831975 -56.73625 
L 120.918073 -56.73625 
L 123.00417 -56.73625 
L 125.090267 -56.73625 
L 127.176365 -56.73625 
L 129.262462 -56.73625 
L 131.348559 -56.73625 
L 133.434657 -56.73625 
L 135.520754 -56.73625 
L 137.606851 -56.73625 
L 139.692949 -56.73625 
L 141.779046 -56.73625 
L 143.865143 -56.73625 
L 145.951241 -56.73625 
L 148.037338 -56.73625 
L 150.123435 -56.73625 
L 152.209533 -56.73625 
L 154.29563 -56.73625 
L 156.381727 -56.73625 
L 158.467825 -56.73625 
L 160.553922 -56.73625 
L 162.640019 -56.73625 
L 164.726117 -56.73625 
L 166.812214 -56.73625 
L 168.898311 -56.73625 
L 170.984409 -56.73625 
L 173.070506 -56.73625 
L 175.156603 -56.73625 
L 177.242701 -56.73625 
L 179.328798 -56.73625 
L 181.414895 -56.73625 
L 183.500993 -56.73625 
L 185.58709 -56.73625 
L 187.673187 -56.73625 
L 189.759285 -56.73625 
L 191.845382 -56.73625 
L 193.931479 -56.73625 
L 196.017577 -56.73625 
L 198.103674 -56.73625 
L 200.189771 -56.73625 
L 202.275869 -56.73625 
L 204.361966 -56.73625 
L 206.448063 -56.73625 
L 208.534161 -56.73625 
L 210.620258 -56.73625 
L 212.706355 -56.73625 
L 214.792453 -56.73625 
L 216.87855 -56.73625 
L 218.964647 -56.73625 
L 221.050745 -56.73625 
L 223.136842 -56.73625 
L 225.222939 -56.73625 
L 227.309037 -56.73625 
L 229.395134 -56.73625 
L 231.481231 -56.73625 
L 233.567328 -56.73625 
L 235.653426 -56.73625 
L 237.739523 -56.73625 
L 239.82562 -56.73625 
L 241.911718 -56.73625 
L 243.997815 -56.73625 
L 246.083912 -56.73625 
L 248.17001 -56.73625 
L 250.256107 -56.73625 
L 252.342204 -56.73625 
L 254.428302 -56.73625 
L 256.514399 -56.73625 
L 258.600496 -56.73625 
L 260.686594 -56.73625 
L 262.772691 -56.73625 
L 264.858788 -56.73625 
L 266.944886 -56.73625 
L 269.030983 -56.73625 
L 271.11708 -56.73625 
L 273.203178 -56.73625 
L 275.289275 -56.73625 
L 277.375372 -56.73625 
L 279.46147 -56.73625 
L 281.547567 -56.73625 
L 283.633664 -56.73625 
L 285.719762 -56.73625 
L 287.805859 -56.73625 
L 289.891956 -56.73625 
L 291.978054 -56.73625 
L 294.064151 -56.73625 
L 296.150248 -56.73625 
L 298.236346 -56.73625 
L 300.322443 -56.73625 
L 302.40854 -56.73625 
L 304.494638 -56.73625 
L 306.580735 -56.73625 
L 308.666832 -56.73625 
L 310.75293 -56.73625 
L 312.839027 -56.73625 
L 314.925124 -56.73625 
L 317.011222 -56.73625 
L 319.097319 -56.73625 
L 321.183416 -56.73625 
L 323.269514 -56.73625 
L 325.355611 -56.73625 
L 325.355611 -56.747896 
L 325.355611 -56.747896 
L 323.269514 -56.757544 
L 321.183416 -56.780455 
L 319.097319 -56.822882 
L 317.011222 -56.891353 
L 314.925124 -56.988755 
L 312.839027 -57.109979 
L 310.75293 -57.239666 
L 308.666832 -57.35485 
L 306.580735 -57.433117 
L 304.494638 -57.463103 
L 302.40854 -57.451379 
L 300.322443 -57.42069 
L 298.236346 -57.39938 
L 296.150248 -57.407606 
L 294.064151 -57.448524 
L 291.978054 -57.510047 
L 289.891956 -57.576368 
L 287.805859 -57.642485 
L 285.719762 -57.723422 
L 283.633664 -57.853801 
L 281.547567 -58.080008 
L 279.46147 -58.451114 
L 277.375372 -59.012888 
L 275.289275 -59.803477 
L 273.203178 -60.845525 
L 271.11708 -62.132559 
L 269.030983 -63.616386 
L 266.944886 -65.209484 
L 264.858788 -66.813343 
L 262.772691 -68.368537 
L 260.686594 -69.904207 
L 258.600496 -71.557791 
L 256.514399 -73.547968 
L 254.428302 -76.108603 
L 252.342204 -79.413804 
L 250.256107 -83.531166 
L 248.17001 -88.42821 
L 246.083912 -94.030515 
L 243.997815 -100.30005 
L 241.911718 -107.285061 
L 239.82562 -115.10391 
L 237.739523 -123.864655 
L 235.653426 -133.567203 
L 233.567328 -144.052812 
L 231.481231 -155.039829 
L 229.395134 -166.230195 
L 227.309037 -177.425479 
L 225.222939 -188.585967 
L 223.136842 -199.804894 
L 221.050745 -211.224601 
L 218.964647 -222.953082 
L 216.87855 -235.02743 
L 214.792453 -247.427757 
L 212.706355 -260.105694 
L 210.620258 -272.983731 
L 208.534161 -285.909252 
L 206.448063 -298.591372 
L 204.361966 -310.580167 
L 202.275869 -321.340434 
L 200.189771 -330.419328 
L 198.103674 -337.636172 
L 196.017577 -343.184578 
L 193.931479 -347.570221 
L 191.845382 -351.398942 
L 189.759285 -355.117421 
L 187.673187 -358.830169 
L 185.58709 -362.262025 
L 183.500993 -364.853059 
L 181.414895 -365.923378 
L 179.328798 -364.847647 
L 177.242701 -361.203077 
L 175.156603 -354.864648 
L 173.070506 -346.019312 
L 170.984409 -335.087575 
L 168.898311 -322.585927 
L 166.812214 -309.002134 
L 164.726117 -294.744157 
L 162.640019 -280.164354 
L 160.553922 -265.604723 
L 158.467825 -251.404239 
L 156.381727 -237.85387 
L 154.29563 -225.133619 
L 152.209533 -213.277696 
L 150.123435 -202.186971 
L 148.037338 -191.673608 
L 145.951241 -181.511398 
L 143.865143 -171.478974 
L 141.779046 -161.400983 
L 139.692949 -151.194477 
L 137.606851 -140.913212 
L 135.520754 -130.76624 
L 133.434657 -121.086393 
L 131.348559 -112.244822 
L 129.262462 -104.539019 
L 127.176365 -98.102213 
L 125.090267 -92.874951 
L 123.00417 -88.648242 
L 120.918073 -85.152342 
L 118.831975 -82.147375 
L 116.745878 -79.477729 
L 114.659781 -77.074459 
L 112.573683 -74.916762 
L 110.487586 -72.983063 
L 108.401489 -71.223932 
L 106.315391 -69.5708 
L 104.229294 -67.96777 
L 102.143197 -66.398573 
L 100.057099 -64.888259 
L 97.971002 -63.481501 
L 95.884905 -62.216666 
L 93.798807 -61.113613 
L 91.71271 -60.177816 
L 89.626613 -59.409598 
L 87.540515 -58.806517 
L 85.454418 -58.357278 
L 83.368321 -58.035393 
L 81.282223 -57.801312 
L 79.196126 -57.613842 
L 77.110029 -57.443547 
L 75.023931 -57.279518 
L 72.937834 -57.126335 
L 70.851737 -56.994878 
L 68.765639 -56.89344 
L 66.679542 -56.82353 
L 64.593445 -56.780638 
L 62.507347 -56.757591 
L 60.42125 -56.747905 
z
" id="m85591caa85" style="stroke:#ffffff;stroke-opacity:0.3;stroke-width:0.16000000000000003;"/>
    </defs>
    <g clip-path="url(#p08db483650)">
     <use style="fill:#a1a1a1;fill-opacity:0.3;stroke:#ffffff;stroke-opacity:0.3;stroke-width:0.16000000000000003;" x="0.0" xlink:href="#m85591caa85" y="415.512"/>
    </g>
   </g>
   <g id="line2d_15">
    <path clip-path="url(#p08db483650)" d="M 259.858111 358.762237 
L 267.255083 358.64037 
L 270.95357 358.387748 
L 274.652056 357.853795 
L 276.5013 357.436377 
L 278.350543 356.897767 
L 280.199786 356.231062 
L 283.898272 354.558482 
L 291.295245 350.858141 
L 294.993732 349.065461 
L 296.842975 348.026417 
L 298.692218 346.792005 
L 300.541461 345.298357 
L 302.390705 343.494389 
L 304.239948 341.336618 
L 306.089191 338.786412 
L 307.938434 335.81696 
L 309.787678 332.428425 
L 311.636921 328.659807 
L 315.335407 320.274622 
L 319.033894 311.039252 
L 320.883137 305.970092 
L 322.73238 300.418826 
L 324.581623 294.262316 
L 326.430867 287.4526 
L 328.28011 280.037809 
L 331.978596 263.914725 
L 337.526326 238.141769 
L 341.224812 219.957846 
L 344.923299 200.618058 
L 348.621785 180.231508 
L 361.566488 107.270741 
L 365.264974 88.48397 
L 367.114218 79.985437 
L 368.963461 72.387869 
L 370.812704 65.951656 
L 372.661947 60.89568 
L 374.51119 57.340188 
L 376.360434 55.275572 
L 378.209677 54.568628 
L 380.05892 55.000545 
L 381.908163 56.318914 
L 383.757407 58.286016 
L 385.60665 60.715361 
L 387.455893 63.498528 
L 389.305136 66.626558 
L 391.154379 70.20396 
L 393.003623 74.446013 
L 394.852866 79.649582 
L 396.702109 86.136327 
L 398.551352 94.179882 
L 400.400596 103.93755 
L 402.249839 115.406926 
L 404.099082 128.419018 
L 407.797568 157.755762 
L 413.345298 203.97769 
L 417.043785 232.282655 
L 418.893028 245.022504 
L 420.742271 256.668355 
L 422.591514 267.17566 
L 424.440757 276.554328 
L 426.290001 284.864274 
L 428.139244 292.204487 
L 429.988487 298.696532 
L 431.83773 304.467312 
L 433.686974 309.637021 
L 435.536217 314.315168 
L 437.38546 318.602202 
L 441.083946 326.359989 
L 444.782433 333.4359 
L 448.480919 339.874868 
L 450.330163 342.74798 
L 452.179406 345.323463 
L 454.028649 347.573681 
L 455.877892 349.496863 
L 457.727136 351.112917 
L 459.576379 352.45364 
L 461.425622 353.552668 
L 463.274865 354.439647 
L 465.124108 355.140358 
L 466.973352 355.681194 
L 470.671838 356.417387 
L 483.616541 358.272583 
L 487.315027 358.57956 
L 492.862757 358.746259 
L 494.712 358.759571 
L 494.712 358.759571 
" style="fill:none;opacity:0.9;stroke:#484848;stroke-linecap:round;stroke-width:1.2000000000000002;"/>
   </g>
   <g id="line2d_16">
    <path clip-path="url(#p08db483650)" d="M 189.017136 358.763547 
L 196.056057 358.653767 
L 201.335248 358.324961 
L 211.893629 357.230547 
L 215.413089 356.627531 
L 217.172819 356.120683 
L 218.932549 355.397302 
L 220.69228 354.405677 
L 222.45201 353.113515 
L 224.21174 351.513711 
L 225.97147 349.620577 
L 227.7312 347.456003 
L 229.49093 345.031276 
L 231.250661 342.335101 
L 233.010391 339.337318 
L 234.770121 336.009793 
L 236.529851 332.354744 
L 240.049311 324.311508 
L 248.847962 303.251539 
L 250.607692 298.63916 
L 252.367423 293.651461 
L 254.127153 288.210935 
L 255.886883 282.263463 
L 257.646613 275.7704 
L 259.406343 268.710966 
L 261.166074 261.09583 
L 264.685534 244.454952 
L 268.204994 226.577155 
L 271.724455 207.84255 
L 275.243915 187.912143 
L 278.763375 166.441762 
L 282.282836 143.539517 
L 287.562026 107.311889 
L 291.081486 83.433578 
L 292.841217 72.376448 
L 294.600947 62.344216 
L 296.360677 53.621071 
L 298.120407 46.424516 
L 299.880137 40.903162 
L 301.639868 37.139135 
L 303.399598 35.140769 
L 305.159328 34.828346 
L 306.919058 36.032019 
L 308.678788 38.520523 
L 310.438518 42.060498 
L 312.198249 46.483547 
L 313.957979 51.728848 
L 315.717709 57.839601 
L 317.477439 64.91426 
L 319.237169 73.034665 
L 320.996899 82.20282 
L 322.75663 92.313317 
L 326.27609 114.552796 
L 331.55528 150.256252 
L 340.353931 211.365768 
L 342.113661 222.506529 
L 343.873392 232.765338 
L 345.633122 242.079071 
L 347.392852 250.536503 
L 350.912312 265.779281 
L 357.951233 294.773029 
L 361.470693 308.15044 
L 363.230424 314.051234 
L 364.990154 319.323417 
L 366.749884 323.986654 
L 368.509614 328.121282 
L 370.269344 331.833057 
L 372.029074 335.214319 
L 373.788805 338.316591 
L 375.548535 341.144784 
L 377.308265 343.673228 
L 379.067995 345.873718 
L 380.827725 347.741169 
L 382.587455 349.305431 
L 384.347186 350.625914 
L 387.866646 352.813 
L 391.386106 354.698134 
L 394.905567 356.315575 
L 396.665297 356.976609 
L 398.425027 357.518518 
L 401.944487 358.246977 
L 405.463948 358.596861 
L 410.743138 358.751977 
L 412.502868 358.762428 
L 412.502868 358.762428 
" style="fill:none;opacity:0.7;stroke:#5d5d5d;stroke-linecap:round;stroke-width:1.2000000000000002;"/>
   </g>
   <g id="line2d_17">
    <path clip-path="url(#p08db483650)" d="M 68.134942 358.764077 
L 76.155362 358.626387 
L 82.170678 358.232584 
L 88.185993 357.756147 
L 92.196203 357.614309 
L 98.211518 357.690692 
L 102.221728 357.720425 
L 106.231938 357.56178 
L 110.242148 357.199643 
L 114.252359 356.547689 
L 116.257464 356.010871 
L 118.262569 355.26406 
L 120.267674 354.276547 
L 122.272779 353.049719 
L 124.277884 351.61181 
L 126.282989 349.997287 
L 128.288094 348.221623 
L 130.293199 346.266372 
L 132.298304 344.08464 
L 134.303409 341.626015 
L 136.308514 338.868855 
L 140.318724 332.62292 
L 144.328934 325.911616 
L 146.33404 322.39475 
L 148.339145 318.543666 
L 150.34425 314.037534 
L 152.349355 308.517885 
L 154.35446 301.698908 
L 156.359565 293.466442 
L 158.36467 283.922891 
L 160.369775 273.354975 
L 164.379985 250.577384 
L 170.3953 214.763631 
L 174.40551 189.048652 
L 180.420826 149.55537 
L 182.425931 137.391353 
L 184.431036 126.056586 
L 186.436141 115.527802 
L 188.441246 105.701285 
L 190.446351 96.483189 
L 192.451456 87.847207 
L 194.456561 79.833174 
L 196.461666 72.501131 
L 198.466771 65.885381 
L 200.471876 59.993005 
L 202.476981 54.858598 
L 204.482086 50.619141 
L 206.487191 47.543609 
L 208.492296 45.972147 
L 210.497401 46.187117 
L 212.502506 48.303463 
L 214.507612 52.264578 
L 216.512717 57.948263 
L 218.517822 65.289755 
L 220.522927 74.307031 
L 222.528032 84.996103 
L 224.533137 97.181314 
L 228.543347 124.254128 
L 232.553557 151.60434 
L 236.563767 177.639431 
L 240.573977 202.705355 
L 244.584187 226.516284 
L 248.594398 248.45422 
L 250.599503 258.617914 
L 252.604608 268.171182 
L 254.609713 277.03908 
L 256.614818 285.171994 
L 258.619923 292.578423 
L 260.625028 299.323034 
L 262.630133 305.488972 
L 264.635238 311.130149 
L 266.640343 316.245922 
L 268.645448 320.794755 
L 270.650553 324.737618 
L 272.655658 328.083729 
L 274.660763 330.912079 
L 276.665868 333.359243 
L 286.691394 344.328994 
L 290.701604 348.606861 
L 292.706709 350.480811 
L 294.711814 352.101349 
L 296.716919 353.458842 
L 298.722024 354.57812 
L 300.727129 355.501463 
L 302.732234 356.270156 
L 306.742444 357.444072 
L 310.752654 358.192938 
L 314.762864 358.577937 
L 320.77818 358.752249 
L 322.783285 358.763359 
L 322.783285 358.763359 
" style="fill:none;opacity:0.5;stroke:#7b7b7b;stroke-linecap:round;stroke-width:1.2000000000000002;"/>
   </g>
   <g id="line2d_18">
    <path clip-path="url(#p08db483650)" d="M 60.42125 358.764095 
L 68.765639 358.61856 
L 75.023931 358.232482 
L 83.368321 357.476607 
L 85.454418 357.154722 
L 87.540515 356.705483 
L 89.626613 356.102402 
L 91.71271 355.334184 
L 93.798807 354.398387 
L 95.884905 353.295334 
L 97.971002 352.030499 
L 102.143197 349.113427 
L 108.401489 344.288068 
L 110.487586 342.528937 
L 112.573683 340.595238 
L 114.659781 338.437541 
L 116.745878 336.034271 
L 118.831975 333.364625 
L 120.918073 330.359658 
L 123.00417 326.863758 
L 125.090267 322.637049 
L 127.176365 317.409787 
L 129.262462 310.972981 
L 131.348559 303.267178 
L 133.434657 294.425607 
L 137.606851 274.598788 
L 145.951241 234.000602 
L 150.123435 213.325029 
L 152.209533 202.234304 
L 154.29563 190.378381 
L 156.381727 177.65813 
L 160.553922 149.907277 
L 166.812214 106.509866 
L 168.898311 92.926073 
L 170.984409 80.424425 
L 173.070506 69.492688 
L 175.156603 60.647352 
L 177.242701 54.308923 
L 179.328798 50.664353 
L 181.414895 49.588622 
L 183.500993 50.658941 
L 185.58709 53.249975 
L 187.673187 56.681831 
L 193.931479 67.941779 
L 196.017577 72.327422 
L 198.103674 77.875828 
L 200.189771 85.092672 
L 202.275869 94.171566 
L 204.361966 104.931833 
L 206.448063 116.920628 
L 218.964647 192.558918 
L 223.136842 215.707106 
L 233.567328 271.459188 
L 235.653426 281.944797 
L 237.739523 291.647345 
L 239.82562 300.40809 
L 241.911718 308.226939 
L 243.997815 315.21195 
L 246.083912 321.481485 
L 248.17001 327.08379 
L 250.256107 331.980834 
L 252.342204 336.098196 
L 254.428302 339.403397 
L 256.514399 341.964032 
L 258.600496 343.954209 
L 262.772691 347.143463 
L 271.11708 353.379441 
L 273.203178 354.666475 
L 275.289275 355.708523 
L 277.375372 356.499112 
L 279.46147 357.060886 
L 281.547567 357.431992 
L 285.719762 357.788578 
L 296.150248 358.104394 
L 310.75293 358.272334 
L 319.097319 358.689118 
L 325.355611 358.764104 
L 325.355611 358.764104 
" style="fill:none;opacity:0.3;stroke:#a1a1a1;stroke-linecap:round;stroke-width:1.2000000000000002;"/>
   </g>
   <g id="line2d_19">
    <path clip-path="url(#p08db483650)" d="M 146.838212 358.77575 
L 146.838212 7.2 
" style="fill:none;stroke:#222222;stroke-linecap:round;stroke-width:2.0;"/>
   </g>
   <g id="patch_3">
    <path d="M 60.42125 358.77575 
L 494.712 358.77575 
" style="fill:none;stroke:#8b909e;stroke-linecap:square;stroke-linejoin:miter;stroke-width:1.1199999999999999;"/>
   </g>
   <g id="patch_4">
    <path d="M 60.42125 358.77575 
L 60.42125 7.2 
" style="fill:none;stroke:#8b909e;stroke-linecap:square;stroke-linejoin:miter;stroke-width:1.1199999999999999;"/>
   </g>
   <g id="legend_1">
    <g id="line2d_20">
     <path d="M 516.53985 32.515625 
L 556.53985 32.515625 
" style="fill:none;stroke:#222222;stroke-linecap:round;stroke-width:2.0;"/>
    </g>
    <g id="line2d_21"/>
    <g id="text_12">
     <!-- a/2 -->
     <defs>
      <path d="M 0 -1.21875 
L 20.75 72.796875 
L 27.78125 72.796875 
L 7.078125 -1.21875 
z
" id="ArialMT-2f"/>
     </defs>
     <g style="fill:#303030;" transform="translate(572.53985 39.515625)scale(0.2 -0.2)">
      <use xlink:href="#ArialMT-61"/>
      <use x="55.615234375" xlink:href="#ArialMT-2f"/>
      <use x="83.3984375" xlink:href="#ArialMT-32"/>
     </g>
    </g>
    <g id="patch_5">
     <path d="M 516.53985 67.80625 
L 556.53985 67.80625 
L 556.53985 53.80625 
L 516.53985 53.80625 
z
" style="fill:#484848;opacity:0.9;stroke:#ffffff;stroke-linejoin:miter;stroke-width:0.16000000000000003;"/>
    </g>
    <g id="text_13">
     <!-- 1:-2 -->
     <defs>
      <path d="M 3.171875 21.484375 
L 3.171875 30.328125 
L 30.171875 30.328125 
L 30.171875 21.484375 
z
" id="ArialMT-2d"/>
      <path d="M 9.03125 41.84375 
L 9.03125 51.859375 
L 19.046875 51.859375 
L 19.046875 41.84375 
z
M 9.03125 0 
L 9.03125 10.015625 
L 19.046875 10.015625 
L 19.046875 0 
z
" id="ArialMT-3a"/>
     </defs>
     <g style="fill:#303030;" transform="translate(572.53985 67.80625)scale(0.2 -0.2)">
      <use xlink:href="#ArialMT-31"/>
      <use x="55.615234375" xlink:href="#ArialMT-3a"/>
      <use x="83.3984375" xlink:href="#ArialMT-2d"/>
      <use x="116.69921875" xlink:href="#ArialMT-32"/>
     </g>
    </g>
    <g id="patch_6">
     <path d="M 516.53985 96.096875 
L 556.53985 96.096875 
L 556.53985 82.096875 
L 516.53985 82.096875 
z
" style="fill:#5d5d5d;opacity:0.7;stroke:#ffffff;stroke-linejoin:miter;stroke-width:0.16000000000000003;"/>
    </g>
    <g id="text_14">
     <!-- 1:-1 -->
     <g style="fill:#303030;" transform="translate(572.53985 96.096875)scale(0.2 -0.2)">
      <use xlink:href="#ArialMT-31"/>
      <use x="55.615234375" xlink:href="#ArialMT-3a"/>
      <use x="83.3984375" xlink:href="#ArialMT-2d"/>
      <use x="116.69921875" xlink:href="#ArialMT-31"/>
     </g>
    </g>
    <g id="patch_7">
     <path d="M 516.53985 124.3875 
L 556.53985 124.3875 
L 556.53985 110.3875 
L 516.53985 110.3875 
z
" style="fill:#7b7b7b;opacity:0.5;stroke:#ffffff;stroke-linejoin:miter;stroke-width:0.16000000000000003;"/>
    </g>
    <g id="text_15">
     <!-- 2:-1 -->
     <g style="fill:#303030;" transform="translate(572.53985 124.3875)scale(0.2 -0.2)">
      <use xlink:href="#ArialMT-32"/>
      <use x="55.615234375" xlink:href="#ArialMT-3a"/>
      <use x="83.3984375" xlink:href="#ArialMT-2d"/>
      <use x="116.69921875" xlink:href="#ArialMT-31"/>
     </g>
    </g>
    <g id="patch_8">
     <path d="M 516.53985 152.678125 
L 556.53985 152.678125 
L 556.53985 138.678125 
L 516.53985 138.678125 
z
" style="fill:#a1a1a1;opacity:0.3;stroke:#ffffff;stroke-linejoin:miter;stroke-width:0.16000000000000003;"/>
    </g>
    <g id="text_16">
     <!-- 4:-1 -->
     <g style="fill:#303030;" transform="translate(572.53985 152.678125)scale(0.2 -0.2)">
      <use xlink:href="#ArialMT-34"/>
      <use x="55.615234375" xlink:href="#ArialMT-3a"/>
      <use x="83.3984375" xlink:href="#ArialMT-2d"/>
      <use x="116.69921875" xlink:href="#ArialMT-31"/>
     </g>
    </g>
   </g>
  </g>
 </g>
 <defs>
  <clipPath id="p08db483650">
   <rect height="351.57575" width="434.29075" x="60.42125" y="7.2"/>
  </clipPath>
 </defs>
</svg>
