<?xml version="1.0" encoding="utf-8" standalone="no"?>
<!DOCTYPE svg PUBLIC "-//W3C//DTD SVG 1.1//EN"
  "http://www.w3.org/Graphics/SVG/1.1/DTD/svg11.dtd">
<!-- Created with matplotlib (http://matplotlib.org/) -->
<svg height="415pt" version="1.1" viewBox="0 0 622 415" width="622pt" xmlns="http://www.w3.org/2000/svg" xmlns:xlink="http://www.w3.org/1999/xlink">
 <defs>
  <style type="text/css">
*{stroke-linecap:butt;stroke-linejoin:round;stroke-miterlimit:100000;}
  </style>
 </defs>
 <g id="figure_1">
  <g id="patch_1">
   <path d="M -0 415.512 
L 622.199225 415.512 
L 622.199225 0 
L -0 0 
z
" style="fill:#ffffff;"/>
  </g>
  <g id="axes_1">
   <g id="patch_2">
    <path d="M 60.42125 358.77575 
L 494.712 358.77575 
L 494.712 16.345312 
L 60.42125 16.345312 
z
" style="fill:#ffffff;"/>
   </g>
   <g id="matplotlib.axis_1">
    <g id="xtick_1">
     <g id="line2d_1">
      <defs>
       <path d="M 0 0 
L 0 0 
" id="m7a062951ec" style="stroke:#303030;stroke-width:0.8;"/>
      </defs>
      <g>
       <use style="fill:#303030;stroke:#303030;stroke-width:0.8;" x="102.496796453" xlink:href="#m7a062951ec" y="358.77575"/>
      </g>
     </g>
     <g id="text_1">
      <!-- 0.4 -->
      <defs>
       <path d="M 9.078125 0 
L 9.078125 10.015625 
L 19.09375 10.015625 
L 19.09375 0 
z
" id="ArialMT-2e"/>
       <path d="M 32.328125 0 
L 32.328125 17.140625 
L 1.265625 17.140625 
L 1.265625 25.203125 
L 33.9375 71.578125 
L 41.109375 71.578125 
L 41.109375 25.203125 
L 50.78125 25.203125 
L 50.78125 17.140625 
L 41.109375 17.140625 
L 41.109375 0 
z
M 32.328125 25.203125 
L 32.328125 57.46875 
L 9.90625 25.203125 
z
" id="ArialMT-34"/>
       <path d="M 4.15625 35.296875 
Q 4.15625 48 6.765625 55.734375 
Q 9.375 63.484375 14.515625 67.671875 
Q 19.671875 71.875 27.484375 71.875 
Q 33.25 71.875 37.59375 69.546875 
Q 41.9375 67.234375 44.765625 62.859375 
Q 47.609375 58.5 49.21875 52.21875 
Q 50.828125 45.953125 50.828125 35.296875 
Q 50.828125 22.703125 48.234375 14.96875 
Q 45.65625 7.234375 40.5 3 
Q 35.359375 -1.21875 27.484375 -1.21875 
Q 17.140625 -1.21875 11.234375 6.203125 
Q 4.15625 15.140625 4.15625 35.296875 
M 13.1875 35.296875 
Q 13.1875 17.671875 17.3125 11.828125 
Q 21.4375 6 27.484375 6 
Q 33.546875 6 37.671875 11.859375 
Q 41.796875 17.71875 41.796875 35.296875 
Q 41.796875 52.984375 37.671875 58.78125 
Q 33.546875 64.59375 27.390625 64.59375 
Q 21.34375 64.59375 17.71875 59.46875 
Q 13.1875 52.9375 13.1875 35.296875 
" id="ArialMT-30"/>
      </defs>
      <g style="fill:#303030;" transform="translate(88.5967964534 378.691375)scale(0.2 -0.2)">
       <use xlink:href="#ArialMT-30"/>
       <use x="55.615234375" xlink:href="#ArialMT-2e"/>
       <use x="83.3984375" xlink:href="#ArialMT-34"/>
      </g>
     </g>
    </g>
    <g id="xtick_2">
     <g id="line2d_2">
      <g>
       <use style="fill:#303030;stroke:#303030;stroke-width:0.8;" x="189.643080793" xlink:href="#m7a062951ec" y="358.77575"/>
      </g>
     </g>
     <g id="text_2">
      <!-- 0.45 -->
      <defs>
       <path d="M 4.15625 18.75 
L 13.375 19.53125 
Q 14.40625 12.796875 18.140625 9.390625 
Q 21.875 6 27.15625 6 
Q 33.5 6 37.890625 10.78125 
Q 42.28125 15.578125 42.28125 23.484375 
Q 42.28125 31 38.0625 35.34375 
Q 33.84375 39.703125 27 39.703125 
Q 22.75 39.703125 19.328125 37.765625 
Q 15.921875 35.84375 13.96875 32.765625 
L 5.71875 33.84375 
L 12.640625 70.609375 
L 48.25 70.609375 
L 48.25 62.203125 
L 19.671875 62.203125 
L 15.828125 42.96875 
Q 22.265625 47.46875 29.34375 47.46875 
Q 38.71875 47.46875 45.15625 40.96875 
Q 51.609375 34.46875 51.609375 24.265625 
Q 51.609375 14.546875 45.953125 7.46875 
Q 39.0625 -1.21875 27.15625 -1.21875 
Q 17.390625 -1.21875 11.203125 4.25 
Q 5.03125 9.71875 4.15625 18.75 
" id="ArialMT-35"/>
      </defs>
      <g style="fill:#303030;" transform="translate(170.182143293 378.691375)scale(0.2 -0.2)">
       <use xlink:href="#ArialMT-30"/>
       <use x="55.615234375" xlink:href="#ArialMT-2e"/>
       <use x="83.3984375" xlink:href="#ArialMT-34"/>
       <use x="139.013671875" xlink:href="#ArialMT-35"/>
      </g>
     </g>
    </g>
    <g id="xtick_3">
     <g id="line2d_3">
      <g>
       <use style="fill:#303030;stroke:#303030;stroke-width:0.8;" x="276.789365132" xlink:href="#m7a062951ec" y="358.77575"/>
      </g>
     </g>
     <g id="text_3">
      <!-- 0.5 -->
      <g style="fill:#303030;" transform="translate(262.889365132 378.691375)scale(0.2 -0.2)">
       <use xlink:href="#ArialMT-30"/>
       <use x="55.615234375" xlink:href="#ArialMT-2e"/>
       <use x="83.3984375" xlink:href="#ArialMT-35"/>
      </g>
     </g>
    </g>
    <g id="xtick_4">
     <g id="line2d_4">
      <g>
       <use style="fill:#303030;stroke:#303030;stroke-width:0.8;" x="363.935649471" xlink:href="#m7a062951ec" y="358.77575"/>
      </g>
     </g>
     <g id="text_4">
      <!-- 0.55 -->
      <g style="fill:#303030;" transform="translate(344.474711971 378.691375)scale(0.2 -0.2)">
       <use xlink:href="#ArialMT-30"/>
       <use x="55.615234375" xlink:href="#ArialMT-2e"/>
       <use x="83.3984375" xlink:href="#ArialMT-35"/>
       <use x="139.013671875" xlink:href="#ArialMT-35"/>
      </g>
     </g>
    </g>
    <g id="xtick_5">
     <g id="line2d_5">
      <g>
       <use style="fill:#303030;stroke:#303030;stroke-width:0.8;" x="451.081933811" xlink:href="#m7a062951ec" y="358.77575"/>
      </g>
     </g>
     <g id="text_5">
      <!-- 0.6 -->
      <defs>
       <path d="M 49.75 54.046875 
L 41.015625 53.375 
Q 39.84375 58.546875 37.703125 60.890625 
Q 34.125 64.65625 28.90625 64.65625 
Q 24.703125 64.65625 21.53125 62.3125 
Q 17.390625 59.28125 14.984375 53.46875 
Q 12.59375 47.65625 12.5 36.921875 
Q 15.671875 41.75 20.265625 44.09375 
Q 24.859375 46.4375 29.890625 46.4375 
Q 38.671875 46.4375 44.84375 39.96875 
Q 51.03125 33.5 51.03125 23.25 
Q 51.03125 16.5 48.125 10.71875 
Q 45.21875 4.9375 40.140625 1.859375 
Q 35.0625 -1.21875 28.609375 -1.21875 
Q 17.625 -1.21875 10.6875 6.859375 
Q 3.765625 14.9375 3.765625 33.5 
Q 3.765625 54.25 11.421875 63.671875 
Q 18.109375 71.875 29.4375 71.875 
Q 37.890625 71.875 43.28125 67.140625 
Q 48.6875 62.40625 49.75 54.046875 
M 13.875 23.1875 
Q 13.875 18.65625 15.796875 14.5 
Q 17.71875 10.359375 21.1875 8.171875 
Q 24.65625 6 28.46875 6 
Q 34.03125 6 38.03125 10.484375 
Q 42.046875 14.984375 42.046875 22.703125 
Q 42.046875 30.125 38.078125 34.390625 
Q 34.125 38.671875 28.125 38.671875 
Q 22.171875 38.671875 18.015625 34.390625 
Q 13.875 30.125 13.875 23.1875 
" id="ArialMT-36"/>
      </defs>
      <g style="fill:#303030;" transform="translate(437.181933811 378.691375)scale(0.2 -0.2)">
       <use xlink:href="#ArialMT-30"/>
       <use x="55.615234375" xlink:href="#ArialMT-2e"/>
       <use x="83.3984375" xlink:href="#ArialMT-36"/>
      </g>
     </g>
    </g>
    <g id="text_6">
     <!-- Starting Point (z) -->
     <defs>
      <path d="M 25.78125 7.859375 
L 27.046875 0.09375 
Q 23.34375 -0.6875 20.40625 -0.6875 
Q 15.625 -0.6875 12.984375 0.828125 
Q 10.359375 2.34375 9.28125 4.8125 
Q 8.203125 7.28125 8.203125 15.1875 
L 8.203125 45.015625 
L 1.765625 45.015625 
L 1.765625 51.859375 
L 8.203125 51.859375 
L 8.203125 64.703125 
L 16.9375 69.96875 
L 16.9375 51.859375 
L 25.78125 51.859375 
L 25.78125 45.015625 
L 16.9375 45.015625 
L 16.9375 14.703125 
Q 16.9375 10.9375 17.40625 9.859375 
Q 17.875 8.796875 18.921875 8.15625 
Q 19.96875 7.515625 21.921875 7.515625 
Q 23.390625 7.515625 25.78125 7.859375 
" id="ArialMT-74"/>
      <path id="ArialMT-20"/>
      <path d="M 1.953125 0 
L 1.953125 7.125 
L 34.96875 45.015625 
Q 29.34375 44.734375 25.046875 44.734375 
L 3.90625 44.734375 
L 3.90625 51.859375 
L 46.296875 51.859375 
L 46.296875 46.046875 
L 18.21875 13.140625 
L 12.796875 7.125 
Q 18.703125 7.5625 23.875 7.5625 
L 47.859375 7.5625 
L 47.859375 0 
z
" id="ArialMT-7a"/>
      <path d="M 6.59375 0 
L 6.59375 51.859375 
L 14.5 51.859375 
L 14.5 44.484375 
Q 20.21875 53.03125 31 53.03125 
Q 35.6875 53.03125 39.625 51.34375 
Q 43.5625 49.65625 45.515625 46.921875 
Q 47.46875 44.1875 48.25 40.4375 
Q 48.734375 37.984375 48.734375 31.890625 
L 48.734375 0 
L 39.9375 0 
L 39.9375 31.546875 
Q 39.9375 36.921875 38.90625 39.578125 
Q 37.890625 42.234375 35.28125 43.8125 
Q 32.671875 45.40625 29.15625 45.40625 
Q 23.53125 45.40625 19.453125 41.84375 
Q 15.375 38.28125 15.375 28.328125 
L 15.375 0 
z
" id="ArialMT-6e"/>
      <path d="M 6.640625 61.46875 
L 6.640625 71.578125 
L 15.4375 71.578125 
L 15.4375 61.46875 
z
M 6.640625 0 
L 6.640625 51.859375 
L 15.4375 51.859375 
L 15.4375 0 
z
" id="ArialMT-69"/>
      <path d="M 3.328125 25.921875 
Q 3.328125 40.328125 11.328125 47.265625 
Q 18.015625 53.03125 27.640625 53.03125 
Q 38.328125 53.03125 45.109375 46.015625 
Q 51.90625 39.015625 51.90625 26.65625 
Q 51.90625 16.65625 48.90625 10.90625 
Q 45.90625 5.171875 40.15625 2 
Q 34.421875 -1.171875 27.640625 -1.171875 
Q 16.75 -1.171875 10.03125 5.8125 
Q 3.328125 12.796875 3.328125 25.921875 
M 12.359375 25.921875 
Q 12.359375 15.96875 16.703125 11.015625 
Q 21.046875 6.0625 27.640625 6.0625 
Q 34.1875 6.0625 38.53125 11.03125 
Q 42.875 16.015625 42.875 26.21875 
Q 42.875 35.84375 38.5 40.796875 
Q 34.125 45.75 27.640625 45.75 
Q 21.046875 45.75 16.703125 40.8125 
Q 12.359375 35.890625 12.359375 25.921875 
" id="ArialMT-6f"/>
      <path d="M 12.359375 -21.046875 
L 6.0625 -21.046875 
Q 20.65625 2.390625 20.65625 25.875 
Q 20.65625 35.0625 18.5625 44.09375 
Q 16.890625 51.421875 13.921875 58.15625 
Q 12.015625 62.546875 6.0625 72.796875 
L 12.359375 72.796875 
Q 21.53125 60.546875 25.921875 48.1875 
Q 29.6875 37.546875 29.6875 25.921875 
Q 29.6875 12.75 24.625 0.4375 
Q 19.578125 -11.859375 12.359375 -21.046875 
" id="ArialMT-29"/>
      <path d="M 7.71875 0 
L 7.71875 71.578125 
L 34.71875 71.578125 
Q 41.84375 71.578125 45.609375 70.90625 
Q 50.875 70.015625 54.4375 67.546875 
Q 58.015625 65.09375 60.1875 60.640625 
Q 62.359375 56.203125 62.359375 50.875 
Q 62.359375 41.75 56.546875 35.421875 
Q 50.734375 29.109375 35.546875 29.109375 
L 17.1875 29.109375 
L 17.1875 0 
z
M 17.1875 37.546875 
L 35.6875 37.546875 
Q 44.875 37.546875 48.734375 40.96875 
Q 52.59375 44.390625 52.59375 50.59375 
Q 52.59375 55.078125 50.3125 58.265625 
Q 48.046875 61.46875 44.34375 62.5 
Q 41.9375 63.140625 35.5 63.140625 
L 17.1875 63.140625 
z
" id="ArialMT-50"/>
      <path d="M 6.5 0 
L 6.5 51.859375 
L 14.40625 51.859375 
L 14.40625 44 
Q 17.4375 49.515625 20 51.265625 
Q 22.5625 53.03125 25.640625 53.03125 
Q 30.078125 53.03125 34.671875 50.203125 
L 31.640625 42.046875 
Q 28.421875 43.953125 25.203125 43.953125 
Q 22.3125 43.953125 20.015625 42.21875 
Q 17.71875 40.484375 16.75 37.40625 
Q 15.28125 32.71875 15.28125 27.15625 
L 15.28125 0 
z
" id="ArialMT-72"/>
      <path d="M 4.5 23 
L 13.421875 23.78125 
Q 14.0625 18.40625 16.375 14.96875 
Q 18.703125 11.53125 23.578125 9.40625 
Q 28.46875 7.28125 34.578125 7.28125 
Q 39.984375 7.28125 44.140625 8.890625 
Q 48.296875 10.5 50.3125 13.296875 
Q 52.34375 16.109375 52.34375 19.4375 
Q 52.34375 22.796875 50.390625 25.3125 
Q 48.4375 27.828125 43.953125 29.546875 
Q 41.0625 30.671875 31.203125 33.03125 
Q 21.34375 35.40625 17.390625 37.5 
Q 12.25 40.1875 9.734375 44.15625 
Q 7.234375 48.140625 7.234375 53.078125 
Q 7.234375 58.5 10.296875 63.203125 
Q 13.375 67.921875 19.28125 70.359375 
Q 25.203125 72.796875 32.421875 72.796875 
Q 40.375 72.796875 46.453125 70.234375 
Q 52.546875 67.671875 55.8125 62.6875 
Q 59.078125 57.71875 59.328125 51.421875 
L 50.25 50.734375 
Q 49.515625 57.515625 45.28125 60.984375 
Q 41.0625 64.453125 32.8125 64.453125 
Q 24.21875 64.453125 20.28125 61.296875 
Q 16.359375 58.15625 16.359375 53.71875 
Q 16.359375 49.859375 19.140625 47.359375 
Q 21.875 44.875 33.421875 42.265625 
Q 44.96875 39.65625 49.265625 37.703125 
Q 55.515625 34.8125 58.484375 30.390625 
Q 61.46875 25.984375 61.46875 20.21875 
Q 61.46875 14.5 58.203125 9.4375 
Q 54.9375 4.390625 48.796875 1.578125 
Q 42.671875 -1.21875 35.015625 -1.21875 
Q 25.296875 -1.21875 18.71875 1.609375 
Q 12.15625 4.4375 8.421875 10.125 
Q 4.6875 15.828125 4.5 23 
" id="ArialMT-53"/>
      <path d="M 23.390625 -21.046875 
Q 16.109375 -11.859375 11.078125 0.4375 
Q 6.0625 12.75 6.0625 25.921875 
Q 6.0625 37.546875 9.8125 48.1875 
Q 14.203125 60.546875 23.390625 72.796875 
L 29.6875 72.796875 
Q 23.78125 62.640625 21.875 58.296875 
Q 18.890625 51.5625 17.1875 44.234375 
Q 15.09375 35.109375 15.09375 25.875 
Q 15.09375 2.390625 29.6875 -21.046875 
z
" id="ArialMT-28"/>
      <path d="M 4.984375 -4.296875 
L 13.53125 -5.5625 
Q 14.0625 -9.515625 16.5 -11.328125 
Q 19.78125 -13.765625 25.4375 -13.765625 
Q 31.546875 -13.765625 34.859375 -11.328125 
Q 38.1875 -8.890625 39.359375 -4.5 
Q 40.046875 -1.8125 39.984375 6.78125 
Q 34.234375 0 25.640625 0 
Q 14.9375 0 9.078125 7.71875 
Q 3.21875 15.4375 3.21875 26.21875 
Q 3.21875 33.640625 5.90625 39.90625 
Q 8.59375 46.1875 13.6875 49.609375 
Q 18.796875 53.03125 25.6875 53.03125 
Q 34.859375 53.03125 40.828125 45.609375 
L 40.828125 51.859375 
L 48.921875 51.859375 
L 48.921875 7.03125 
Q 48.921875 -5.078125 46.453125 -10.125 
Q 44 -15.1875 38.640625 -18.109375 
Q 33.296875 -21.046875 25.484375 -21.046875 
Q 16.21875 -21.046875 10.5 -16.875 
Q 4.78125 -12.703125 4.984375 -4.296875 
M 12.25 26.859375 
Q 12.25 16.65625 16.296875 11.96875 
Q 20.359375 7.28125 26.46875 7.28125 
Q 32.515625 7.28125 36.609375 11.9375 
Q 40.71875 16.609375 40.71875 26.5625 
Q 40.71875 36.078125 36.5 40.90625 
Q 32.28125 45.75 26.3125 45.75 
Q 20.453125 45.75 16.34375 40.984375 
Q 12.25 36.234375 12.25 26.859375 
" id="ArialMT-67"/>
      <path d="M 40.4375 6.390625 
Q 35.546875 2.25 31.03125 0.53125 
Q 26.515625 -1.171875 21.34375 -1.171875 
Q 12.796875 -1.171875 8.203125 3 
Q 3.609375 7.171875 3.609375 13.671875 
Q 3.609375 17.484375 5.34375 20.625 
Q 7.078125 23.78125 9.890625 25.6875 
Q 12.703125 27.59375 16.21875 28.5625 
Q 18.796875 29.25 24.03125 29.890625 
Q 34.671875 31.15625 39.703125 32.90625 
Q 39.75 34.71875 39.75 35.203125 
Q 39.75 40.578125 37.25 42.78125 
Q 33.890625 45.75 27.25 45.75 
Q 21.046875 45.75 18.09375 43.578125 
Q 15.140625 41.40625 13.71875 35.890625 
L 5.125 37.0625 
Q 6.296875 42.578125 8.984375 45.96875 
Q 11.671875 49.359375 16.75 51.1875 
Q 21.828125 53.03125 28.515625 53.03125 
Q 35.15625 53.03125 39.296875 51.46875 
Q 43.453125 49.90625 45.40625 47.53125 
Q 47.359375 45.171875 48.140625 41.546875 
Q 48.578125 39.3125 48.578125 33.453125 
L 48.578125 21.734375 
Q 48.578125 9.46875 49.140625 6.21875 
Q 49.703125 2.984375 51.375 0 
L 42.1875 0 
Q 40.828125 2.734375 40.4375 6.390625 
M 39.703125 26.03125 
Q 34.90625 24.078125 25.34375 22.703125 
Q 19.921875 21.921875 17.671875 20.9375 
Q 15.4375 19.96875 14.203125 18.09375 
Q 12.984375 16.21875 12.984375 13.921875 
Q 12.984375 10.40625 15.640625 8.0625 
Q 18.3125 5.71875 23.4375 5.71875 
Q 28.515625 5.71875 32.46875 7.9375 
Q 36.421875 10.15625 38.28125 14.015625 
Q 39.703125 17 39.703125 22.796875 
z
" id="ArialMT-61"/>
     </defs>
     <g style="fill:#303030;" transform="translate(195.651 403.6816875)scale(0.22 -0.22)">
      <use xlink:href="#ArialMT-53"/>
      <use x="66.69921875" xlink:href="#ArialMT-74"/>
      <use x="94.482421875" xlink:href="#ArialMT-61"/>
      <use x="150.09765625" xlink:href="#ArialMT-72"/>
      <use x="183.3984375" xlink:href="#ArialMT-74"/>
      <use x="211.181640625" xlink:href="#ArialMT-69"/>
      <use x="233.3984375" xlink:href="#ArialMT-6e"/>
      <use x="289.013671875" xlink:href="#ArialMT-67"/>
      <use x="344.62890625" xlink:href="#ArialMT-20"/>
      <use x="372.412109375" xlink:href="#ArialMT-50"/>
      <use x="439.111328125" xlink:href="#ArialMT-6f"/>
      <use x="494.7265625" xlink:href="#ArialMT-69"/>
      <use x="516.943359375" xlink:href="#ArialMT-6e"/>
      <use x="572.55859375" xlink:href="#ArialMT-74"/>
      <use x="600.341796875" xlink:href="#ArialMT-20"/>
      <use x="628.125" xlink:href="#ArialMT-28"/>
      <use x="661.42578125" xlink:href="#ArialMT-7a"/>
      <use x="711.42578125" xlink:href="#ArialMT-29"/>
     </g>
    </g>
   </g>
   <g id="matplotlib.axis_2">
    <g id="ytick_1">
     <g id="line2d_6">
      <path clip-path="url(#p46388a424d)" d="M 60.42125 358.77575 
L 494.712 358.77575 
" style="fill:none;stroke:#e5e5f7;stroke-linecap:round;stroke-width:1.1199999999999999;"/>
     </g>
     <g id="line2d_7">
      <g>
       <use style="fill:#303030;stroke:#303030;stroke-width:0.8;" x="60.42125" xlink:href="#m7a062951ec" y="358.77575"/>
      </g>
     </g>
     <g id="text_7">
      <!-- 0 -->
      <g style="fill:#303030;" transform="translate(43.699375 363.9460625)scale(0.2 -0.2)">
       <use xlink:href="#ArialMT-30"/>
      </g>
     </g>
    </g>
    <g id="ytick_2">
     <g id="line2d_8">
      <path clip-path="url(#p46388a424d)" d="M 60.42125 273.168141 
L 494.712 273.168141 
" style="fill:none;stroke:#e5e5f7;stroke-linecap:round;stroke-width:1.1199999999999999;"/>
     </g>
     <g id="line2d_9">
      <g>
       <use style="fill:#303030;stroke:#303030;stroke-width:0.8;" x="60.42125" xlink:href="#m7a062951ec" y="273.168140625"/>
      </g>
     </g>
     <g id="text_8">
      <!-- 5 -->
      <g style="fill:#303030;" transform="translate(43.699375 278.338453125)scale(0.2 -0.2)">
       <use xlink:href="#ArialMT-35"/>
      </g>
     </g>
    </g>
    <g id="ytick_3">
     <g id="line2d_10">
      <path clip-path="url(#p46388a424d)" d="M 60.42125 187.560531 
L 494.712 187.560531 
" style="fill:none;stroke:#e5e5f7;stroke-linecap:round;stroke-width:1.1199999999999999;"/>
     </g>
     <g id="line2d_11">
      <g>
       <use style="fill:#303030;stroke:#303030;stroke-width:0.8;" x="60.42125" xlink:href="#m7a062951ec" y="187.56053125"/>
      </g>
     </g>
     <g id="text_9">
      <!-- 10 -->
      <defs>
       <path d="M 37.25 0 
L 28.46875 0 
L 28.46875 56 
Q 25.296875 52.984375 20.140625 49.953125 
Q 14.984375 46.921875 10.890625 45.40625 
L 10.890625 53.90625 
Q 18.265625 57.375 23.78125 62.296875 
Q 29.296875 67.234375 31.59375 71.875 
L 37.25 71.875 
z
" id="ArialMT-31"/>
      </defs>
      <g style="fill:#303030;" transform="translate(32.5775 192.73084375)scale(0.2 -0.2)">
       <use xlink:href="#ArialMT-31"/>
       <use x="55.615234375" xlink:href="#ArialMT-30"/>
      </g>
     </g>
    </g>
    <g id="ytick_4">
     <g id="line2d_12">
      <path clip-path="url(#p46388a424d)" d="M 60.42125 101.952922 
L 494.712 101.952922 
" style="fill:none;stroke:#e5e5f7;stroke-linecap:round;stroke-width:1.1199999999999999;"/>
     </g>
     <g id="line2d_13">
      <g>
       <use style="fill:#303030;stroke:#303030;stroke-width:0.8;" x="60.42125" xlink:href="#m7a062951ec" y="101.952921875"/>
      </g>
     </g>
     <g id="text_10">
      <!-- 15 -->
      <g style="fill:#303030;" transform="translate(32.5775 107.123234375)scale(0.2 -0.2)">
       <use xlink:href="#ArialMT-31"/>
       <use x="55.615234375" xlink:href="#ArialMT-35"/>
      </g>
     </g>
    </g>
    <g id="ytick_5">
     <g id="line2d_14">
      <path clip-path="url(#p46388a424d)" d="M 60.42125 16.345312 
L 494.712 16.345312 
" style="fill:none;stroke:#e5e5f7;stroke-linecap:round;stroke-width:1.1199999999999999;"/>
     </g>
     <g id="line2d_15">
      <g>
       <use style="fill:#303030;stroke:#303030;stroke-width:0.8;" x="60.42125" xlink:href="#m7a062951ec" y="16.3453125"/>
      </g>
     </g>
     <g id="text_11">
      <!-- 20 -->
      <defs>
       <path d="M 50.34375 8.453125 
L 50.34375 0 
L 3.03125 0 
Q 2.9375 3.171875 4.046875 6.109375 
Q 5.859375 10.9375 9.828125 15.625 
Q 13.8125 20.3125 21.34375 26.46875 
Q 33.015625 36.03125 37.109375 41.625 
Q 41.21875 47.21875 41.21875 52.203125 
Q 41.21875 57.421875 37.46875 61 
Q 33.734375 64.59375 27.734375 64.59375 
Q 21.390625 64.59375 17.578125 60.78125 
Q 13.765625 56.984375 13.71875 50.25 
L 4.6875 51.171875 
Q 5.609375 61.28125 11.65625 66.578125 
Q 17.71875 71.875 27.9375 71.875 
Q 38.234375 71.875 44.234375 66.15625 
Q 50.25 60.453125 50.25 52 
Q 50.25 47.703125 48.484375 43.546875 
Q 46.734375 39.40625 42.65625 34.8125 
Q 38.578125 30.21875 29.109375 22.21875 
Q 21.1875 15.578125 18.9375 13.203125 
Q 16.703125 10.84375 15.234375 8.453125 
z
" id="ArialMT-32"/>
      </defs>
      <g style="fill:#303030;" transform="translate(32.5775 21.515625)scale(0.2 -0.2)">
       <use xlink:href="#ArialMT-32"/>
       <use x="55.615234375" xlink:href="#ArialMT-30"/>
      </g>
     </g>
    </g>
    <g id="text_12">
     <!-- Density -->
     <defs>
      <path d="M 6.203125 -19.96875 
L 5.21875 -11.71875 
Q 8.109375 -12.5 10.25 -12.5 
Q 13.1875 -12.5 14.9375 -11.515625 
Q 16.703125 -10.546875 17.828125 -8.796875 
Q 18.65625 -7.46875 20.515625 -2.25 
Q 20.75 -1.515625 21.296875 -0.09375 
L 1.609375 51.859375 
L 11.078125 51.859375 
L 21.875 21.828125 
Q 23.96875 16.109375 25.640625 9.8125 
Q 27.15625 15.875 29.25 21.625 
L 40.328125 51.859375 
L 49.125 51.859375 
L 29.390625 -0.875 
Q 26.21875 -9.421875 24.46875 -12.640625 
Q 22.125 -17 19.09375 -19.015625 
Q 16.0625 -21.046875 11.859375 -21.046875 
Q 9.328125 -21.046875 6.203125 -19.96875 
" id="ArialMT-79"/>
      <path d="M 42.09375 16.703125 
L 51.171875 15.578125 
Q 49.03125 7.625 43.21875 3.21875 
Q 37.40625 -1.171875 28.375 -1.171875 
Q 17 -1.171875 10.328125 5.828125 
Q 3.65625 12.84375 3.65625 25.484375 
Q 3.65625 38.578125 10.390625 45.796875 
Q 17.140625 53.03125 27.875 53.03125 
Q 38.28125 53.03125 44.875 45.953125 
Q 51.46875 38.875 51.46875 26.03125 
Q 51.46875 25.25 51.421875 23.6875 
L 12.75 23.6875 
Q 13.234375 15.140625 17.578125 10.59375 
Q 21.921875 6.0625 28.421875 6.0625 
Q 33.25 6.0625 36.671875 8.59375 
Q 40.09375 11.140625 42.09375 16.703125 
M 13.234375 30.90625 
L 42.1875 30.90625 
Q 41.609375 37.453125 38.875 40.71875 
Q 34.671875 45.796875 27.984375 45.796875 
Q 21.921875 45.796875 17.796875 41.75 
Q 13.671875 37.703125 13.234375 30.90625 
" id="ArialMT-65"/>
      <path d="M 7.71875 0 
L 7.71875 71.578125 
L 32.375 71.578125 
Q 40.71875 71.578125 45.125 70.5625 
Q 51.265625 69.140625 55.609375 65.4375 
Q 61.28125 60.640625 64.078125 53.1875 
Q 66.890625 45.75 66.890625 36.1875 
Q 66.890625 28.03125 64.984375 21.734375 
Q 63.09375 15.4375 60.109375 11.296875 
Q 57.125 7.171875 53.578125 4.796875 
Q 50.046875 2.4375 45.046875 1.21875 
Q 40.046875 0 33.546875 0 
z
M 17.1875 8.453125 
L 32.46875 8.453125 
Q 39.546875 8.453125 43.578125 9.765625 
Q 47.609375 11.078125 50 13.484375 
Q 53.375 16.84375 55.25 22.53125 
Q 57.125 28.21875 57.125 36.328125 
Q 57.125 47.5625 53.4375 53.59375 
Q 49.75 59.625 44.484375 61.671875 
Q 40.671875 63.140625 32.234375 63.140625 
L 17.1875 63.140625 
z
" id="ArialMT-44"/>
      <path d="M 3.078125 15.484375 
L 11.765625 16.84375 
Q 12.5 11.625 15.84375 8.84375 
Q 19.1875 6.0625 25.203125 6.0625 
Q 31.25 6.0625 34.171875 8.515625 
Q 37.109375 10.984375 37.109375 14.3125 
Q 37.109375 17.28125 34.515625 19 
Q 32.71875 20.171875 25.53125 21.96875 
Q 15.875 24.421875 12.140625 26.203125 
Q 8.40625 27.984375 6.46875 31.125 
Q 4.546875 34.28125 4.546875 38.09375 
Q 4.546875 41.546875 6.125 44.5 
Q 7.71875 47.46875 10.453125 49.421875 
Q 12.5 50.921875 16.03125 51.96875 
Q 19.578125 53.03125 23.640625 53.03125 
Q 29.734375 53.03125 34.34375 51.265625 
Q 38.96875 49.515625 41.15625 46.5 
Q 43.359375 43.5 44.1875 38.484375 
L 35.59375 37.3125 
Q 35.015625 41.3125 32.203125 43.546875 
Q 29.390625 45.796875 24.265625 45.796875 
Q 18.21875 45.796875 15.625 43.796875 
Q 13.03125 41.796875 13.03125 39.109375 
Q 13.03125 37.40625 14.109375 36.03125 
Q 15.1875 34.625 17.484375 33.6875 
Q 18.796875 33.203125 25.25 31.453125 
Q 34.578125 28.953125 38.25 27.359375 
Q 41.9375 25.78125 44.03125 22.75 
Q 46.140625 19.734375 46.140625 15.234375 
Q 46.140625 10.84375 43.578125 6.953125 
Q 41.015625 3.078125 36.171875 0.953125 
Q 31.34375 -1.171875 25.25 -1.171875 
Q 15.140625 -1.171875 9.84375 3.03125 
Q 4.546875 7.234375 3.078125 15.484375 
" id="ArialMT-73"/>
     </defs>
     <g style="fill:#303030;" transform="translate(22.9471875 224.23865625)rotate(-90.0)scale(0.22 -0.22)">
      <use xlink:href="#ArialMT-44"/>
      <use x="72.216796875" xlink:href="#ArialMT-65"/>
      <use x="127.83203125" xlink:href="#ArialMT-6e"/>
      <use x="183.447265625" xlink:href="#ArialMT-73"/>
      <use x="233.447265625" xlink:href="#ArialMT-69"/>
      <use x="255.6640625" xlink:href="#ArialMT-74"/>
      <use x="283.447265625" xlink:href="#ArialMT-79"/>
     </g>
    </g>
   </g>
   <g id="PolyCollection_1">
    <defs>
     <path d="M 135.454863 -56.746883 
L 135.454863 -56.73625 
L 138.28366 -56.73625 
L 141.112456 -56.73625 
L 143.941252 -56.73625 
L 146.770049 -56.73625 
L 149.598845 -56.73625 
L 152.427641 -56.73625 
L 155.256438 -56.73625 
L 158.085234 -56.73625 
L 160.91403 -56.73625 
L 163.742827 -56.73625 
L 166.571623 -56.73625 
L 169.400419 -56.73625 
L 172.229216 -56.73625 
L 175.058012 -56.73625 
L 177.886809 -56.73625 
L 180.715605 -56.73625 
L 183.544401 -56.73625 
L 186.373198 -56.73625 
L 189.201994 -56.73625 
L 192.03079 -56.73625 
L 194.859587 -56.73625 
L 197.688383 -56.73625 
L 200.517179 -56.73625 
L 203.345976 -56.73625 
L 206.174772 -56.73625 
L 209.003568 -56.73625 
L 211.832365 -56.73625 
L 214.661161 -56.73625 
L 217.489957 -56.73625 
L 220.318754 -56.73625 
L 223.14755 -56.73625 
L 225.976347 -56.73625 
L 228.805143 -56.73625 
L 231.633939 -56.73625 
L 234.462736 -56.73625 
L 237.291532 -56.73625 
L 240.120328 -56.73625 
L 242.949125 -56.73625 
L 245.777921 -56.73625 
L 248.606717 -56.73625 
L 251.435514 -56.73625 
L 254.26431 -56.73625 
L 257.093106 -56.73625 
L 259.921903 -56.73625 
L 262.750699 -56.73625 
L 265.579495 -56.73625 
L 268.408292 -56.73625 
L 271.237088 -56.73625 
L 274.065884 -56.73625 
L 276.894681 -56.73625 
L 279.723477 -56.73625 
L 282.552274 -56.73625 
L 285.38107 -56.73625 
L 288.209866 -56.73625 
L 291.038663 -56.73625 
L 293.867459 -56.73625 
L 296.696255 -56.73625 
L 299.525052 -56.73625 
L 302.353848 -56.73625 
L 305.182644 -56.73625 
L 308.011441 -56.73625 
L 310.840237 -56.73625 
L 313.669033 -56.73625 
L 316.49783 -56.73625 
L 319.326626 -56.73625 
L 322.155422 -56.73625 
L 324.984219 -56.73625 
L 327.813015 -56.73625 
L 330.641812 -56.73625 
L 333.470608 -56.73625 
L 336.299404 -56.73625 
L 339.128201 -56.73625 
L 341.956997 -56.73625 
L 344.785793 -56.73625 
L 347.61459 -56.73625 
L 350.443386 -56.73625 
L 353.272182 -56.73625 
L 356.100979 -56.73625 
L 358.929775 -56.73625 
L 361.758571 -56.73625 
L 364.587368 -56.73625 
L 367.416164 -56.73625 
L 370.24496 -56.73625 
L 373.073757 -56.73625 
L 375.902553 -56.73625 
L 378.73135 -56.73625 
L 381.560146 -56.73625 
L 384.388942 -56.73625 
L 387.217739 -56.73625 
L 390.046535 -56.73625 
L 392.875331 -56.73625 
L 395.704128 -56.73625 
L 398.532924 -56.73625 
L 401.36172 -56.73625 
L 404.190517 -56.73625 
L 407.019313 -56.73625 
L 409.848109 -56.73625 
L 412.676906 -56.73625 
L 415.505702 -56.73625 
L 418.334498 -56.73625 
L 421.163295 -56.73625 
L 423.992091 -56.73625 
L 426.820888 -56.73625 
L 429.649684 -56.73625 
L 432.47848 -56.73625 
L 435.307277 -56.73625 
L 438.136073 -56.73625 
L 440.964869 -56.73625 
L 443.793666 -56.73625 
L 446.622462 -56.73625 
L 449.451258 -56.73625 
L 452.280055 -56.73625 
L 455.108851 -56.73625 
L 457.937647 -56.73625 
L 460.766444 -56.73625 
L 463.59524 -56.73625 
L 466.424036 -56.73625 
L 469.252833 -56.73625 
L 472.081629 -56.73625 
L 474.910426 -56.73625 
L 477.739222 -56.73625 
L 480.568018 -56.73625 
L 483.396815 -56.73625 
L 486.225611 -56.73625 
L 489.054407 -56.73625 
L 491.883204 -56.73625 
L 494.712 -56.73625 
L 494.712 -56.74666 
L 494.712 -56.74666 
L 491.883204 -56.753892 
L 489.054407 -56.770843 
L 486.225611 -56.801703 
L 483.396815 -56.851281 
L 480.568018 -56.922876 
L 477.739222 -57.015703 
L 474.910426 -57.122995 
L 472.081629 -57.23227 
L 469.252833 -57.328627 
L 466.424036 -57.400351 
L 463.59524 -57.444404 
L 460.766444 -57.468972 
L 457.937647 -57.491763 
L 455.108851 -57.535538 
L 452.280055 -57.624316 
L 449.451258 -57.783049 
L 446.622462 -58.040442 
L 443.793666 -58.431134 
L 440.964869 -58.992614 
L 438.136073 -59.755325 
L 435.307277 -60.729886 
L 432.47848 -61.89936 
L 429.649684 -63.223742 
L 426.820888 -64.657842 
L 423.992091 -66.175845 
L 421.163295 -67.790968 
L 418.334498 -69.560597 
L 415.505702 -71.575379 
L 412.676906 -73.940066 
L 409.848109 -76.757935 
L 407.019313 -80.125719 
L 404.190517 -84.13527 
L 401.36172 -88.869582 
L 398.532924 -94.382548 
L 395.704128 -100.664545 
L 392.875331 -107.611536 
L 390.046535 -115.021703 
L 387.217739 -122.633801 
L 384.388942 -130.199979 
L 381.560146 -137.565689 
L 378.73135 -144.722687 
L 375.902553 -151.811456 
L 373.073757 -159.070471 
L 370.24496 -166.751379 
L 367.416164 -175.032848 
L 364.587368 -183.966371 
L 361.758571 -193.473453 
L 358.929775 -203.389711 
L 356.100979 -213.52926 
L 353.272182 -223.736237 
L 350.443386 -233.905182 
L 347.61459 -243.97706 
L 344.785793 -253.931531 
L 341.956997 -263.785642 
L 339.128201 -273.584802 
L 336.299404 -283.361181 
L 333.470608 -293.05627 
L 330.641812 -302.446106 
L 327.813015 -311.131498 
L 324.984219 -318.630555 
L 322.155422 -324.544442 
L 319.326626 -328.706716 
L 316.49783 -331.222229 
L 313.669033 -332.365239 
L 310.840237 -332.397355 
L 308.011441 -331.419708 
L 305.182644 -329.350598 
L 302.353848 -326.034925 
L 299.525052 -321.404774 
L 296.696255 -315.581611 
L 293.867459 -308.856503 
L 291.038663 -301.568764 
L 288.209866 -293.965109 
L 285.38107 -286.122134 
L 282.552274 -277.963487 
L 279.723477 -269.34257 
L 276.894681 -260.133353 
L 274.065884 -250.285887 
L 271.237088 -239.838076 
L 268.408292 -228.901454 
L 265.579495 -217.641592 
L 262.750699 -206.260314 
L 259.921903 -194.974317 
L 257.093106 -183.985062 
L 254.26431 -173.445799 
L 251.435514 -163.44131 
L 248.606717 -153.993245 
L 245.777921 -145.088711 
L 242.949125 -136.713623 
L 240.120328 -128.869087 
L 237.291532 -121.562309 
L 234.462736 -114.783193 
L 231.633939 -108.488236 
L 228.805143 -102.60681 
L 225.976347 -97.067665 
L 223.14755 -91.82936 
L 220.318754 -86.896824 
L 217.489957 -82.316038 
L 214.661161 -78.151406 
L 211.832365 -74.457948 
L 209.003568 -71.260726 
L 206.174772 -68.548958 
L 203.345976 -66.285026 
L 200.517179 -64.422009 
L 197.688383 -62.91982 
L 194.859587 -61.751401 
L 192.03079 -60.896201 
L 189.201994 -60.325611 
L 186.373198 -59.989934 
L 183.544401 -59.815777 
L 180.715605 -59.716849 
L 177.886809 -59.613399 
L 175.058012 -59.450726 
L 172.229216 -59.208158 
L 169.400419 -58.895702 
L 166.571623 -58.542083 
L 163.742827 -58.181061 
L 160.91403 -57.841579 
L 158.085234 -57.543474 
L 155.256438 -57.297283 
L 152.427641 -57.105786 
L 149.598845 -56.965837 
L 146.770049 -56.870182 
L 143.941252 -56.809372 
L 141.112456 -56.773707 
L 138.28366 -56.754857 
L 135.454863 -56.746883 
z
" id="m4581ff92a4" style="stroke:#ffffff;stroke-opacity:0.9;stroke-width:0.16000000000000003;"/>
    </defs>
    <g clip-path="url(#p46388a424d)">
     <use style="fill:#484848;fill-opacity:0.9;stroke:#ffffff;stroke-opacity:0.9;stroke-width:0.16000000000000003;" x="0.0" xlink:href="#m4581ff92a4" y="415.512"/>
    </g>
   </g>
   <g id="PolyCollection_2">
    <defs>
     <path d="M 131.047575 -56.752134 
L 131.047575 -56.73625 
L 133.622867 -56.73625 
L 136.198159 -56.73625 
L 138.773451 -56.73625 
L 141.348743 -56.73625 
L 143.924035 -56.73625 
L 146.499327 -56.73625 
L 149.074619 -56.73625 
L 151.649911 -56.73625 
L 154.225203 -56.73625 
L 156.800495 -56.73625 
L 159.375787 -56.73625 
L 161.951079 -56.73625 
L 164.526371 -56.73625 
L 167.101663 -56.73625 
L 169.676955 -56.73625 
L 172.252246 -56.73625 
L 174.827538 -56.73625 
L 177.40283 -56.73625 
L 179.978122 -56.73625 
L 182.553414 -56.73625 
L 185.128706 -56.73625 
L 187.703998 -56.73625 
L 190.27929 -56.73625 
L 192.854582 -56.73625 
L 195.429874 -56.73625 
L 198.005166 -56.73625 
L 200.580458 -56.73625 
L 203.15575 -56.73625 
L 205.731042 -56.73625 
L 208.306334 -56.73625 
L 210.881626 -56.73625 
L 213.456918 -56.73625 
L 216.03221 -56.73625 
L 218.607502 -56.73625 
L 221.182794 -56.73625 
L 223.758086 -56.73625 
L 226.333378 -56.73625 
L 228.90867 -56.73625 
L 231.483962 -56.73625 
L 234.059254 -56.73625 
L 236.634546 -56.73625 
L 239.209838 -56.73625 
L 241.78513 -56.73625 
L 244.360422 -56.73625 
L 246.935714 -56.73625 
L 249.511006 -56.73625 
L 252.086298 -56.73625 
L 254.661589 -56.73625 
L 257.236881 -56.73625 
L 259.812173 -56.73625 
L 262.387465 -56.73625 
L 264.962757 -56.73625 
L 267.538049 -56.73625 
L 270.113341 -56.73625 
L 272.688633 -56.73625 
L 275.263925 -56.73625 
L 277.839217 -56.73625 
L 280.414509 -56.73625 
L 282.989801 -56.73625 
L 285.565093 -56.73625 
L 288.140385 -56.73625 
L 290.715677 -56.73625 
L 293.290969 -56.73625 
L 295.866261 -56.73625 
L 298.441553 -56.73625 
L 301.016845 -56.73625 
L 303.592137 -56.73625 
L 306.167429 -56.73625 
L 308.742721 -56.73625 
L 311.318013 -56.73625 
L 313.893305 -56.73625 
L 316.468597 -56.73625 
L 319.043889 -56.73625 
L 321.619181 -56.73625 
L 324.194473 -56.73625 
L 326.769765 -56.73625 
L 329.345057 -56.73625 
L 331.920349 -56.73625 
L 334.495641 -56.73625 
L 337.070932 -56.73625 
L 339.646224 -56.73625 
L 342.221516 -56.73625 
L 344.796808 -56.73625 
L 347.3721 -56.73625 
L 349.947392 -56.73625 
L 352.522684 -56.73625 
L 355.097976 -56.73625 
L 357.673268 -56.73625 
L 360.24856 -56.73625 
L 362.823852 -56.73625 
L 365.399144 -56.73625 
L 367.974436 -56.73625 
L 370.549728 -56.73625 
L 373.12502 -56.73625 
L 375.700312 -56.73625 
L 378.275604 -56.73625 
L 380.850896 -56.73625 
L 383.426188 -56.73625 
L 386.00148 -56.73625 
L 388.576772 -56.73625 
L 391.152064 -56.73625 
L 393.727356 -56.73625 
L 396.302648 -56.73625 
L 398.87794 -56.73625 
L 401.453232 -56.73625 
L 404.028524 -56.73625 
L 406.603816 -56.73625 
L 409.179108 -56.73625 
L 411.7544 -56.73625 
L 414.329692 -56.73625 
L 416.904984 -56.73625 
L 419.480276 -56.73625 
L 422.055567 -56.73625 
L 424.630859 -56.73625 
L 427.206151 -56.73625 
L 429.781443 -56.73625 
L 432.356735 -56.73625 
L 434.932027 -56.73625 
L 437.507319 -56.73625 
L 440.082611 -56.73625 
L 442.657903 -56.73625 
L 445.233195 -56.73625 
L 447.808487 -56.73625 
L 450.383779 -56.73625 
L 452.959071 -56.73625 
L 455.534363 -56.73625 
L 458.109655 -56.73625 
L 458.109655 -56.749423 
L 458.109655 -56.749423 
L 455.534363 -56.755269 
L 452.959071 -56.771199 
L 450.383779 -56.801762 
L 447.808487 -56.854457 
L 445.233195 -56.939689 
L 442.657903 -57.070513 
L 440.082611 -57.261986 
L 437.507319 -57.529817 
L 434.932027 -57.88802 
L 432.356735 -58.345389 
L 429.781443 -58.901243 
L 427.206151 -59.541823 
L 424.630859 -60.239557 
L 422.055567 -60.957197 
L 419.480276 -61.65712 
L 416.904984 -62.313359 
L 414.329692 -62.921843 
L 411.7544 -63.504569 
L 409.179108 -64.106274 
L 406.603816 -64.786007 
L 404.028524 -65.608311 
L 401.453232 -66.637885 
L 398.87794 -67.93843 
L 396.302648 -69.573162 
L 393.727356 -71.603401 
L 391.152064 -74.083153 
L 388.576772 -77.050381 
L 386.00148 -80.518125 
L 383.426188 -84.469534 
L 380.850896 -88.859987 
L 378.275604 -93.626994 
L 375.700312 -98.705325 
L 373.12502 -104.042235 
L 370.549728 -109.607299 
L 367.974436 -115.39359 
L 365.399144 -121.410538 
L 362.823852 -127.671564 
L 360.24856 -134.180725 
L 357.673268 -140.922723 
L 355.097976 -147.86103 
L 352.522684 -154.948845 
L 349.947392 -162.154907 
L 347.3721 -169.499305 
L 344.796808 -177.085418 
L 342.221516 -185.108584 
L 339.646224 -193.825706 
L 337.070932 -203.484109 
L 334.495641 -214.227558 
L 331.920349 -226.012922 
L 329.345057 -238.573354 
L 326.769765 -251.449254 
L 324.194473 -264.08149 
L 321.619181 -275.934542 
L 319.043889 -286.60402 
L 316.468597 -295.871255 
L 313.893305 -303.693339 
L 311.318013 -310.146434 
L 308.742721 -315.357716 
L 306.167429 -319.458644 
L 303.592137 -322.572882 
L 301.016845 -324.828485 
L 298.441553 -326.369343 
L 295.866261 -327.343231 
L 293.290969 -327.861275 
L 290.715677 -327.946163 
L 288.140385 -327.500109 
L 285.565093 -326.319002 
L 282.989801 -324.157066 
L 280.414509 -320.818823 
L 277.839217 -316.238338 
L 275.263925 -310.510003 
L 272.688633 -303.858268 
L 270.113341 -296.562694 
L 267.538049 -288.873885 
L 264.962757 -280.955965 
L 262.387465 -272.873958 
L 259.812173 -264.620397 
L 257.236881 -256.15818 
L 254.661589 -247.454889 
L 252.086298 -238.496623 
L 249.511006 -229.287203 
L 246.935714 -219.848518 
L 244.360422 -210.23312 
L 241.78513 -200.544756 
L 239.209838 -190.948943 
L 236.634546 -181.655471 
L 234.059254 -172.869791 
L 231.483962 -164.730879 
L 228.90867 -157.264862 
L 226.333378 -150.37809 
L 223.758086 -143.893784 
L 221.182794 -137.615146 
L 218.607502 -131.387274 
L 216.03221 -125.134863 
L 213.456918 -118.867446 
L 210.881626 -112.659207 
L 208.306334 -106.618246 
L 205.731042 -100.858811 
L 203.15575 -95.482895 
L 200.580458 -90.57035 
L 198.005166 -86.173288 
L 195.429874 -82.311718 
L 192.854582 -78.97095 
L 190.27929 -76.103891 
L 187.703998 -73.640793 
L 185.128706 -71.50527 
L 182.553414 -69.631153 
L 179.978122 -67.973114 
L 177.40283 -66.506628 
L 174.827538 -65.21843 
L 172.252246 -64.093719 
L 169.676955 -63.107737 
L 167.101663 -62.226249 
L 164.526371 -61.414001 
L 161.951079 -60.645803 
L 159.375787 -59.913945 
L 156.800495 -59.228262 
L 154.225203 -58.609359 
L 151.649911 -58.078708 
L 149.074619 -57.650104 
L 146.499327 -57.325442 
L 143.924035 -57.095302 
L 141.348743 -56.942786 
L 138.773451 -56.848377 
L 136.198159 -56.793951 
L 133.622867 -56.765144 
L 131.047575 -56.752134 
z
" id="ma64b927ea6" style="stroke:#ffffff;stroke-opacity:0.7;stroke-width:0.16000000000000003;"/>
    </defs>
    <g clip-path="url(#p46388a424d)">
     <use style="fill:#5d5d5d;fill-opacity:0.7;stroke:#ffffff;stroke-opacity:0.7;stroke-width:0.16000000000000003;" x="0.0" xlink:href="#ma64b927ea6" y="415.512"/>
    </g>
   </g>
   <g id="PolyCollection_3">
    <defs>
     <path d="M 60.42125 -56.746488 
L 60.42125 -56.73625 
L 63.310712 -56.73625 
L 66.200175 -56.73625 
L 69.089637 -56.73625 
L 71.9791 -56.73625 
L 74.868562 -56.73625 
L 77.758024 -56.73625 
L 80.647487 -56.73625 
L 83.536949 -56.73625 
L 86.426412 -56.73625 
L 89.315874 -56.73625 
L 92.205336 -56.73625 
L 95.094799 -56.73625 
L 97.984261 -56.73625 
L 100.873723 -56.73625 
L 103.763186 -56.73625 
L 106.652648 -56.73625 
L 109.542111 -56.73625 
L 112.431573 -56.73625 
L 115.321035 -56.73625 
L 118.210498 -56.73625 
L 121.09996 -56.73625 
L 123.989423 -56.73625 
L 126.878885 -56.73625 
L 129.768347 -56.73625 
L 132.65781 -56.73625 
L 135.547272 -56.73625 
L 138.436735 -56.73625 
L 141.326197 -56.73625 
L 144.215659 -56.73625 
L 147.105122 -56.73625 
L 149.994584 -56.73625 
L 152.884047 -56.73625 
L 155.773509 -56.73625 
L 158.662971 -56.73625 
L 161.552434 -56.73625 
L 164.441896 -56.73625 
L 167.331359 -56.73625 
L 170.220821 -56.73625 
L 173.110283 -56.73625 
L 175.999746 -56.73625 
L 178.889208 -56.73625 
L 181.77867 -56.73625 
L 184.668133 -56.73625 
L 187.557595 -56.73625 
L 190.447058 -56.73625 
L 193.33652 -56.73625 
L 196.225982 -56.73625 
L 199.115445 -56.73625 
L 202.004907 -56.73625 
L 204.89437 -56.73625 
L 207.783832 -56.73625 
L 210.673294 -56.73625 
L 213.562757 -56.73625 
L 216.452219 -56.73625 
L 219.341682 -56.73625 
L 222.231144 -56.73625 
L 225.120606 -56.73625 
L 228.010069 -56.73625 
L 230.899531 -56.73625 
L 233.788994 -56.73625 
L 236.678456 -56.73625 
L 239.567918 -56.73625 
L 242.457381 -56.73625 
L 245.346843 -56.73625 
L 248.236305 -56.73625 
L 251.125768 -56.73625 
L 254.01523 -56.73625 
L 256.904693 -56.73625 
L 259.794155 -56.73625 
L 262.683617 -56.73625 
L 265.57308 -56.73625 
L 268.462542 -56.73625 
L 271.352005 -56.73625 
L 274.241467 -56.73625 
L 277.130929 -56.73625 
L 280.020392 -56.73625 
L 282.909854 -56.73625 
L 285.799317 -56.73625 
L 288.688779 -56.73625 
L 291.578241 -56.73625 
L 294.467704 -56.73625 
L 297.357166 -56.73625 
L 300.246629 -56.73625 
L 303.136091 -56.73625 
L 306.025553 -56.73625 
L 308.915016 -56.73625 
L 311.804478 -56.73625 
L 314.693941 -56.73625 
L 317.583403 -56.73625 
L 320.472865 -56.73625 
L 323.362328 -56.73625 
L 326.25179 -56.73625 
L 329.141252 -56.73625 
L 332.030715 -56.73625 
L 334.920177 -56.73625 
L 337.80964 -56.73625 
L 340.699102 -56.73625 
L 343.588564 -56.73625 
L 346.478027 -56.73625 
L 349.367489 -56.73625 
L 352.256952 -56.73625 
L 355.146414 -56.73625 
L 358.035876 -56.73625 
L 360.925339 -56.73625 
L 363.814801 -56.73625 
L 366.704264 -56.73625 
L 369.593726 -56.73625 
L 372.483188 -56.73625 
L 375.372651 -56.73625 
L 378.262113 -56.73625 
L 381.151576 -56.73625 
L 384.041038 -56.73625 
L 386.9305 -56.73625 
L 389.819963 -56.73625 
L 392.709425 -56.73625 
L 395.598887 -56.73625 
L 398.48835 -56.73625 
L 401.377812 -56.73625 
L 404.267275 -56.73625 
L 407.156737 -56.73625 
L 410.046199 -56.73625 
L 412.935662 -56.73625 
L 415.825124 -56.73625 
L 418.714587 -56.73625 
L 421.604049 -56.73625 
L 424.493511 -56.73625 
L 427.382974 -56.73625 
L 427.382974 -56.746309 
L 427.382974 -56.746309 
L 424.493511 -56.753586 
L 421.604049 -56.770716 
L 418.714587 -56.802064 
L 415.825124 -56.852552 
L 412.935662 -56.925288 
L 410.046199 -57.018671 
L 407.156737 -57.12426 
L 404.267275 -57.227139 
L 401.377812 -57.309888 
L 398.48835 -57.359518 
L 395.598887 -57.374762 
L 392.709425 -57.370282 
L 389.819963 -57.375444 
L 386.9305 -57.427741 
L 384.041038 -57.563308 
L 381.151576 -57.807954 
L 378.262113 -58.171582 
L 375.372651 -58.647415 
L 372.483188 -59.216094 
L 369.593726 -59.853779 
L 366.704264 -60.54276 
L 363.814801 -61.282517 
L 360.925339 -62.098282 
L 358.035876 -63.043762 
L 355.146414 -64.195294 
L 352.256952 -65.637017 
L 349.367489 -67.440119 
L 346.478027 -69.642625 
L 343.588564 -72.237784 
L 340.699102 -75.177597 
L 337.80964 -78.392921 
L 334.920177 -81.824864 
L 332.030715 -85.457048 
L 329.141252 -89.337745 
L 326.25179 -93.584563 
L 323.362328 -98.369282 
L 320.472865 -103.884384 
L 317.583403 -110.296773 
L 314.693941 -117.699809 
L 311.804478 -126.079784 
L 308.915016 -135.31092 
L 306.025553 -145.181325 
L 303.136091 -155.438099 
L 300.246629 -165.834915 
L 297.357166 -176.173543 
L 294.467704 -186.341472 
L 291.578241 -196.346248 
L 288.688779 -206.332375 
L 285.799317 -216.555423 
L 282.909854 -227.2991 
L 280.020392 -238.753832 
L 277.130929 -250.906505 
L 274.241467 -263.494183 
L 271.352005 -276.044578 
L 268.462542 -287.983017 
L 265.57308 -298.757992 
L 262.683617 -307.939133 
L 259.794155 -315.265171 
L 256.904693 -320.645885 
L 254.01523 -324.135762 
L 251.125768 -325.895716 
L 248.236305 -326.151396 
L 245.346843 -325.152783 
L 242.457381 -323.141881 
L 239.567918 -320.336818 
L 236.678456 -316.934458 
L 233.788994 -313.122209 
L 230.899531 -309.082621 
L 228.010069 -304.978252 
L 225.120606 -300.915852 
L 222.231144 -296.900462 
L 219.341682 -292.797259 
L 216.452219 -288.321703 
L 213.562757 -283.07491 
L 210.673294 -276.627938 
L 207.783832 -268.637557 
L 204.89437 -258.957605 
L 202.004907 -247.706112 
L 199.115445 -235.261975 
L 196.225982 -222.188626 
L 193.33652 -209.10589 
L 190.447058 -196.548709 
L 187.557595 -184.858806 
L 184.668133 -174.147385 
L 181.77867 -164.340811 
L 178.889208 -155.284173 
L 175.999746 -146.848552 
L 173.110283 -138.986742 
L 170.220821 -131.713741 
L 167.331359 -125.035285 
L 164.441896 -118.880239 
L 161.552434 -113.088742 
L 158.662971 -107.469726 
L 155.773509 -101.894145 
L 152.884047 -96.365779 
L 149.994584 -91.025399 
L 147.105122 -86.085515 
L 144.215659 -81.733329 
L 141.326197 -78.053703 
L 138.436735 -75.0068 
L 135.547272 -72.461879 
L 132.65781 -70.261259 
L 129.768347 -68.28014 
L 126.878885 -66.457962 
L 123.989423 -64.795442 
L 121.09996 -63.327577 
L 118.210498 -62.090327 
L 115.321035 -61.096719 
L 112.431573 -60.329818 
L 109.542111 -59.750468 
L 106.652648 -59.311584 
L 103.763186 -58.970277 
L 100.873723 -58.693222 
L 97.984261 -58.45602 
L 95.094799 -58.240437 
L 92.205336 -58.033035 
L 89.315874 -57.826054 
L 86.426412 -57.618896 
L 83.536949 -57.417962 
L 80.647487 -57.233876 
L 77.758024 -57.077118 
L 74.868562 -56.95416 
L 71.9791 -56.865743 
L 69.089637 -56.807629 
L 66.200175 -56.772878 
L 63.310712 -56.754342 
L 60.42125 -56.746488 
z
" id="mf28b9fbdc0" style="stroke:#ffffff;stroke-opacity:0.5;stroke-width:0.16000000000000003;"/>
    </defs>
    <g clip-path="url(#p46388a424d)">
     <use style="fill:#7b7b7b;fill-opacity:0.5;stroke:#ffffff;stroke-opacity:0.5;stroke-width:0.16000000000000003;" x="0.0" xlink:href="#mf28b9fbdc0" y="415.512"/>
    </g>
   </g>
   <g id="PolyCollection_4">
    <defs>
     <path d="M 84.043961 -56.747748 
L 84.043961 -56.73625 
L 86.594494 -56.73625 
L 89.145027 -56.73625 
L 91.69556 -56.73625 
L 94.246093 -56.73625 
L 96.796626 -56.73625 
L 99.347159 -56.73625 
L 101.897692 -56.73625 
L 104.448225 -56.73625 
L 106.998758 -56.73625 
L 109.549291 -56.73625 
L 112.099824 -56.73625 
L 114.650357 -56.73625 
L 117.20089 -56.73625 
L 119.751423 -56.73625 
L 122.301956 -56.73625 
L 124.852489 -56.73625 
L 127.403022 -56.73625 
L 129.953555 -56.73625 
L 132.504088 -56.73625 
L 135.054621 -56.73625 
L 137.605154 -56.73625 
L 140.155688 -56.73625 
L 142.706221 -56.73625 
L 145.256754 -56.73625 
L 147.807287 -56.73625 
L 150.35782 -56.73625 
L 152.908353 -56.73625 
L 155.458886 -56.73625 
L 158.009419 -56.73625 
L 160.559952 -56.73625 
L 163.110485 -56.73625 
L 165.661018 -56.73625 
L 168.211551 -56.73625 
L 170.762084 -56.73625 
L 173.312617 -56.73625 
L 175.86315 -56.73625 
L 178.413683 -56.73625 
L 180.964216 -56.73625 
L 183.514749 -56.73625 
L 186.065282 -56.73625 
L 188.615815 -56.73625 
L 191.166348 -56.73625 
L 193.716881 -56.73625 
L 196.267414 -56.73625 
L 198.817947 -56.73625 
L 201.36848 -56.73625 
L 203.919013 -56.73625 
L 206.469546 -56.73625 
L 209.020079 -56.73625 
L 211.570612 -56.73625 
L 214.121145 -56.73625 
L 216.671678 -56.73625 
L 219.222211 -56.73625 
L 221.772744 -56.73625 
L 224.323277 -56.73625 
L 226.87381 -56.73625 
L 229.424343 -56.73625 
L 231.974876 -56.73625 
L 234.525409 -56.73625 
L 237.075942 -56.73625 
L 239.626475 -56.73625 
L 242.177008 -56.73625 
L 244.727541 -56.73625 
L 247.278074 -56.73625 
L 249.828607 -56.73625 
L 252.37914 -56.73625 
L 254.929673 -56.73625 
L 257.480206 -56.73625 
L 260.030739 -56.73625 
L 262.581272 -56.73625 
L 265.131805 -56.73625 
L 267.682338 -56.73625 
L 270.232872 -56.73625 
L 272.783405 -56.73625 
L 275.333938 -56.73625 
L 277.884471 -56.73625 
L 280.435004 -56.73625 
L 282.985537 -56.73625 
L 285.53607 -56.73625 
L 288.086603 -56.73625 
L 290.637136 -56.73625 
L 293.187669 -56.73625 
L 295.738202 -56.73625 
L 298.288735 -56.73625 
L 300.839268 -56.73625 
L 303.389801 -56.73625 
L 305.940334 -56.73625 
L 308.490867 -56.73625 
L 311.0414 -56.73625 
L 313.591933 -56.73625 
L 316.142466 -56.73625 
L 318.692999 -56.73625 
L 321.243532 -56.73625 
L 323.794065 -56.73625 
L 326.344598 -56.73625 
L 328.895131 -56.73625 
L 331.445664 -56.73625 
L 333.996197 -56.73625 
L 336.54673 -56.73625 
L 339.097263 -56.73625 
L 341.647796 -56.73625 
L 344.198329 -56.73625 
L 346.748862 -56.73625 
L 349.299395 -56.73625 
L 351.849928 -56.73625 
L 354.400461 -56.73625 
L 356.950994 -56.73625 
L 359.501527 -56.73625 
L 362.05206 -56.73625 
L 364.602593 -56.73625 
L 367.153126 -56.73625 
L 369.703659 -56.73625 
L 372.254192 -56.73625 
L 374.804725 -56.73625 
L 377.355258 -56.73625 
L 379.905791 -56.73625 
L 382.456324 -56.73625 
L 385.006857 -56.73625 
L 387.55739 -56.73625 
L 390.107923 -56.73625 
L 392.658456 -56.73625 
L 395.208989 -56.73625 
L 397.759522 -56.73625 
L 400.310055 -56.73625 
L 402.860589 -56.73625 
L 405.411122 -56.73625 
L 407.961655 -56.73625 
L 407.961655 -56.747237 
L 407.961655 -56.747237 
L 405.411122 -56.753242 
L 402.860589 -56.767262 
L 400.310055 -56.79232 
L 397.759522 -56.832278 
L 395.208989 -56.890804 
L 392.658456 -56.970221 
L 390.107923 -57.070903 
L 387.55739 -57.192193 
L 385.006857 -57.335762 
L 382.456324 -57.511495 
L 379.905791 -57.744558 
L 377.355258 -58.080766 
L 374.804725 -58.586549 
L 372.254192 -59.34059 
L 369.703659 -60.416845 
L 367.153126 -61.862534 
L 364.602593 -63.678284 
L 362.05206 -65.809055 
L 359.501527 -68.152247 
L 356.950994 -70.583649 
L 354.400461 -72.994542 
L 351.849928 -75.327702 
L 349.299395 -77.59949 
L 346.748862 -79.900444 
L 344.198329 -82.375615 
L 341.647796 -85.193642 
L 339.097263 -88.516089 
L 336.54673 -92.474804 
L 333.996197 -97.158042 
L 331.445664 -102.600871 
L 328.895131 -108.775636 
L 326.344598 -115.583467 
L 323.794065 -122.853834 
L 321.243532 -130.360953 
L 318.692999 -137.861084 
L 316.142466 -145.145355 
L 313.591933 -152.093863 
L 311.0414 -158.713525 
L 308.490867 -165.146571 
L 305.940334 -171.646518 
L 303.389801 -178.528642 
L 300.839268 -186.107695 
L 298.288735 -194.635877 
L 295.738202 -204.25146 
L 293.187669 -214.946341 
L 290.637136 -226.559447 
L 288.086603 -238.79953 
L 285.53607 -251.293118 
L 282.985537 -263.643749 
L 280.435004 -275.483641 
L 277.884471 -286.50386 
L 275.333938 -296.462258 
L 272.783405 -305.180937 
L 270.232872 -312.547735 
L 267.682338 -318.527046 
L 265.131805 -323.171613 
L 262.581272 -326.619881 
L 260.030739 -329.068742 
L 257.480206 -330.725254 
L 254.929673 -331.753054 
L 252.37914 -332.231953 
L 249.828607 -332.14275 
L 247.278074 -331.37962 
L 244.727541 -329.785353 
L 242.177008 -327.201076 
L 239.626475 -323.519354 
L 237.075942 -318.726808 
L 234.525409 -312.921867 
L 231.974876 -306.298686 
L 229.424343 -299.099584 
L 226.87381 -291.551062 
L 224.323277 -283.805941 
L 221.772744 -275.912418 
L 219.222211 -267.820575 
L 216.671678 -259.422825 
L 214.121145 -250.612895 
L 211.570612 -241.342502 
L 209.020079 -231.65732 
L 206.469546 -221.701963 
L 203.919013 -211.693964 
L 201.36848 -201.875346 
L 198.817947 -192.455902 
L 196.267414 -183.564308 
L 193.716881 -175.221786 
L 191.166348 -167.347547 
L 188.615815 -159.795626 
L 186.065282 -152.411318 
L 183.514749 -145.086905 
L 180.964216 -137.795914 
L 178.413683 -130.594079 
L 175.86315 -123.589956 
L 173.312617 -116.901178 
L 170.762084 -110.616968 
L 168.211551 -104.781588 
L 165.661018 -99.400913 
L 163.110485 -94.46272 
L 160.559952 -89.956646 
L 158.009419 -85.88349 
L 155.458886 -82.251804 
L 152.908353 -79.066778 
L 150.35782 -76.318775 
L 147.807287 -73.976655 
L 145.256754 -71.987441 
L 142.706221 -70.281454 
L 140.155688 -68.781489 
L 137.605154 -67.414594 
L 135.054621 -66.12433 
L 132.504088 -64.88018 
L 129.953555 -63.680468 
L 127.403022 -62.546854 
L 124.852489 -61.511884 
L 122.301956 -60.604329 
L 119.751423 -59.838125 
L 117.20089 -59.208798 
L 114.650357 -58.697526 
L 112.099824 -58.279586 
L 109.549291 -57.932658 
L 106.998758 -57.64159 
L 104.448225 -57.39873 
L 101.897692 -57.201156 
L 99.347159 -57.047079 
L 96.796626 -56.933267 
L 94.246093 -56.854247 
L 91.69556 -56.802955 
L 89.145027 -56.772055 
L 86.594494 -56.755186 
L 84.043961 -56.747748 
z
" id="m1f3638fc7b" style="stroke:#ffffff;stroke-opacity:0.3;stroke-width:0.16000000000000003;"/>
    </defs>
    <g clip-path="url(#p46388a424d)">
     <use style="fill:#a1a1a1;fill-opacity:0.3;stroke:#ffffff;stroke-opacity:0.3;stroke-width:0.16000000000000003;" x="0.0" xlink:href="#m1f3638fc7b" y="415.512"/>
    </g>
   </g>
   <g id="line2d_16">
    <path clip-path="url(#p46388a424d)" d="M 135.454863 358.765117 
L 146.770049 358.641818 
L 152.427641 358.406214 
L 158.085234 357.968526 
L 166.571623 356.969917 
L 172.229216 356.303842 
L 177.886809 355.898601 
L 186.373198 355.522066 
L 189.201994 355.186389 
L 192.03079 354.615799 
L 194.859587 353.760599 
L 197.688383 352.59218 
L 200.517179 351.089991 
L 203.345976 349.226974 
L 206.174772 346.963042 
L 209.003568 344.251274 
L 211.832365 341.054052 
L 214.661161 337.360594 
L 217.489957 333.195962 
L 220.318754 328.615176 
L 223.14755 323.68264 
L 225.976347 318.444335 
L 228.805143 312.90519 
L 231.633939 307.023764 
L 234.462736 300.728807 
L 237.291532 293.949691 
L 240.120328 286.642913 
L 242.949125 278.798377 
L 245.777921 270.423289 
L 248.606717 261.518755 
L 251.435514 252.07069 
L 254.26431 242.066201 
L 257.093106 231.526938 
L 262.750699 209.251686 
L 268.408292 186.610546 
L 271.237088 175.673924 
L 274.065884 165.226113 
L 276.894681 155.378647 
L 279.723477 146.16943 
L 282.552274 137.548513 
L 288.209866 121.546891 
L 293.867459 106.655497 
L 296.696255 99.930389 
L 299.525052 94.107226 
L 302.353848 89.477075 
L 305.182644 86.161402 
L 308.011441 84.092292 
L 310.840237 83.114645 
L 313.669033 83.146761 
L 316.49783 84.289771 
L 319.326626 86.805284 
L 322.155422 90.967558 
L 324.984219 96.881445 
L 327.813015 104.380502 
L 330.641812 113.065894 
L 336.299404 132.150819 
L 347.61459 171.53494 
L 361.758571 222.038547 
L 364.587368 231.545629 
L 367.416164 240.479152 
L 370.24496 248.760621 
L 373.073757 256.441529 
L 387.217739 292.878199 
L 392.875331 307.900464 
L 395.704128 314.847455 
L 398.532924 321.129452 
L 401.36172 326.642418 
L 404.190517 331.37673 
L 407.019313 335.386281 
L 409.848109 338.754065 
L 412.676906 341.571934 
L 415.505702 343.936621 
L 418.334498 345.951403 
L 421.163295 347.721032 
L 426.820888 350.854158 
L 432.47848 353.61264 
L 435.307277 354.782114 
L 438.136073 355.756675 
L 440.964869 356.519386 
L 443.793666 357.080866 
L 446.622462 357.471558 
L 452.280055 357.887684 
L 460.766444 358.043028 
L 469.252833 358.183373 
L 486.225611 358.710297 
L 494.712 358.76534 
L 494.712 358.76534 
" style="fill:none;opacity:0.9;stroke:#484848;stroke-linecap:round;stroke-width:1.2000000000000002;"/>
   </g>
   <g id="line2d_17">
    <path clip-path="url(#p46388a424d)" d="M 131.047575 358.759866 
L 138.773451 358.663623 
L 143.924035 358.416698 
L 149.074619 357.861896 
L 154.225203 356.902641 
L 159.375787 355.598055 
L 164.526371 354.097999 
L 169.676955 352.404263 
L 172.252246 351.418281 
L 174.827538 350.29357 
L 177.40283 349.005372 
L 179.978122 347.538886 
L 182.553414 345.880847 
L 185.128706 344.00673 
L 187.703998 341.871207 
L 190.27929 339.408109 
L 192.854582 336.54105 
L 195.429874 333.200282 
L 198.005166 329.338712 
L 200.580458 324.94165 
L 203.15575 320.029105 
L 205.731042 314.653189 
L 208.306334 308.893754 
L 213.456918 296.644554 
L 226.333378 265.13391 
L 228.90867 258.247138 
L 231.483962 250.781121 
L 234.059254 242.642209 
L 236.634546 233.856529 
L 241.78513 214.967244 
L 249.511006 186.224797 
L 254.661589 168.057111 
L 259.812173 150.891603 
L 264.962757 134.556035 
L 270.113341 118.949306 
L 272.688633 111.653732 
L 275.263925 105.001997 
L 277.839217 99.273662 
L 280.414509 94.693177 
L 282.989801 91.354934 
L 285.565093 89.192998 
L 288.140385 88.011891 
L 290.715677 87.565837 
L 293.290969 87.650725 
L 295.866261 88.168769 
L 298.441553 89.142657 
L 301.016845 90.683515 
L 303.592137 92.939118 
L 306.167429 96.053356 
L 308.742721 100.154284 
L 311.318013 105.365566 
L 313.893305 111.818661 
L 316.468597 119.640745 
L 319.043889 128.90798 
L 321.619181 139.577458 
L 324.194473 151.43051 
L 331.920349 189.499078 
L 334.495641 201.284442 
L 337.070932 212.027891 
L 339.646224 221.686294 
L 342.221516 230.403416 
L 344.796808 238.426582 
L 349.947392 253.357093 
L 355.097976 267.65097 
L 360.24856 281.331275 
L 365.399144 294.101462 
L 370.549728 305.904701 
L 375.700312 316.806675 
L 378.275604 321.885006 
L 380.850896 326.652013 
L 383.426188 331.042466 
L 386.00148 334.993875 
L 388.576772 338.461619 
L 391.152064 341.428847 
L 393.727356 343.908599 
L 396.302648 345.938838 
L 398.87794 347.57357 
L 401.453232 348.874115 
L 404.028524 349.903689 
L 406.603816 350.725993 
L 411.7544 352.007431 
L 419.480276 353.85488 
L 429.781443 356.610757 
L 434.932027 357.62398 
L 440.082611 358.250014 
L 445.233195 358.572311 
L 452.959071 358.740801 
L 458.109655 358.762577 
L 458.109655 358.762577 
" style="fill:none;opacity:0.7;stroke:#5d5d5d;stroke-linecap:round;stroke-width:1.2000000000000002;"/>
   </g>
   <g id="line2d_18">
    <path clip-path="url(#p46388a424d)" d="M 60.42125 358.765512 
L 71.9791 358.646257 
L 80.647487 358.278124 
L 95.094799 357.271563 
L 103.763186 356.541723 
L 109.542111 355.761532 
L 112.431573 355.182182 
L 115.321035 354.415281 
L 118.210498 353.421673 
L 121.09996 352.184423 
L 123.989423 350.716558 
L 126.878885 349.054038 
L 129.768347 347.23186 
L 132.65781 345.250741 
L 135.547272 343.050121 
L 138.436735 340.5052 
L 141.326197 337.458297 
L 144.215659 333.778671 
L 147.105122 329.426485 
L 149.994584 324.486601 
L 155.773509 313.617855 
L 161.552434 302.423258 
L 164.441896 296.631761 
L 167.331359 290.476715 
L 170.220821 283.798259 
L 173.110283 276.525258 
L 175.999746 268.663448 
L 178.889208 260.227827 
L 181.77867 251.171189 
L 184.668133 241.364615 
L 187.557595 230.653194 
L 190.447058 218.963291 
L 193.33652 206.40611 
L 199.115445 180.250025 
L 202.004907 167.805888 
L 204.89437 156.554395 
L 207.783832 146.874443 
L 210.673294 138.884062 
L 213.562757 132.43709 
L 216.452219 127.190297 
L 219.341682 122.714741 
L 233.788994 102.389791 
L 236.678456 98.577542 
L 239.567918 95.175182 
L 242.457381 92.370119 
L 245.346843 90.359217 
L 248.236305 89.360604 
L 251.125768 89.616284 
L 254.01523 91.376238 
L 256.904693 94.866115 
L 259.794155 100.246829 
L 262.683617 107.572867 
L 265.57308 116.754008 
L 268.462542 127.528983 
L 271.352005 139.467422 
L 280.020392 176.758168 
L 282.909854 188.2129 
L 285.799317 198.956577 
L 291.578241 219.165752 
L 297.357166 239.338457 
L 306.025553 270.330675 
L 308.915016 280.20108 
L 311.804478 289.432216 
L 314.693941 297.812191 
L 317.583403 305.215227 
L 320.472865 311.627616 
L 323.362328 317.142718 
L 326.25179 321.927437 
L 329.141252 326.174255 
L 332.030715 330.054952 
L 334.920177 333.687136 
L 337.80964 337.119079 
L 340.699102 340.334403 
L 343.588564 343.274216 
L 346.478027 345.869375 
L 349.367489 348.071881 
L 352.256952 349.874983 
L 355.146414 351.316706 
L 358.035876 352.468238 
L 360.925339 353.413718 
L 366.704264 354.96924 
L 372.483188 356.295906 
L 378.262113 357.340418 
L 381.151576 357.704046 
L 386.9305 358.084259 
L 395.598887 358.137238 
L 404.267275 358.284861 
L 418.714587 358.709936 
L 427.382974 358.765691 
L 427.382974 358.765691 
" style="fill:none;opacity:0.5;stroke:#7b7b7b;stroke-linecap:round;stroke-width:1.2000000000000002;"/>
   </g>
   <g id="line2d_19">
    <path clip-path="url(#p46388a424d)" d="M 84.043961 358.764252 
L 94.246093 358.657753 
L 101.897692 358.310844 
L 106.998758 357.87041 
L 112.099824 357.232414 
L 117.20089 356.303202 
L 119.751423 355.673875 
L 122.301956 354.907671 
L 124.852489 354.000116 
L 129.953555 351.831532 
L 135.054621 349.38767 
L 140.155688 346.730511 
L 142.706221 345.230546 
L 145.256754 343.524559 
L 147.807287 341.535345 
L 150.35782 339.193225 
L 152.908353 336.445222 
L 155.458886 333.260196 
L 158.009419 329.62851 
L 160.559952 325.555354 
L 163.110485 321.04928 
L 165.661018 316.111087 
L 168.211551 310.730412 
L 170.762084 304.895032 
L 173.312617 298.610822 
L 175.86315 291.922044 
L 180.964216 277.716086 
L 188.615815 255.716374 
L 193.716881 240.290214 
L 196.267414 231.947692 
L 198.817947 223.056098 
L 203.919013 203.818036 
L 211.570612 174.169498 
L 214.121145 164.899105 
L 216.671678 156.089175 
L 221.772744 139.599582 
L 226.87381 123.960938 
L 229.424343 116.412416 
L 231.974876 109.213314 
L 234.525409 102.590133 
L 237.075942 96.785192 
L 239.626475 91.992646 
L 242.177008 88.310924 
L 244.727541 85.726647 
L 247.278074 84.13238 
L 249.828607 83.36925 
L 252.37914 83.280047 
L 254.929673 83.758946 
L 257.480206 84.786746 
L 260.030739 86.443258 
L 262.581272 88.892119 
L 265.131805 92.340387 
L 267.682338 96.984954 
L 270.232872 102.964265 
L 272.783405 110.331063 
L 275.333938 119.049742 
L 277.884471 129.00814 
L 280.435004 140.028359 
L 285.53607 164.218882 
L 290.637136 188.952553 
L 293.187669 200.565659 
L 295.738202 211.26054 
L 298.288735 220.876123 
L 300.839268 229.404305 
L 303.389801 236.983358 
L 305.940334 243.865482 
L 313.591933 263.418137 
L 316.142466 270.366645 
L 321.243532 285.151047 
L 326.344598 299.928533 
L 328.895131 306.736364 
L 331.445664 312.911129 
L 333.996197 318.353958 
L 336.54673 323.037196 
L 339.097263 326.995911 
L 341.647796 330.318358 
L 344.198329 333.136385 
L 346.748862 335.611556 
L 356.950994 344.928351 
L 362.05206 349.702945 
L 364.602593 351.833716 
L 367.153126 353.649466 
L 369.703659 355.095155 
L 372.254192 356.17141 
L 374.804725 356.925451 
L 377.355258 357.431234 
L 382.456324 358.000505 
L 390.107923 358.441097 
L 397.759522 358.679722 
L 407.961655 358.764763 
L 407.961655 358.764763 
" style="fill:none;opacity:0.3;stroke:#a1a1a1;stroke-linecap:round;stroke-width:1.2000000000000002;"/>
   </g>
   <g id="line2d_20">
    <path clip-path="url(#p46388a424d)" d="M 248.481761 358.77575 
L 248.481761 16.345312 
" style="fill:none;stroke:#222222;stroke-linecap:round;stroke-width:2.0;"/>
   </g>
   <g id="patch_3">
    <path d="M 60.42125 358.77575 
L 494.712 358.77575 
" style="fill:none;stroke:#8b909e;stroke-linecap:square;stroke-linejoin:miter;stroke-width:1.1199999999999999;"/>
   </g>
   <g id="patch_4">
    <path d="M 60.42125 358.77575 
L 60.42125 16.345312 
" style="fill:none;stroke:#8b909e;stroke-linecap:square;stroke-linejoin:miter;stroke-width:1.1199999999999999;"/>
   </g>
   <g id="legend_1">
    <g id="line2d_21">
     <path d="M 523.199225 41.660937 
L 563.199225 41.660937 
" style="fill:none;stroke:#222222;stroke-linecap:round;stroke-width:2.0;"/>
    </g>
    <g id="line2d_22"/>
    <g id="text_13">
     <!-- a/2 -->
     <defs>
      <path d="M 0 -1.21875 
L 20.75 72.796875 
L 27.78125 72.796875 
L 7.078125 -1.21875 
z
" id="ArialMT-2f"/>
     </defs>
     <g style="fill:#303030;" transform="translate(579.199225 48.6609375)scale(0.2 -0.2)">
      <use xlink:href="#ArialMT-61"/>
      <use x="55.615234375" xlink:href="#ArialMT-2f"/>
      <use x="83.3984375" xlink:href="#ArialMT-32"/>
     </g>
    </g>
    <g id="patch_5">
     <path d="M 523.199225 76.951562 
L 563.199225 76.951562 
L 563.199225 62.951562 
L 523.199225 62.951562 
z
" style="fill:#484848;opacity:0.9;stroke:#ffffff;stroke-linejoin:miter;stroke-width:0.16000000000000003;"/>
    </g>
    <g id="text_14">
     <!-- .15 -->
     <g style="fill:#303030;" transform="translate(579.199225 76.9515625)scale(0.2 -0.2)">
      <use xlink:href="#ArialMT-2e"/>
      <use x="27.783203125" xlink:href="#ArialMT-31"/>
      <use x="83.3984375" xlink:href="#ArialMT-35"/>
     </g>
    </g>
    <g id="patch_6">
     <path d="M 523.199225 105.242187 
L 563.199225 105.242187 
L 563.199225 91.242187 
L 523.199225 91.242187 
z
" style="fill:#5d5d5d;opacity:0.7;stroke:#ffffff;stroke-linejoin:miter;stroke-width:0.16000000000000003;"/>
    </g>
    <g id="text_15">
     <!-- .3 -->
     <defs>
      <path d="M 4.203125 18.890625 
L 12.984375 20.0625 
Q 14.5 12.59375 18.140625 9.296875 
Q 21.78125 6 27 6 
Q 33.203125 6 37.46875 10.296875 
Q 41.75 14.59375 41.75 20.953125 
Q 41.75 27 37.796875 30.921875 
Q 33.84375 34.859375 27.734375 34.859375 
Q 25.25 34.859375 21.53125 33.890625 
L 22.515625 41.609375 
Q 23.390625 41.5 23.921875 41.5 
Q 29.546875 41.5 34.03125 44.421875 
Q 38.53125 47.359375 38.53125 53.46875 
Q 38.53125 58.296875 35.25 61.46875 
Q 31.984375 64.65625 26.8125 64.65625 
Q 21.6875 64.65625 18.265625 61.421875 
Q 14.84375 58.203125 13.875 51.765625 
L 5.078125 53.328125 
Q 6.6875 62.15625 12.390625 67.015625 
Q 18.109375 71.875 26.609375 71.875 
Q 32.46875 71.875 37.390625 69.359375 
Q 42.328125 66.84375 44.9375 62.5 
Q 47.5625 58.15625 47.5625 53.265625 
Q 47.5625 48.640625 45.0625 44.828125 
Q 42.578125 41.015625 37.703125 38.765625 
Q 44.046875 37.3125 47.5625 32.6875 
Q 51.078125 28.078125 51.078125 21.140625 
Q 51.078125 11.765625 44.234375 5.25 
Q 37.40625 -1.265625 26.953125 -1.265625 
Q 17.53125 -1.265625 11.296875 4.34375 
Q 5.078125 9.96875 4.203125 18.890625 
" id="ArialMT-33"/>
     </defs>
     <g style="fill:#303030;" transform="translate(579.199225 105.2421875)scale(0.2 -0.2)">
      <use xlink:href="#ArialMT-2e"/>
      <use x="27.783203125" xlink:href="#ArialMT-33"/>
     </g>
    </g>
    <g id="patch_7">
     <path d="M 523.199225 133.532812 
L 563.199225 133.532812 
L 563.199225 119.532812 
L 523.199225 119.532812 
z
" style="fill:#7b7b7b;opacity:0.5;stroke:#ffffff;stroke-linejoin:miter;stroke-width:0.16000000000000003;"/>
    </g>
    <g id="text_16">
     <!-- .7 -->
     <defs>
      <path d="M 4.734375 62.203125 
L 4.734375 70.65625 
L 51.078125 70.65625 
L 51.078125 63.8125 
Q 44.234375 56.546875 37.515625 44.484375 
Q 30.8125 32.421875 27.15625 19.671875 
Q 24.515625 10.6875 23.78125 0 
L 14.75 0 
Q 14.890625 8.453125 18.0625 20.40625 
Q 21.234375 32.375 27.171875 43.484375 
Q 33.109375 54.59375 39.796875 62.203125 
z
" id="ArialMT-37"/>
     </defs>
     <g style="fill:#303030;" transform="translate(579.199225 133.5328125)scale(0.2 -0.2)">
      <use xlink:href="#ArialMT-2e"/>
      <use x="27.783203125" xlink:href="#ArialMT-37"/>
     </g>
    </g>
    <g id="patch_8">
     <path d="M 523.199225 161.823437 
L 563.199225 161.823437 
L 563.199225 147.823437 
L 523.199225 147.823437 
z
" style="fill:#a1a1a1;opacity:0.3;stroke:#ffffff;stroke-linejoin:miter;stroke-width:0.16000000000000003;"/>
    </g>
    <g id="text_17">
     <!-- .85 -->
     <defs>
      <path d="M 17.671875 38.8125 
Q 12.203125 40.828125 9.5625 44.53125 
Q 6.9375 48.25 6.9375 53.421875 
Q 6.9375 61.234375 12.546875 66.546875 
Q 18.171875 71.875 27.484375 71.875 
Q 36.859375 71.875 42.578125 66.421875 
Q 48.296875 60.984375 48.296875 53.171875 
Q 48.296875 48.1875 45.671875 44.5 
Q 43.0625 40.828125 37.75 38.8125 
Q 44.34375 36.671875 47.78125 31.875 
Q 51.21875 27.09375 51.21875 20.453125 
Q 51.21875 11.28125 44.71875 5.03125 
Q 38.234375 -1.21875 27.640625 -1.21875 
Q 17.046875 -1.21875 10.546875 5.046875 
Q 4.046875 11.328125 4.046875 20.703125 
Q 4.046875 27.6875 7.59375 32.390625 
Q 11.140625 37.109375 17.671875 38.8125 
M 15.921875 53.71875 
Q 15.921875 48.640625 19.1875 45.40625 
Q 22.46875 42.1875 27.6875 42.1875 
Q 32.765625 42.1875 36.015625 45.375 
Q 39.265625 48.578125 39.265625 53.21875 
Q 39.265625 58.0625 35.90625 61.359375 
Q 32.5625 64.65625 27.59375 64.65625 
Q 22.5625 64.65625 19.234375 61.421875 
Q 15.921875 58.203125 15.921875 53.71875 
M 13.09375 20.65625 
Q 13.09375 16.890625 14.875 13.375 
Q 16.65625 9.859375 20.171875 7.921875 
Q 23.6875 6 27.734375 6 
Q 34.03125 6 38.125 10.046875 
Q 42.234375 14.109375 42.234375 20.359375 
Q 42.234375 26.703125 38.015625 30.859375 
Q 33.796875 35.015625 27.4375 35.015625 
Q 21.234375 35.015625 17.15625 30.90625 
Q 13.09375 26.8125 13.09375 20.65625 
" id="ArialMT-38"/>
     </defs>
     <g style="fill:#303030;" transform="translate(579.199225 161.8234375)scale(0.2 -0.2)">
      <use xlink:href="#ArialMT-2e"/>
      <use x="27.783203125" xlink:href="#ArialMT-38"/>
      <use x="83.3984375" xlink:href="#ArialMT-35"/>
     </g>
    </g>
   </g>
  </g>
 </g>
 <defs>
  <clipPath id="p46388a424d">
   <rect height="342.4304375" width="434.29075" x="60.42125" y="16.3453125"/>
  </clipPath>
 </defs>
</svg>
